%TF.GenerationSoftware,KiCad,Pcbnew,9.0.7*%
%TF.CreationDate,2026-03-19T12:02:40+01:00*%
%TF.ProjectId,TweakTone_V1-2,54776561-6b54-46f6-9e65-5f56312d322e,rev?*%
%TF.SameCoordinates,Original*%
%TF.FileFunction,Copper,L2,Bot*%
%TF.FilePolarity,Positive*%
%FSLAX46Y46*%
G04 Gerber Fmt 4.6, Leading zero omitted, Abs format (unit mm)*
G04 Created by KiCad (PCBNEW 9.0.7) date 2026-03-19 12:02:40*
%MOMM*%
%LPD*%
G01*
G04 APERTURE LIST*
G04 Aperture macros list*
%AMOutline5P*
0 Free polygon, 5 corners , with rotation*
0 The origin of the aperture is its center*
0 number of corners: always 5*
0 $1 to $10 corner X, Y*
0 $11 Rotation angle, in degrees counterclockwise*
0 create outline with 5 corners*
4,1,5,$1,$2,$3,$4,$5,$6,$7,$8,$9,$10,$1,$2,$11*%
%AMOutline6P*
0 Free polygon, 6 corners , with rotation*
0 The origin of the aperture is its center*
0 number of corners: always 6*
0 $1 to $12 corner X, Y*
0 $13 Rotation angle, in degrees counterclockwise*
0 create outline with 6 corners*
4,1,6,$1,$2,$3,$4,$5,$6,$7,$8,$9,$10,$11,$12,$1,$2,$13*%
%AMOutline7P*
0 Free polygon, 7 corners , with rotation*
0 The origin of the aperture is its center*
0 number of corners: always 7*
0 $1 to $14 corner X, Y*
0 $15 Rotation angle, in degrees counterclockwise*
0 create outline with 7 corners*
4,1,7,$1,$2,$3,$4,$5,$6,$7,$8,$9,$10,$11,$12,$13,$14,$1,$2,$15*%
%AMOutline8P*
0 Free polygon, 8 corners , with rotation*
0 The origin of the aperture is its center*
0 number of corners: always 8*
0 $1 to $16 corner X, Y*
0 $17 Rotation angle, in degrees counterclockwise*
0 create outline with 8 corners*
4,1,8,$1,$2,$3,$4,$5,$6,$7,$8,$9,$10,$11,$12,$13,$14,$15,$16,$1,$2,$17*%
G04 Aperture macros list end*
%TA.AperFunction,ComponentPad*%
%ADD10R,2.000000X2.000000*%
%TD*%
%TA.AperFunction,ComponentPad*%
%ADD11C,2.000000*%
%TD*%
%TA.AperFunction,ComponentPad*%
%ADD12R,1.814400X1.814400*%
%TD*%
%TA.AperFunction,ComponentPad*%
%ADD13C,1.752600*%
%TD*%
%TA.AperFunction,ComponentPad*%
%ADD14C,1.814400*%
%TD*%
%TA.AperFunction,ComponentPad*%
%ADD15Outline8P,-0.907200X0.375775X-0.375775X0.907200X0.375775X0.907200X0.907200X0.375775X0.907200X-0.375775X0.375775X-0.907200X-0.375775X-0.907200X-0.907200X-0.375775X0.000000*%
%TD*%
%TA.AperFunction,ComponentPad*%
%ADD16R,2.794000X2.794000*%
%TD*%
%TA.AperFunction,ComponentPad*%
%ADD17C,2.794000*%
%TD*%
%TA.AperFunction,ComponentPad*%
%ADD18Outline8P,-1.397000X0.578656X-0.578656X1.397000X0.578656X1.397000X1.397000X0.578656X1.397000X-0.578656X0.578656X-1.397000X-0.578656X-1.397000X-1.397000X-0.578656X270.000000*%
%TD*%
%TA.AperFunction,ComponentPad*%
%ADD19R,1.752600X1.752600*%
%TD*%
%TA.AperFunction,ComponentPad*%
%ADD20Outline8P,-1.397000X0.578656X-0.578656X1.397000X0.578656X1.397000X1.397000X0.578656X1.397000X-0.578656X0.578656X-1.397000X-0.578656X-1.397000X-1.397000X-0.578656X180.000000*%
%TD*%
%TA.AperFunction,ComponentPad*%
%ADD21R,1.714400X1.714400*%
%TD*%
%TA.AperFunction,ComponentPad*%
%ADD22C,1.714400*%
%TD*%
%TA.AperFunction,ComponentPad*%
%ADD23Outline8P,-1.397000X0.578656X-0.578656X1.397000X0.578656X1.397000X1.397000X0.578656X1.397000X-0.578656X0.578656X-1.397000X-0.578656X-1.397000X-1.397000X-0.578656X90.000000*%
%TD*%
%TA.AperFunction,ComponentPad*%
%ADD24R,1.930400X1.930400*%
%TD*%
%TA.AperFunction,ComponentPad*%
%ADD25C,1.930400*%
%TD*%
%TA.AperFunction,Conductor*%
%ADD26C,0.500000*%
%TD*%
%TA.AperFunction,Conductor*%
%ADD27C,0.200000*%
%TD*%
%TA.AperFunction,Conductor*%
%ADD28C,0.600000*%
%TD*%
%TA.AperFunction,Conductor*%
%ADD29C,0.800000*%
%TD*%
%TA.AperFunction,Conductor*%
%ADD30C,0.700000*%
%TD*%
%TA.AperFunction,Conductor*%
%ADD31C,0.900000*%
%TD*%
G04 APERTURE END LIST*
D10*
%TO.P,IC2,1,OUT*%
%TO.N,Net-(IC2A-OUT)*%
X156972000Y-134874000D03*
D11*
%TO.P,IC2,2,-IN*%
%TO.N,Net-(IC2A--IN)*%
X156972000Y-137414000D03*
%TO.P,IC2,3,+IN*%
%TO.N,VR*%
X156972000Y-139954000D03*
%TO.P,IC2,4,V-*%
%TO.N,GND*%
X156972000Y-142494000D03*
%TO.P,IC2,5,+IN*%
%TO.N,VR*%
X164592000Y-142494000D03*
%TO.P,IC2,6,-IN*%
%TO.N,Net-(IC2B--IN)*%
X164592000Y-139954000D03*
%TO.P,IC2,7,OUT*%
%TO.N,Net-(IC2B-OUT)*%
X164592000Y-137414000D03*
%TO.P,IC2,8,V+*%
%TO.N,+9V(T)*%
X164592000Y-134874000D03*
%TD*%
D12*
%TO.P,IN0,1,PAD*%
%TO.N,Net-(IN0-PAD)*%
X140716000Y-126492000D03*
%TD*%
D13*
%TO.P,C12,1,1*%
%TO.N,Net-(C12-Pad1)*%
X188849000Y-96012000D03*
%TO.P,C12,2,2*%
%TO.N,GND*%
X193929000Y-96012000D03*
%TD*%
%TO.P,C5,1,1*%
%TO.N,Net-(IC2B-OUT)*%
X176022000Y-138430000D03*
%TO.P,C5,2,2*%
%TO.N,Net-(C5-Pad2)*%
X181102000Y-138430000D03*
%TD*%
D14*
%TO.P,R17,1,1*%
%TO.N,GND*%
X155702000Y-95631000D03*
%TO.P,R17,2,2*%
%TO.N,Net-(M2-PAD)*%
X148082000Y-95631000D03*
%TD*%
D13*
%TO.P,C4,1,1*%
%TO.N,Net-(IC2B--IN)*%
X171577000Y-140589000D03*
%TO.P,C4,2,2*%
%TO.N,Net-(IC2B-OUT)*%
X171577000Y-138049000D03*
%TD*%
%TO.P,C17,1,1*%
%TO.N,Net-(C17-Pad1)*%
X146558000Y-105410000D03*
%TO.P,C17,2,2*%
%TO.N,GND*%
X141478000Y-105410000D03*
%TD*%
D14*
%TO.P,R12,1,1*%
%TO.N,Net-(R12-Pad1)*%
X176022000Y-121285000D03*
%TO.P,R12,2,2*%
%TO.N,Net-(C9-Pad2)*%
X168402000Y-121285000D03*
%TD*%
%TO.P,R11,1,1*%
%TO.N,Net-(C8-Pad1)*%
X173101000Y-112014000D03*
%TO.P,R11,2,2*%
%TO.N,Net-(C7-Pad1)*%
X180721000Y-112014000D03*
%TD*%
D13*
%TO.P,C1,1,1*%
%TO.N,Net-(IN0-PAD)*%
X140589000Y-129794000D03*
%TO.P,C1,2,2*%
%TO.N,Net-(C1-Pad2)*%
X145669000Y-129794000D03*
%TD*%
D14*
%TO.P,R9,1,1*%
%TO.N,Net-(C7-Pad1)*%
X185039000Y-109855000D03*
%TO.P,R9,2,2*%
%TO.N,Net-(C13-Pad1)*%
X185039000Y-102235000D03*
%TD*%
D12*
%TO.P,GND0,1*%
%TO.N,GND*%
X159004000Y-95885000D03*
%TD*%
D13*
%TO.P,C13,1,1*%
%TO.N,Net-(C13-Pad1)*%
X182118000Y-102235000D03*
%TO.P,C13,2,2*%
%TO.N,Net-(C13-Pad2)*%
X182118000Y-97155000D03*
%TD*%
%TO.P,C2,1,1*%
%TO.N,Net-(IC2A--IN)*%
X154000000Y-137668000D03*
%TO.P,C2,2,2*%
%TO.N,Net-(IC2A-OUT)*%
X154000000Y-135128000D03*
%TD*%
%TO.P,C11,1,1*%
%TO.N,Net-(C10-Pad1)*%
X192532000Y-112268000D03*
%TO.P,C11,2,2*%
%TO.N,Net-(C11-Pad2)*%
X192532000Y-117348000D03*
%TD*%
%TO.P,C14,1,1*%
%TO.N,Net-(C14-Pad1)*%
X180403500Y-121666000D03*
%TO.P,C14,2,2*%
%TO.N,GND*%
X185483500Y-121666000D03*
%TD*%
D11*
%TO.P,REG1,1,VI*%
%TO.N,+9V(T)*%
X177165000Y-103759000D03*
%TO.P,REG1,2,GND*%
%TO.N,GND*%
X174625000Y-103759000D03*
%TO.P,REG1,3,VO*%
%TO.N,VA*%
X172085000Y-103759000D03*
%TD*%
D14*
%TO.P,R13,1,1*%
%TO.N,Net-(C9-Pad1)*%
X168317000Y-123984000D03*
%TO.P,R13,2,2*%
%TO.N,Net-(R12-Pad1)*%
X175937000Y-123984000D03*
%TD*%
%TO.P,R15,1,1*%
%TO.N,Net-(C15-Pad1)*%
X168317000Y-126484000D03*
%TO.P,R15,2,2*%
%TO.N,Net-(R12-Pad1)*%
X175937000Y-126484000D03*
%TD*%
D12*
%TO.P,L+0,1,PAD*%
%TO.N,Net-(L+0-PAD)*%
X159004000Y-90932000D03*
%TD*%
D14*
%TO.P,R8,1,1*%
%TO.N,Net-(C7-Pad1)*%
X180848000Y-114681000D03*
%TO.P,R8,2,2*%
%TO.N,Net-(C3-Pad1)*%
X173228000Y-114681000D03*
%TD*%
D15*
%TO.P,M2,1,PAD*%
%TO.N,Net-(M2-PAD)*%
X148082000Y-98933000D03*
%TD*%
D13*
%TO.P,C16,1,1*%
%TO.N,Net-(C16-Pad1)*%
X147193000Y-116078000D03*
%TO.P,C16,2,2*%
%TO.N,Net-(C16-Pad2)*%
X152273000Y-116078000D03*
%TD*%
D16*
%TO.P,TIME0,1,1*%
%TO.N,Net-(M2-PAD)*%
X137668000Y-102743000D03*
D17*
%TO.P,TIME0,2,2*%
%TO.N,Net-(M1-PAD)*%
X137668000Y-107823000D03*
D18*
%TO.P,TIME0,3,3*%
X137668000Y-112903000D03*
%TD*%
D14*
%TO.P,R2,1,1*%
%TO.N,Net-(C1-Pad2)*%
X145669000Y-132842000D03*
%TO.P,R2,2,2*%
%TO.N,Net-(IC2A--IN)*%
X145669000Y-140462000D03*
%TD*%
D13*
%TO.P,C18,1,1*%
%TO.N,Net-(C18-Pad1)*%
X152040000Y-102500000D03*
%TO.P,C18,2,2*%
%TO.N,GND*%
X146960000Y-102500000D03*
%TD*%
D19*
%TO.P,C21,+,+*%
%TO.N,+9V(T)*%
X176530000Y-98044000D03*
D13*
%TO.P,C21,-,-*%
%TO.N,GND*%
X173990000Y-98044000D03*
%TD*%
D14*
%TO.P,R20,1,1*%
%TO.N,VR*%
X167513000Y-142748000D03*
%TO.P,R20,2,2*%
%TO.N,+9V(T)*%
X167513000Y-135128000D03*
%TD*%
D16*
%TO.P,FB0,1,1*%
%TO.N,GND*%
X193802000Y-91344750D03*
D17*
%TO.P,FB0,2,2*%
%TO.N,Net-(C12-Pad1)*%
X188722000Y-91344750D03*
D20*
%TO.P,FB0,3,3*%
%TO.N,Net-(C13-Pad2)*%
X183642000Y-91344750D03*
%TD*%
D14*
%TO.P,R16,1,1*%
%TO.N,Net-(C11-Pad2)*%
X196596000Y-111506000D03*
%TO.P,R16,2,2*%
%TO.N,Net-(C12-Pad1)*%
X196596000Y-103886000D03*
%TD*%
%TO.P,R1,1,1*%
%TO.N,GND*%
X137541000Y-139065000D03*
%TO.P,R1,2,2*%
%TO.N,Net-(IN0-PAD)*%
X137541000Y-131445000D03*
%TD*%
D13*
%TO.P,C10,1,1*%
%TO.N,Net-(C10-Pad1)*%
X188341000Y-113411000D03*
%TO.P,C10,2,2*%
%TO.N,GND*%
X188341000Y-118491000D03*
%TD*%
D14*
%TO.P,R7,1,1*%
%TO.N,Net-(IC2B--IN)*%
X187452000Y-140081000D03*
%TO.P,R7,2,2*%
%TO.N,Net-(C6-Pad2)*%
X195072000Y-140081000D03*
%TD*%
%TO.P,R3,1,1*%
%TO.N,Net-(IC2A--IN)*%
X148971000Y-138557000D03*
%TO.P,R3,2,2*%
%TO.N,Net-(IC2A-OUT)*%
X148971000Y-130937000D03*
%TD*%
%TO.P,R18,1,1*%
%TO.N,Net-(L+0-PAD)*%
X162814000Y-92456000D03*
%TO.P,R18,2,2*%
%TO.N,+9V(T)*%
X170434000Y-92456000D03*
%TD*%
%TO.P,R5,1,1*%
%TO.N,Net-(IC2B--IN)*%
X185674000Y-133604000D03*
%TO.P,R5,2,2*%
%TO.N,Net-(IC2B-OUT)*%
X178054000Y-133604000D03*
%TD*%
%TO.P,R14,1,1*%
%TO.N,Net-(C9-Pad2)*%
X173101000Y-107442000D03*
%TO.P,R14,2,2*%
%TO.N,Net-(C10-Pad1)*%
X180721000Y-107442000D03*
%TD*%
%TO.P,R10,1,1*%
%TO.N,Net-(C8-Pad2)*%
X173101000Y-109728000D03*
%TO.P,R10,2,2*%
%TO.N,Net-(C7-Pad1)*%
X180721000Y-109728000D03*
%TD*%
%TO.P,R19,1,1*%
%TO.N,GND*%
X141605000Y-144399000D03*
%TO.P,R19,2,2*%
%TO.N,VR*%
X149225000Y-144399000D03*
%TD*%
%TO.P,R4,1,1*%
%TO.N,Net-(IC2A-OUT)*%
X156810000Y-131699000D03*
%TO.P,R4,2,2*%
%TO.N,Net-(IC2B--IN)*%
X164430000Y-131699000D03*
%TD*%
D13*
%TO.P,C8,1,1*%
%TO.N,Net-(C8-Pad1)*%
X170434000Y-114173000D03*
%TO.P,C8,2,2*%
%TO.N,Net-(C8-Pad2)*%
X170434000Y-109093000D03*
%TD*%
D14*
%TO.P,R6,1,1*%
%TO.N,Net-(C5-Pad2)*%
X183896000Y-138430000D03*
%TO.P,R6,2,2*%
%TO.N,Net-(OUT0-PAD)*%
X183896000Y-146050000D03*
%TD*%
D15*
%TO.P,M1,1,PAD*%
%TO.N,Net-(M1-PAD)*%
X152146000Y-98806000D03*
%TD*%
D12*
%TO.P,+9V0,1*%
%TO.N,+9V(T)*%
X174244000Y-92456000D03*
%TD*%
D13*
%TO.P,C3,1,1*%
%TO.N,Net-(C3-Pad1)*%
X153289000Y-126746000D03*
%TO.P,C3,2,2*%
%TO.N,Net-(IC2A-OUT)*%
X153289000Y-131826000D03*
%TD*%
D12*
%TO.P,OUT0,1,PAD*%
%TO.N,Net-(OUT0-PAD)*%
X187325000Y-145923000D03*
%TD*%
D21*
%TO.P,IC1,1,1*%
%TO.N,VA*%
X167540000Y-105380000D03*
D22*
%TO.P,IC1,2,2*%
%TO.N,Net-(C19-Pad+)*%
X165000000Y-105380000D03*
%TO.P,IC1,3,3*%
%TO.N,GND*%
X162460000Y-105380000D03*
%TO.P,IC1,4,4*%
X159920000Y-105380000D03*
%TO.P,IC1,5,5*%
%TO.N,unconnected-(IC1-Pad5)*%
X157380000Y-105380000D03*
%TO.P,IC1,6,6*%
%TO.N,Net-(M1-PAD)*%
X154840000Y-105380000D03*
%TO.P,IC1,7,7*%
%TO.N,Net-(C18-Pad1)*%
X152300000Y-105380000D03*
%TO.P,IC1,8,8*%
%TO.N,Net-(C17-Pad1)*%
X149760000Y-105380000D03*
%TO.P,IC1,9,9*%
%TO.N,Net-(C16-Pad1)*%
X149760000Y-113000000D03*
%TO.P,IC1,10,10*%
%TO.N,Net-(C16-Pad2)*%
X152300000Y-113000000D03*
%TO.P,IC1,11,11*%
%TO.N,Net-(C15-Pad2)*%
X154840000Y-113000000D03*
%TO.P,IC1,12,12*%
%TO.N,Net-(C15-Pad1)*%
X157380000Y-113000000D03*
%TO.P,IC1,13,13*%
%TO.N,Net-(C9-Pad1)*%
X159920000Y-113000000D03*
%TO.P,IC1,14,14*%
%TO.N,Net-(C9-Pad2)*%
X162460000Y-113000000D03*
%TO.P,IC1,15,15*%
%TO.N,Net-(C8-Pad2)*%
X165000000Y-113000000D03*
%TO.P,IC1,16,16*%
%TO.N,Net-(C8-Pad1)*%
X167540000Y-113000000D03*
%TD*%
D13*
%TO.P,C15,1,1*%
%TO.N,Net-(C15-Pad1)*%
X155000000Y-120000000D03*
%TO.P,C15,2,2*%
%TO.N,Net-(C15-Pad2)*%
X155000000Y-114920000D03*
%TD*%
D19*
%TO.P,C19,+,+*%
%TO.N,Net-(C19-Pad+)*%
X163322000Y-101346000D03*
D13*
%TO.P,C19,-,-*%
%TO.N,GND*%
X160782000Y-101346000D03*
%TD*%
%TO.P,C6,1,1*%
%TO.N,Net-(C6-Pad1)*%
X189738000Y-127381000D03*
%TO.P,C6,2,2*%
%TO.N,Net-(C6-Pad2)*%
X189738000Y-132461000D03*
%TD*%
%TO.P,C7,1,1*%
%TO.N,Net-(C7-Pad1)*%
X185166000Y-113411000D03*
%TO.P,C7,2,2*%
%TO.N,GND*%
X185166000Y-118491000D03*
%TD*%
%TO.P,C9,1,1*%
%TO.N,Net-(C9-Pad1)*%
X159893000Y-116586000D03*
%TO.P,C9,2,2*%
%TO.N,Net-(C9-Pad2)*%
X164973000Y-116586000D03*
%TD*%
D14*
%TO.P,D1,A,A*%
%TO.N,GND*%
X162687000Y-95964000D03*
D12*
%TO.P,D1,C,C*%
%TO.N,+9V(T)*%
X170307000Y-95964000D03*
%TD*%
D19*
%TO.P,C20,+,+*%
%TO.N,VR*%
X153289000Y-140589000D03*
D13*
%TO.P,C20,-,-*%
%TO.N,GND*%
X153289000Y-143129000D03*
%TD*%
D19*
%TO.P,C22,+,+*%
%TO.N,VA*%
X167640000Y-102743000D03*
D13*
%TO.P,C22,-,-*%
%TO.N,GND*%
X167640000Y-100203000D03*
%TD*%
D16*
%TO.P,MIX0,1,1*%
%TO.N,GND*%
X194405250Y-132715000D03*
D17*
%TO.P,MIX0,2,2*%
%TO.N,Net-(C6-Pad1)*%
X194405250Y-127635000D03*
D23*
%TO.P,MIX0,3,3*%
%TO.N,unconnected-(MIX0-Pad3)*%
X194405250Y-122555000D03*
%TD*%
D24*
%TO.P,TONE0,1,1*%
%TO.N,Net-(C14-Pad1)*%
X182816500Y-124714000D03*
D25*
%TO.P,TONE0,2,2*%
X185356500Y-127254000D03*
%TO.P,TONE0,3,3*%
%TO.N,Net-(R12-Pad1)*%
X182816500Y-129794000D03*
%TD*%
D26*
%TO.N,GND*%
X193929000Y-96012000D02*
X193929000Y-92075000D01*
D27*
X156972000Y-142494000D02*
X156386000Y-143080000D01*
D26*
X155702000Y-95631000D02*
X156845000Y-95631000D01*
X157099000Y-95885000D02*
X159004000Y-95885000D01*
D28*
X156386000Y-143080000D02*
X153338000Y-143080000D01*
D26*
X156845000Y-95631000D02*
X157099000Y-95885000D01*
D27*
X153338000Y-143080000D02*
X153289000Y-143129000D01*
D29*
%TO.N,Net-(C1-Pad2)*%
X145669000Y-132842000D02*
X145669000Y-129794000D01*
%TO.N,Net-(IN0-PAD)*%
X137541000Y-131445000D02*
X138938000Y-131445000D01*
X138938000Y-131445000D02*
X140589000Y-129794000D01*
X140589000Y-128016000D02*
X140589000Y-129794000D01*
X140716000Y-127889000D02*
X140589000Y-128016000D01*
X140716000Y-126492000D02*
X140716000Y-127889000D01*
%TO.N,Net-(IC2A-OUT)*%
X153898000Y-135230000D02*
X153770000Y-135230000D01*
D27*
X156972000Y-134874000D02*
X157000000Y-134846000D01*
X156972000Y-134874000D02*
X156386000Y-135460000D01*
D28*
X156386000Y-135460000D02*
X154230000Y-135460000D01*
D29*
X152400000Y-130937000D02*
X153289000Y-131826000D01*
X153770000Y-135230000D02*
X153730000Y-135190000D01*
X148971000Y-130937000D02*
X152400000Y-130937000D01*
D27*
X157000000Y-132730000D02*
X156810000Y-132540000D01*
D29*
X153289000Y-132238000D02*
X153289000Y-131826000D01*
X153591000Y-132540000D02*
X153289000Y-132238000D01*
D27*
X156810000Y-132540000D02*
X156810000Y-131699000D01*
D29*
X154000000Y-135128000D02*
X154000000Y-132537000D01*
X154000000Y-135128000D02*
X153898000Y-135230000D01*
X154000000Y-135230000D02*
X154000000Y-135128000D01*
D26*
X157000000Y-134846000D02*
X157000000Y-132730000D01*
D27*
X156810000Y-131699000D02*
X156810000Y-131953000D01*
D29*
X154000000Y-132537000D02*
X153289000Y-131826000D01*
D28*
%TO.N,Net-(IC2A--IN)*%
X145669000Y-140462000D02*
X147574000Y-138557000D01*
X149860000Y-137668000D02*
X154000000Y-137668000D01*
D27*
X154230000Y-138000000D02*
X154000000Y-137770000D01*
D28*
X147574000Y-138557000D02*
X148971000Y-138557000D01*
D27*
X156972000Y-137414000D02*
X156386000Y-138000000D01*
D28*
X148971000Y-138557000D02*
X149860000Y-137668000D01*
D27*
X154000000Y-137770000D02*
X154000000Y-137668000D01*
D28*
X156386000Y-138000000D02*
X154230000Y-138000000D01*
D27*
%TO.N,Net-(C3-Pad1)*%
X155956000Y-126746000D02*
X155829000Y-126746000D01*
X155956000Y-126873000D02*
X155829000Y-126746000D01*
D26*
X171323000Y-117602000D02*
X172720000Y-117602000D01*
D27*
X173228000Y-114681000D02*
X172847000Y-115062000D01*
D26*
X155829000Y-126746000D02*
X153289000Y-126746000D01*
D30*
X155956000Y-128651000D02*
X170815000Y-128651000D01*
X170815000Y-118110000D02*
X171323000Y-117602000D01*
D26*
X172847000Y-117729000D02*
X172847000Y-115062000D01*
D27*
X172720000Y-117602000D02*
X172847000Y-117729000D01*
D26*
X155956000Y-128651000D02*
X155956000Y-126873000D01*
D30*
X170815000Y-128651000D02*
X170815000Y-118110000D01*
D29*
%TO.N,Net-(IC2B-OUT)*%
X164592000Y-137414000D02*
X165178000Y-138000000D01*
X170610000Y-138000000D02*
X171040000Y-138430000D01*
D30*
X177673000Y-136779000D02*
X177673000Y-133985000D01*
X172720000Y-138430000D02*
X176022000Y-138430000D01*
X172720000Y-138430000D02*
X171958000Y-138430000D01*
X177673000Y-133985000D02*
X178054000Y-133604000D01*
X176022000Y-138430000D02*
X177673000Y-136779000D01*
D29*
X165178000Y-138000000D02*
X170610000Y-138000000D01*
D30*
X171958000Y-138430000D02*
X171577000Y-138049000D01*
D26*
%TO.N,Net-(C5-Pad2)*%
X181102000Y-138430000D02*
X183896000Y-138430000D01*
D29*
%TO.N,VR*%
X164592000Y-142892000D02*
X164592000Y-142494000D01*
X159639000Y-142081000D02*
X159639000Y-140208000D01*
X151003000Y-140462000D02*
X149225000Y-142240000D01*
X159385000Y-139954000D02*
X156972000Y-139954000D01*
X159678000Y-140208000D02*
X159639000Y-140208000D01*
X156386000Y-140540000D02*
X153338000Y-140540000D01*
X167259000Y-142494000D02*
X167513000Y-142748000D01*
X164592000Y-143052000D02*
X164592000Y-142494000D01*
X164592000Y-142494000D02*
X160052000Y-142494000D01*
X153162000Y-140462000D02*
X151003000Y-140462000D01*
X153338000Y-140540000D02*
X153289000Y-140589000D01*
X159639000Y-140208000D02*
X159385000Y-139954000D01*
X164592000Y-142494000D02*
X167259000Y-142494000D01*
X160052000Y-142494000D02*
X159893000Y-142335000D01*
D27*
X167386000Y-143129000D02*
X167259000Y-143002000D01*
D29*
X156972000Y-139954000D02*
X156386000Y-140540000D01*
X149225000Y-142240000D02*
X149225000Y-144399000D01*
X153162000Y-140462000D02*
X153289000Y-140589000D01*
X159893000Y-142335000D02*
X159639000Y-142081000D01*
X164850000Y-143310000D02*
X164592000Y-143052000D01*
X164700000Y-143000000D02*
X164592000Y-142892000D01*
D28*
%TO.N,Net-(C6-Pad2)*%
X195072000Y-140081000D02*
X195072000Y-137287000D01*
X195326000Y-137033000D02*
X190119000Y-137033000D01*
X189738000Y-136652000D02*
X189738000Y-132461000D01*
X190119000Y-137033000D02*
X189738000Y-136652000D01*
D27*
X195072000Y-137287000D02*
X195326000Y-137033000D01*
D28*
%TO.N,Net-(C6-Pad1)*%
X194405250Y-127635000D02*
X189992000Y-127635000D01*
D27*
X189992000Y-127635000D02*
X189738000Y-127381000D01*
D30*
%TO.N,Net-(C7-Pad1)*%
X185039000Y-109855000D02*
X185039000Y-113284000D01*
X185039000Y-113284000D02*
X185166000Y-113411000D01*
X180721000Y-109728000D02*
X180594000Y-109601000D01*
X180594000Y-109601000D02*
X180594000Y-109220000D01*
X182118000Y-113411000D02*
X185166000Y-113411000D01*
X180721000Y-109728000D02*
X184912000Y-109728000D01*
X180848000Y-114681000D02*
X182118000Y-113411000D01*
X184912000Y-109728000D02*
X185039000Y-109855000D01*
X180721000Y-112014000D02*
X180721000Y-109728000D01*
D27*
%TO.N,Net-(C8-Pad2)*%
X165000000Y-109501000D02*
X164973000Y-109474000D01*
X172466000Y-109093000D02*
X173101000Y-109728000D01*
D30*
X165000000Y-113000000D02*
X165000000Y-109501000D01*
D27*
X172583000Y-110500000D02*
X173101000Y-109982000D01*
X173101000Y-109982000D02*
X173101000Y-109728000D01*
D30*
X170434000Y-109093000D02*
X172466000Y-109093000D01*
X165354000Y-109093000D02*
X170434000Y-109093000D01*
D26*
X164973000Y-109474000D02*
X165354000Y-109093000D01*
D27*
%TO.N,Net-(C8-Pad1)*%
X172593000Y-112014000D02*
X173101000Y-112014000D01*
D29*
X170434000Y-114173000D02*
X169261000Y-113000000D01*
X170434000Y-114173000D02*
X172593000Y-112014000D01*
D30*
X169261000Y-113000000D02*
X167540000Y-113000000D01*
D27*
X172593000Y-112014000D02*
X172593000Y-112843000D01*
X167500000Y-113040000D02*
X167540000Y-113000000D01*
%TO.N,Net-(C9-Pad1)*%
X160000000Y-113080000D02*
X159920000Y-113000000D01*
X159131000Y-117348000D02*
X159893000Y-116586000D01*
D29*
X159893000Y-116586000D02*
X159893000Y-121412000D01*
X162465000Y-123984000D02*
X159893000Y-121412000D01*
D27*
X159893000Y-113027000D02*
X159920000Y-113000000D01*
D29*
X159893000Y-116586000D02*
X159893000Y-113027000D01*
X168317000Y-123984000D02*
X162465000Y-123984000D01*
D26*
%TO.N,Net-(C9-Pad2)*%
X162500000Y-107500000D02*
X162558000Y-107442000D01*
D29*
X164973000Y-116586000D02*
X165100000Y-116713000D01*
D30*
X162433000Y-115951000D02*
X162460000Y-115924000D01*
D29*
X165100000Y-116713000D02*
X168402000Y-116713000D01*
X162941000Y-116586000D02*
X162433000Y-116078000D01*
X168402000Y-121285000D02*
X168402000Y-116713000D01*
D30*
X162500000Y-112960000D02*
X162500000Y-107500000D01*
D29*
X162558000Y-107442000D02*
X173101000Y-107442000D01*
D30*
X162433000Y-116078000D02*
X162433000Y-115951000D01*
D27*
X168402000Y-116713000D02*
X168529000Y-116586000D01*
D29*
X162460000Y-115924000D02*
X162460000Y-113000000D01*
D27*
X162460000Y-113000000D02*
X162500000Y-112960000D01*
D29*
X164973000Y-116586000D02*
X162941000Y-116586000D01*
D30*
%TO.N,Net-(C10-Pad1)*%
X191389000Y-113411000D02*
X192532000Y-112268000D01*
X180594000Y-107315000D02*
X180721000Y-107442000D01*
X188468000Y-107442000D02*
X180721000Y-107442000D01*
X188341000Y-113411000D02*
X188341000Y-107569000D01*
X188341000Y-113411000D02*
X191389000Y-113411000D01*
X188341000Y-107569000D02*
X188468000Y-107442000D01*
%TO.N,Net-(C11-Pad2)*%
X196596000Y-117348000D02*
X196596000Y-111506000D01*
X192532000Y-117348000D02*
X196596000Y-117348000D01*
D26*
%TO.N,Net-(C12-Pad1)*%
X193294000Y-103886000D02*
X188849000Y-99441000D01*
D27*
X188849000Y-96012000D02*
X188849000Y-94107000D01*
D26*
X196596000Y-103886000D02*
X193294000Y-103886000D01*
X188722000Y-93980000D02*
X188722000Y-91344750D01*
X188849000Y-96012000D02*
X188849000Y-92075000D01*
X188849000Y-99441000D02*
X188849000Y-96012000D01*
D27*
X188849000Y-94107000D02*
X188722000Y-93980000D01*
%TO.N,Net-(C13-Pad2)*%
X183515000Y-97155000D02*
X183642000Y-97282000D01*
D28*
X182118000Y-97155000D02*
X183515000Y-97155000D01*
X183642000Y-97282000D02*
X183642000Y-91344750D01*
%TO.N,Net-(C13-Pad1)*%
X182118000Y-102235000D02*
X185039000Y-102235000D01*
D26*
%TO.N,Net-(C14-Pad1)*%
X185420000Y-124714000D02*
X185420000Y-124968000D01*
X180403500Y-124714000D02*
X180530500Y-124841000D01*
X185420000Y-124968000D02*
X185356500Y-125031500D01*
X180530500Y-124841000D02*
X180657500Y-124714000D01*
X180657500Y-124714000D02*
X182816500Y-124714000D01*
X180403500Y-121666000D02*
X180403500Y-124714000D01*
X182816500Y-124714000D02*
X185420000Y-124714000D01*
X185356500Y-125031500D02*
X185356500Y-127254000D01*
D29*
%TO.N,Net-(C15-Pad1)*%
X155000000Y-117500000D02*
X155500000Y-117500000D01*
X159056000Y-126484000D02*
X155000000Y-122428000D01*
X157500000Y-115500000D02*
X157500000Y-113120000D01*
X155500000Y-117500000D02*
X157500000Y-115500000D01*
X155000000Y-122428000D02*
X155000000Y-120000000D01*
X155000000Y-120000000D02*
X155000000Y-117500000D01*
X157500000Y-113120000D02*
X157380000Y-113000000D01*
D30*
X168317000Y-126484000D02*
X159056000Y-126484000D01*
D26*
%TO.N,Net-(C15-Pad2)*%
X154840000Y-114760000D02*
X154840000Y-113000000D01*
D27*
X154840000Y-113660000D02*
X154840000Y-113000000D01*
D26*
X155000000Y-114920000D02*
X154840000Y-114760000D01*
D27*
X154420000Y-114920000D02*
X154000000Y-114500000D01*
X155000000Y-114920000D02*
X154420000Y-114920000D01*
%TO.N,Net-(C16-Pad1)*%
X147163000Y-113000000D02*
X147193000Y-113030000D01*
D28*
X147193000Y-113030000D02*
X147193000Y-116078000D01*
X149760000Y-113000000D02*
X147163000Y-113000000D01*
%TO.N,Net-(C16-Pad2)*%
X152273000Y-116078000D02*
X152273000Y-113027000D01*
D27*
X152273000Y-113027000D02*
X152300000Y-113000000D01*
%TO.N,Net-(C17-Pad1)*%
X149680000Y-105460000D02*
X149760000Y-105380000D01*
D26*
X146500000Y-105460000D02*
X149680000Y-105460000D01*
%TO.N,Net-(C18-Pad1)*%
X152300000Y-105380000D02*
X152300000Y-102760000D01*
D27*
X152300000Y-102760000D02*
X152040000Y-102500000D01*
D30*
%TO.N,Net-(C19-Pad+)*%
X165000000Y-105380000D02*
X165000000Y-102730000D01*
D27*
X163409000Y-101433000D02*
X163322000Y-101346000D01*
X163703000Y-101433000D02*
X163409000Y-101433000D01*
D30*
X165000000Y-102730000D02*
X163703000Y-101433000D01*
D27*
%TO.N,VA*%
X167386000Y-103076000D02*
X167386000Y-102997000D01*
X171960000Y-104760000D02*
X171960000Y-103500000D01*
X167540000Y-103230000D02*
X167386000Y-103076000D01*
D26*
X167540000Y-105380000D02*
X167540000Y-103230000D01*
D30*
X167540000Y-105380000D02*
X170464000Y-105380000D01*
D27*
X167386000Y-102997000D02*
X167640000Y-102743000D01*
D30*
X170464000Y-105380000D02*
X172085000Y-103759000D01*
D26*
X171831000Y-103505000D02*
X171960000Y-103634000D01*
%TO.N,+9V(T)*%
X170434000Y-92456000D02*
X174244000Y-92456000D01*
D29*
X167464000Y-135460000D02*
X167513000Y-135411000D01*
X167513000Y-135128000D02*
X167513000Y-132207000D01*
D28*
X176736000Y-95964000D02*
X176784000Y-96012000D01*
D26*
X176784000Y-117348000D02*
X173101000Y-121031000D01*
D30*
X177165000Y-98679000D02*
X176530000Y-98044000D01*
D26*
X170307000Y-94615000D02*
X170307000Y-95964000D01*
D29*
X165178000Y-135460000D02*
X167464000Y-135460000D01*
X167513000Y-135411000D02*
X167513000Y-135128000D01*
X164592000Y-135432000D02*
X164592000Y-134874000D01*
D26*
X177292000Y-115824000D02*
X176784000Y-116332000D01*
D30*
X177292000Y-106172000D02*
X177165000Y-106045000D01*
D29*
X164592000Y-134874000D02*
X165178000Y-135460000D01*
X167513000Y-132207000D02*
X172085000Y-132207000D01*
D30*
X177165000Y-103759000D02*
X177165000Y-98679000D01*
X176784000Y-104648000D02*
X176784000Y-103756000D01*
X177165000Y-106045000D02*
X177165000Y-103759000D01*
D28*
X170307000Y-95964000D02*
X176736000Y-95964000D01*
D29*
X164850000Y-135690000D02*
X164592000Y-135432000D01*
D30*
X177292000Y-115824000D02*
X177292000Y-106172000D01*
D26*
X176784000Y-116332000D02*
X176784000Y-117348000D01*
D29*
X173228000Y-131064000D02*
X173228000Y-121158000D01*
X172085000Y-132207000D02*
X172720000Y-131572000D01*
D30*
X177165000Y-103759000D02*
X176784000Y-104140000D01*
D29*
X172720000Y-131572000D02*
X173228000Y-131064000D01*
D26*
X170434000Y-94488000D02*
X170434000Y-92456000D01*
D28*
X176530000Y-96266000D02*
X176530000Y-98044000D01*
X176784000Y-96012000D02*
X176530000Y-96266000D01*
D29*
%TO.N,Net-(M1-PAD)*%
X154813000Y-98806000D02*
X154840000Y-98779000D01*
X154840000Y-98779000D02*
X154840000Y-98706000D01*
X153670000Y-108458000D02*
X138303000Y-108458000D01*
X153670000Y-108458000D02*
X154840000Y-107288000D01*
X138303000Y-108458000D02*
X137668000Y-107823000D01*
X154840000Y-98706000D02*
X154813000Y-98679000D01*
X154840000Y-107288000D02*
X154840000Y-105380000D01*
X154840000Y-105380000D02*
X154840000Y-107669000D01*
X152146000Y-98806000D02*
X154813000Y-98806000D01*
X154051000Y-108458000D02*
X153670000Y-108458000D01*
X154840000Y-107669000D02*
X154051000Y-108458000D01*
X154840000Y-105380000D02*
X154840000Y-98779000D01*
X137668000Y-112903000D02*
X137668000Y-107823000D01*
D27*
%TO.N,Net-(IC2B--IN)*%
X164923000Y-131953000D02*
X164684000Y-131953000D01*
X164592000Y-140356000D02*
X164698000Y-140462000D01*
X164890000Y-140270000D02*
X164592000Y-139972000D01*
D31*
X163843000Y-132540000D02*
X164430000Y-131953000D01*
D27*
X164592000Y-139972000D02*
X164592000Y-139954000D01*
D26*
X185674000Y-139700000D02*
X185674000Y-133604000D01*
D31*
X164592000Y-139954000D02*
X164006000Y-140540000D01*
D27*
X164684000Y-131953000D02*
X164430000Y-131699000D01*
D31*
X164006000Y-140540000D02*
X161544000Y-140540000D01*
D27*
X164592000Y-139954000D02*
X164592000Y-140356000D01*
D26*
X186055000Y-140081000D02*
X185801000Y-139827000D01*
D31*
X161544000Y-140540000D02*
X161544000Y-132540000D01*
D26*
X187071000Y-140462000D02*
X187452000Y-140081000D01*
D27*
X164970000Y-132000000D02*
X164923000Y-131953000D01*
D31*
X161544000Y-132540000D02*
X163843000Y-132540000D01*
D30*
X164698000Y-140462000D02*
X187071000Y-140462000D01*
D31*
X164430000Y-131953000D02*
X164430000Y-131699000D01*
D27*
X185801000Y-139827000D02*
X185674000Y-139700000D01*
D26*
X187452000Y-140081000D02*
X186055000Y-140081000D01*
D28*
%TO.N,Net-(L+0-PAD)*%
X160528000Y-92456000D02*
X159004000Y-90932000D01*
X162814000Y-92456000D02*
X160528000Y-92456000D01*
D26*
%TO.N,Net-(M2-PAD)*%
X148082000Y-98933000D02*
X148082000Y-95631000D01*
D29*
X137668000Y-99314000D02*
X138049000Y-99314000D01*
X138049000Y-99314000D02*
X138557000Y-98806000D01*
X137668000Y-102743000D02*
X137668000Y-99314000D01*
X147955000Y-98806000D02*
X148082000Y-98933000D01*
X138557000Y-98806000D02*
X147955000Y-98806000D01*
D28*
%TO.N,Net-(OUT0-PAD)*%
X184023000Y-145923000D02*
X187325000Y-145923000D01*
D27*
%TO.N,Net-(R12-Pad1)*%
X175810000Y-123857000D02*
X175810000Y-122555000D01*
X175850000Y-127540000D02*
X175937000Y-127453000D01*
X175937000Y-123984000D02*
X175810000Y-123857000D01*
X175937000Y-126484000D02*
X175937000Y-123984000D01*
X183197500Y-129921000D02*
X182308500Y-130810000D01*
X175810000Y-122386000D02*
X176022000Y-122174000D01*
X176784000Y-129794000D02*
X176657000Y-129921000D01*
X175810000Y-122555000D02*
X175810000Y-122386000D01*
D26*
X182816500Y-129794000D02*
X176784000Y-129794000D01*
X175937000Y-129201000D02*
X175937000Y-126484000D01*
D27*
X175810000Y-122555000D02*
X175810000Y-122500000D01*
X176022000Y-122174000D02*
X176022000Y-121285000D01*
D26*
X176657000Y-129921000D02*
X175937000Y-129201000D01*
D27*
X175937000Y-127453000D02*
X175937000Y-126484000D01*
%TD*%
%TA.AperFunction,Conductor*%
%TO.N,GND*%
G36*
X174875000Y-105238100D02*
G01*
X174976249Y-105222065D01*
X174976255Y-105222063D01*
X175200804Y-105149102D01*
X175411171Y-105041914D01*
X175508608Y-104971122D01*
X175574414Y-104947642D01*
X175642468Y-104963467D01*
X175691163Y-105013573D01*
X175699425Y-105033122D01*
X175717787Y-105089636D01*
X175717788Y-105089639D01*
X175760097Y-105172673D01*
X175799261Y-105249536D01*
X175800006Y-105250997D01*
X175906441Y-105397494D01*
X175906445Y-105397499D01*
X175978181Y-105469235D01*
X176011666Y-105530558D01*
X176014500Y-105556916D01*
X176014500Y-105950038D01*
X176014499Y-105950053D01*
X176014499Y-105954454D01*
X176014499Y-106135546D01*
X176025528Y-106205180D01*
X176039864Y-106295691D01*
X176042827Y-106314403D01*
X176042830Y-106314414D01*
X176098787Y-106486636D01*
X176098790Y-106486643D01*
X176127984Y-106543937D01*
X176141500Y-106600233D01*
X176141500Y-115437505D01*
X176121815Y-115504544D01*
X176105181Y-115525186D01*
X175968025Y-115662341D01*
X175968024Y-115662342D01*
X175853058Y-115834403D01*
X175773870Y-116025579D01*
X175773868Y-116025587D01*
X175733500Y-116228530D01*
X175733500Y-116861506D01*
X175713815Y-116928545D01*
X175697181Y-116949187D01*
X172285026Y-120361341D01*
X172285023Y-120361345D01*
X172192602Y-120499663D01*
X172138990Y-120544468D01*
X172069665Y-120553175D01*
X172006637Y-120523020D01*
X171969918Y-120463577D01*
X171965500Y-120430772D01*
X171965500Y-118776500D01*
X171968050Y-118767814D01*
X171966762Y-118758853D01*
X171977740Y-118734812D01*
X171985185Y-118709461D01*
X171992025Y-118703533D01*
X171995787Y-118695297D01*
X172018021Y-118681007D01*
X172037989Y-118663706D01*
X172048503Y-118661418D01*
X172054565Y-118657523D01*
X172089500Y-118652500D01*
X172306772Y-118652500D01*
X172354225Y-118661939D01*
X172407724Y-118684099D01*
X172540580Y-118739130D01*
X172728453Y-118776500D01*
X172743530Y-118779499D01*
X172743534Y-118779500D01*
X172743535Y-118779500D01*
X172950466Y-118779500D01*
X172950467Y-118779499D01*
X173153420Y-118739130D01*
X173344598Y-118659941D01*
X173516655Y-118544977D01*
X173662977Y-118398655D01*
X173777941Y-118226598D01*
X173857130Y-118035420D01*
X173897500Y-117832465D01*
X173897500Y-116334939D01*
X173917185Y-116267900D01*
X173969989Y-116222145D01*
X173974053Y-116220376D01*
X173974764Y-116220081D01*
X173984917Y-116215876D01*
X174178783Y-116103947D01*
X174356381Y-115967672D01*
X174514672Y-115809381D01*
X174650947Y-115631783D01*
X174762876Y-115437917D01*
X174848542Y-115231100D01*
X174906481Y-115014871D01*
X174935700Y-114792929D01*
X174935700Y-114569071D01*
X174906481Y-114347129D01*
X174848542Y-114130900D01*
X174762876Y-113924083D01*
X174762874Y-113924080D01*
X174762872Y-113924075D01*
X174650951Y-113730224D01*
X174650947Y-113730217D01*
X174563761Y-113616593D01*
X174514673Y-113552620D01*
X174514667Y-113552613D01*
X174356386Y-113394332D01*
X174343703Y-113384600D01*
X174302501Y-113328172D01*
X174298346Y-113258426D01*
X174331509Y-113198543D01*
X174387672Y-113142381D01*
X174523947Y-112964783D01*
X174635876Y-112770917D01*
X174721542Y-112564100D01*
X174779481Y-112347871D01*
X174808700Y-112125929D01*
X174808700Y-111902071D01*
X174779481Y-111680129D01*
X174721542Y-111463900D01*
X174721479Y-111463749D01*
X174696707Y-111403943D01*
X174635876Y-111257083D01*
X174635874Y-111257080D01*
X174635872Y-111257075D01*
X174523951Y-111063224D01*
X174523947Y-111063217D01*
X174461317Y-110981595D01*
X174434377Y-110946486D01*
X174409183Y-110881317D01*
X174423222Y-110812872D01*
X174434377Y-110795514D01*
X174476122Y-110741110D01*
X174523947Y-110678783D01*
X174635876Y-110484917D01*
X174721542Y-110278100D01*
X174779481Y-110061871D01*
X174808700Y-109839929D01*
X174808700Y-109616071D01*
X174779481Y-109394129D01*
X174721542Y-109177900D01*
X174635876Y-108971083D01*
X174635874Y-108971080D01*
X174635872Y-108971075D01*
X174523951Y-108777224D01*
X174523947Y-108777217D01*
X174485122Y-108726619D01*
X174434377Y-108660486D01*
X174409183Y-108595317D01*
X174423222Y-108526872D01*
X174434377Y-108509514D01*
X174479220Y-108451073D01*
X174523947Y-108392783D01*
X174635876Y-108198917D01*
X174721542Y-107992100D01*
X174779481Y-107775871D01*
X174808700Y-107553929D01*
X174808700Y-107330071D01*
X174779481Y-107108129D01*
X174721542Y-106891900D01*
X174635876Y-106685083D01*
X174635874Y-106685080D01*
X174635872Y-106685075D01*
X174523951Y-106491224D01*
X174523947Y-106491217D01*
X174465626Y-106415211D01*
X174387673Y-106313620D01*
X174387667Y-106313613D01*
X174229386Y-106155332D01*
X174229379Y-106155326D01*
X174051791Y-106019059D01*
X174051789Y-106019057D01*
X174051783Y-106019053D01*
X174051778Y-106019050D01*
X174051775Y-106019048D01*
X173857924Y-105907127D01*
X173857913Y-105907122D01*
X173651104Y-105821459D01*
X173434867Y-105763518D01*
X173212939Y-105734301D01*
X173212934Y-105734300D01*
X173212929Y-105734300D01*
X172989071Y-105734300D01*
X172989065Y-105734300D01*
X172989060Y-105734301D01*
X172767132Y-105763518D01*
X172550895Y-105821459D01*
X172344086Y-105907122D01*
X172344075Y-105907127D01*
X172150224Y-106019048D01*
X172150208Y-106019059D01*
X171972620Y-106155326D01*
X171972614Y-106155331D01*
X171922767Y-106205180D01*
X171861444Y-106238666D01*
X171835085Y-106241500D01*
X171528914Y-106241500D01*
X171461875Y-106221815D01*
X171416120Y-106169011D01*
X171406176Y-106099853D01*
X171435201Y-106036297D01*
X171441233Y-106029819D01*
X171568463Y-105902589D01*
X171774531Y-105696520D01*
X171835852Y-105663037D01*
X171865217Y-105661335D01*
X171865217Y-105660500D01*
X172048693Y-105660500D01*
X172048694Y-105660499D01*
X172106682Y-105648964D01*
X172222658Y-105625896D01*
X172222661Y-105625894D01*
X172222666Y-105625894D01*
X172386547Y-105558013D01*
X172408994Y-105543012D01*
X172445784Y-105526342D01*
X172664993Y-105467606D01*
X172883049Y-105377284D01*
X173087450Y-105259273D01*
X173274699Y-105115592D01*
X173441592Y-104948699D01*
X173464835Y-104918406D01*
X173521260Y-104877205D01*
X173591006Y-104873048D01*
X173642670Y-104901659D01*
X173644112Y-104899972D01*
X173647813Y-104903133D01*
X173838828Y-105041914D01*
X174049195Y-105149102D01*
X174273744Y-105222063D01*
X174273750Y-105222065D01*
X174375000Y-105238101D01*
X174375000Y-104192012D01*
X174432007Y-104224925D01*
X174559174Y-104259000D01*
X174690826Y-104259000D01*
X174817993Y-104224925D01*
X174875000Y-104192012D01*
X174875000Y-105238100D01*
G37*
%TD.AperFunction*%
%TA.AperFunction,Conductor*%
G36*
X162139920Y-105134394D02*
G01*
X162087259Y-105225606D01*
X162060000Y-105327339D01*
X162060000Y-105432661D01*
X162087259Y-105534394D01*
X162139920Y-105625606D01*
X162144314Y-105630000D01*
X160235686Y-105630000D01*
X160240080Y-105625606D01*
X160292741Y-105534394D01*
X160320000Y-105432661D01*
X160320000Y-105327339D01*
X160292741Y-105225606D01*
X160240080Y-105134394D01*
X160235686Y-105130000D01*
X162144314Y-105130000D01*
X162139920Y-105134394D01*
G37*
%TD.AperFunction*%
%TA.AperFunction,Conductor*%
G36*
X198062216Y-87396140D02*
G01*
X198108385Y-87448582D01*
X198120000Y-87500980D01*
X198120000Y-102701618D01*
X198100315Y-102768657D01*
X198047511Y-102814412D01*
X197978353Y-102824356D01*
X197914797Y-102795331D01*
X197897624Y-102777105D01*
X197882667Y-102757613D01*
X197724386Y-102599332D01*
X197724379Y-102599326D01*
X197546791Y-102463059D01*
X197546789Y-102463057D01*
X197546783Y-102463053D01*
X197546778Y-102463050D01*
X197546775Y-102463048D01*
X197352924Y-102351127D01*
X197352913Y-102351122D01*
X197146104Y-102265459D01*
X196929867Y-102207518D01*
X196707939Y-102178301D01*
X196707934Y-102178300D01*
X196707929Y-102178300D01*
X196484071Y-102178300D01*
X196484065Y-102178300D01*
X196484060Y-102178301D01*
X196262132Y-102207518D01*
X196045895Y-102265459D01*
X195839086Y-102351122D01*
X195839075Y-102351127D01*
X195645224Y-102463048D01*
X195645208Y-102463059D01*
X195467620Y-102599326D01*
X195467613Y-102599332D01*
X195309328Y-102757617D01*
X195286795Y-102786985D01*
X195230367Y-102828189D01*
X195188418Y-102835500D01*
X193780493Y-102835500D01*
X193713454Y-102815815D01*
X193692812Y-102799181D01*
X189935819Y-99042188D01*
X189902334Y-98980865D01*
X189899500Y-98954507D01*
X189899500Y-97380633D01*
X189919185Y-97313594D01*
X189948015Y-97282256D01*
X189956964Y-97275389D01*
X190112385Y-97119968D01*
X190112390Y-97119963D01*
X190246200Y-96945579D01*
X190356103Y-96755221D01*
X190440219Y-96552146D01*
X190497110Y-96339829D01*
X190525800Y-96121903D01*
X190525800Y-95902097D01*
X190507356Y-95762000D01*
X192575140Y-95762000D01*
X193589403Y-95762000D01*
X193538461Y-95850234D01*
X193509900Y-95956824D01*
X193509900Y-96067176D01*
X193538461Y-96173766D01*
X193589403Y-96262000D01*
X192575140Y-96262000D01*
X192586588Y-96334280D01*
X192653534Y-96540318D01*
X192751883Y-96733339D01*
X192879219Y-96908600D01*
X192879219Y-96908601D01*
X193032398Y-97061780D01*
X193207660Y-97189116D01*
X193400681Y-97287465D01*
X193606714Y-97354410D01*
X193678999Y-97365859D01*
X193679000Y-97365859D01*
X193679000Y-96351596D01*
X193767234Y-96402539D01*
X193873824Y-96431100D01*
X193984176Y-96431100D01*
X194090766Y-96402539D01*
X194179000Y-96351596D01*
X194179000Y-97365859D01*
X194251284Y-97354410D01*
X194251287Y-97354410D01*
X194457318Y-97287465D01*
X194650339Y-97189116D01*
X194825600Y-97061780D01*
X194825601Y-97061780D01*
X194978780Y-96908601D01*
X194978780Y-96908600D01*
X195106116Y-96733339D01*
X195204465Y-96540318D01*
X195271411Y-96334280D01*
X195282860Y-96262000D01*
X194268597Y-96262000D01*
X194319539Y-96173766D01*
X194348100Y-96067176D01*
X194348100Y-95956824D01*
X194319539Y-95850234D01*
X194268597Y-95762000D01*
X195282860Y-95762000D01*
X195271411Y-95689719D01*
X195204465Y-95483681D01*
X195106116Y-95290660D01*
X194978780Y-95115399D01*
X194978780Y-95115398D01*
X194825601Y-94962219D01*
X194650339Y-94834883D01*
X194457318Y-94736534D01*
X194251280Y-94669588D01*
X194179000Y-94658139D01*
X194179000Y-95672403D01*
X194090766Y-95621461D01*
X193984176Y-95592900D01*
X193873824Y-95592900D01*
X193767234Y-95621461D01*
X193679000Y-95672403D01*
X193679000Y-94658139D01*
X193606719Y-94669588D01*
X193400681Y-94736534D01*
X193207660Y-94834883D01*
X193032399Y-94962219D01*
X193032398Y-94962219D01*
X192879219Y-95115398D01*
X192879219Y-95115399D01*
X192751883Y-95290660D01*
X192653534Y-95483681D01*
X192586588Y-95689719D01*
X192575140Y-95762000D01*
X190507356Y-95762000D01*
X190497110Y-95684171D01*
X190440219Y-95471854D01*
X190356103Y-95268779D01*
X190323129Y-95211667D01*
X190246200Y-95078421D01*
X190112392Y-94904039D01*
X190043236Y-94834883D01*
X189956963Y-94748610D01*
X189956958Y-94748606D01*
X189956956Y-94748604D01*
X189956954Y-94748602D01*
X189948009Y-94741738D01*
X189906809Y-94685309D01*
X189899500Y-94643366D01*
X189899500Y-93272260D01*
X189919185Y-93205221D01*
X189948012Y-93173885D01*
X190174021Y-93000463D01*
X190377713Y-92796771D01*
X190553075Y-92568235D01*
X190697107Y-92318765D01*
X190807344Y-92052629D01*
X190881900Y-91774381D01*
X190919500Y-91488782D01*
X190919500Y-91200718D01*
X190881900Y-90915119D01*
X190807344Y-90636871D01*
X190801835Y-90623572D01*
X190697108Y-90370738D01*
X190697103Y-90370727D01*
X190553079Y-90121272D01*
X190553075Y-90121265D01*
X190531689Y-90093395D01*
X190438607Y-89972087D01*
X190383220Y-89899905D01*
X191905000Y-89899905D01*
X191905000Y-91094750D01*
X193093759Y-91094750D01*
X193080822Y-91125983D01*
X193052000Y-91270881D01*
X193052000Y-91418619D01*
X193080822Y-91563517D01*
X193093759Y-91594750D01*
X191905000Y-91594750D01*
X191905000Y-92789594D01*
X191911401Y-92849122D01*
X191911403Y-92849129D01*
X191961645Y-92983836D01*
X191961649Y-92983843D01*
X192047809Y-93098937D01*
X192047812Y-93098940D01*
X192162906Y-93185100D01*
X192162913Y-93185104D01*
X192297620Y-93235346D01*
X192297627Y-93235348D01*
X192357155Y-93241749D01*
X192357172Y-93241750D01*
X193552000Y-93241750D01*
X193552000Y-92052990D01*
X193583233Y-92065928D01*
X193728131Y-92094750D01*
X193875869Y-92094750D01*
X194020767Y-92065928D01*
X194052000Y-92052990D01*
X194052000Y-93241750D01*
X195246828Y-93241750D01*
X195246844Y-93241749D01*
X195306372Y-93235348D01*
X195306379Y-93235346D01*
X195441086Y-93185104D01*
X195441093Y-93185100D01*
X195556187Y-93098940D01*
X195556190Y-93098937D01*
X195642350Y-92983843D01*
X195642354Y-92983836D01*
X195692596Y-92849129D01*
X195692598Y-92849122D01*
X195698999Y-92789594D01*
X195699000Y-92789577D01*
X195699000Y-91594750D01*
X194510241Y-91594750D01*
X194523178Y-91563517D01*
X194552000Y-91418619D01*
X194552000Y-91270881D01*
X194523178Y-91125983D01*
X194510241Y-91094750D01*
X195699000Y-91094750D01*
X195699000Y-89899922D01*
X195698999Y-89899905D01*
X195692598Y-89840377D01*
X195692596Y-89840370D01*
X195642354Y-89705663D01*
X195642350Y-89705656D01*
X195556190Y-89590562D01*
X195556187Y-89590559D01*
X195441093Y-89504399D01*
X195441086Y-89504395D01*
X195306379Y-89454153D01*
X195306372Y-89454151D01*
X195246844Y-89447750D01*
X194052000Y-89447750D01*
X194052000Y-90636509D01*
X194020767Y-90623572D01*
X193875869Y-90594750D01*
X193728131Y-90594750D01*
X193583233Y-90623572D01*
X193552000Y-90636509D01*
X193552000Y-89447750D01*
X192357155Y-89447750D01*
X192297627Y-89454151D01*
X192297620Y-89454153D01*
X192162913Y-89504395D01*
X192162906Y-89504399D01*
X192047812Y-89590559D01*
X192047809Y-89590562D01*
X191961649Y-89705656D01*
X191961645Y-89705663D01*
X191911403Y-89840370D01*
X191911401Y-89840377D01*
X191905000Y-89899905D01*
X190383220Y-89899905D01*
X190377714Y-89892730D01*
X190377708Y-89892723D01*
X190174026Y-89689041D01*
X190174019Y-89689035D01*
X189945493Y-89513681D01*
X189945491Y-89513679D01*
X189945485Y-89513675D01*
X189945480Y-89513672D01*
X189945477Y-89513670D01*
X189696022Y-89369646D01*
X189696011Y-89369641D01*
X189429888Y-89259409D01*
X189429881Y-89259407D01*
X189429879Y-89259406D01*
X189151631Y-89184850D01*
X189151625Y-89184849D01*
X189151620Y-89184848D01*
X188866041Y-89147251D01*
X188866038Y-89147250D01*
X188866032Y-89147250D01*
X188577968Y-89147250D01*
X188577962Y-89147250D01*
X188577958Y-89147251D01*
X188292379Y-89184848D01*
X188292372Y-89184849D01*
X188292369Y-89184850D01*
X188014121Y-89259406D01*
X188014111Y-89259409D01*
X187747988Y-89369641D01*
X187747977Y-89369646D01*
X187498522Y-89513670D01*
X187498506Y-89513681D01*
X187269980Y-89689035D01*
X187269973Y-89689041D01*
X187066291Y-89892723D01*
X187066285Y-89892730D01*
X186890931Y-90121256D01*
X186890920Y-90121272D01*
X186746896Y-90370727D01*
X186746891Y-90370738D01*
X186636659Y-90636861D01*
X186636656Y-90636871D01*
X186575087Y-90866653D01*
X186562101Y-90915116D01*
X186562098Y-90915129D01*
X186524501Y-91200708D01*
X186524500Y-91200724D01*
X186524500Y-91488775D01*
X186524501Y-91488791D01*
X186562098Y-91774370D01*
X186562099Y-91774375D01*
X186562100Y-91774381D01*
X186627498Y-92018449D01*
X186636656Y-92052628D01*
X186636659Y-92052638D01*
X186746891Y-92318761D01*
X186746896Y-92318772D01*
X186890920Y-92568227D01*
X186890931Y-92568243D01*
X187066285Y-92796769D01*
X187066291Y-92796776D01*
X187269973Y-93000458D01*
X187269979Y-93000463D01*
X187498515Y-93175825D01*
X187601612Y-93235348D01*
X187609500Y-93239902D01*
X187657716Y-93290469D01*
X187671500Y-93347289D01*
X187671500Y-94083469D01*
X187711868Y-94286412D01*
X187711870Y-94286420D01*
X187789061Y-94472774D01*
X187790687Y-94480951D01*
X187793477Y-94485292D01*
X187798500Y-94520227D01*
X187798500Y-94643366D01*
X187778815Y-94710405D01*
X187749991Y-94741738D01*
X187741045Y-94748602D01*
X187741043Y-94748604D01*
X187585607Y-94904039D01*
X187451799Y-95078421D01*
X187341898Y-95268775D01*
X187341894Y-95268785D01*
X187257782Y-95471849D01*
X187200889Y-95684174D01*
X187172200Y-95902096D01*
X187172200Y-96121903D01*
X187200889Y-96339825D01*
X187257782Y-96552150D01*
X187341894Y-96755214D01*
X187341898Y-96755224D01*
X187451799Y-96945578D01*
X187585608Y-97119961D01*
X187585614Y-97119968D01*
X187741035Y-97275389D01*
X187749985Y-97282256D01*
X187791188Y-97338683D01*
X187798500Y-97380633D01*
X187798500Y-99544469D01*
X187838868Y-99747412D01*
X187838870Y-99747420D01*
X187894084Y-99880719D01*
X187918059Y-99938598D01*
X187937329Y-99967438D01*
X188033024Y-100110657D01*
X188183664Y-100261297D01*
X188183686Y-100261317D01*
X192474897Y-104552528D01*
X192474926Y-104552559D01*
X192624342Y-104701975D01*
X192624345Y-104701977D01*
X192796402Y-104816941D01*
X192987580Y-104896130D01*
X193190530Y-104936499D01*
X193190534Y-104936500D01*
X193190535Y-104936500D01*
X195188418Y-104936500D01*
X195255457Y-104956185D01*
X195286794Y-104985014D01*
X195292017Y-104991821D01*
X195309328Y-105014382D01*
X195467613Y-105172667D01*
X195467620Y-105172673D01*
X195536604Y-105225606D01*
X195645217Y-105308947D01*
X195645224Y-105308951D01*
X195839075Y-105420872D01*
X195839080Y-105420874D01*
X195839083Y-105420876D01*
X196045900Y-105506542D01*
X196262129Y-105564481D01*
X196484071Y-105593700D01*
X196484078Y-105593700D01*
X196707922Y-105593700D01*
X196707929Y-105593700D01*
X196929871Y-105564481D01*
X197146100Y-105506542D01*
X197352917Y-105420876D01*
X197546783Y-105308947D01*
X197724381Y-105172672D01*
X197882672Y-105014381D01*
X197897623Y-104994895D01*
X197954050Y-104953693D01*
X198023796Y-104949536D01*
X198084717Y-104983748D01*
X198117471Y-105045464D01*
X198120000Y-105070381D01*
X198120000Y-110321618D01*
X198100315Y-110388657D01*
X198047511Y-110434412D01*
X197978353Y-110444356D01*
X197914797Y-110415331D01*
X197897624Y-110397105D01*
X197891142Y-110388657D01*
X197882672Y-110377619D01*
X197882670Y-110377617D01*
X197882667Y-110377613D01*
X197724386Y-110219332D01*
X197724379Y-110219326D01*
X197546791Y-110083059D01*
X197546789Y-110083057D01*
X197546783Y-110083053D01*
X197546778Y-110083050D01*
X197546775Y-110083048D01*
X197352924Y-109971127D01*
X197352913Y-109971122D01*
X197146104Y-109885459D01*
X197037985Y-109856488D01*
X196929871Y-109827519D01*
X196929870Y-109827518D01*
X196929867Y-109827518D01*
X196707939Y-109798301D01*
X196707934Y-109798300D01*
X196707929Y-109798300D01*
X196484071Y-109798300D01*
X196484065Y-109798300D01*
X196484060Y-109798301D01*
X196262132Y-109827518D01*
X196045895Y-109885459D01*
X195839086Y-109971122D01*
X195839075Y-109971127D01*
X195645224Y-110083048D01*
X195645208Y-110083059D01*
X195467620Y-110219326D01*
X195467613Y-110219332D01*
X195309332Y-110377613D01*
X195309326Y-110377620D01*
X195173059Y-110555208D01*
X195173048Y-110555224D01*
X195061127Y-110749075D01*
X195061122Y-110749086D01*
X194975459Y-110955895D01*
X194917518Y-111172132D01*
X194888301Y-111394060D01*
X194888300Y-111394077D01*
X194888300Y-111617922D01*
X194888301Y-111617939D01*
X194917518Y-111839867D01*
X194975459Y-112056104D01*
X195061122Y-112262913D01*
X195061127Y-112262924D01*
X195173048Y-112456775D01*
X195173059Y-112456791D01*
X195309325Y-112634378D01*
X195309327Y-112634380D01*
X195309328Y-112634381D01*
X195409182Y-112734235D01*
X195442666Y-112795556D01*
X195445500Y-112821915D01*
X195445500Y-116073500D01*
X195425815Y-116140539D01*
X195373011Y-116186294D01*
X195321500Y-116197500D01*
X193804215Y-116197500D01*
X193737176Y-116177815D01*
X193716538Y-116161185D01*
X193639963Y-116084610D01*
X193639962Y-116084609D01*
X193639960Y-116084607D01*
X193465578Y-115950799D01*
X193275224Y-115840898D01*
X193275214Y-115840894D01*
X193072150Y-115756782D01*
X192859825Y-115699889D01*
X192641904Y-115671200D01*
X192641903Y-115671200D01*
X192422097Y-115671200D01*
X192422096Y-115671200D01*
X192204174Y-115699889D01*
X191991849Y-115756782D01*
X191788785Y-115840894D01*
X191788775Y-115840898D01*
X191598421Y-115950799D01*
X191424038Y-116084608D01*
X191424031Y-116084614D01*
X191268614Y-116240031D01*
X191268608Y-116240038D01*
X191134799Y-116414421D01*
X191024898Y-116604775D01*
X191024894Y-116604785D01*
X190940782Y-116807849D01*
X190883889Y-117020174D01*
X190855200Y-117238096D01*
X190855200Y-117457903D01*
X190883889Y-117675825D01*
X190940782Y-117888150D01*
X191024894Y-118091214D01*
X191024898Y-118091224D01*
X191134799Y-118281578D01*
X191268608Y-118455961D01*
X191268614Y-118455968D01*
X191424031Y-118611385D01*
X191424038Y-118611391D01*
X191598421Y-118745200D01*
X191788775Y-118855101D01*
X191788776Y-118855101D01*
X191788779Y-118855103D01*
X191991854Y-118939219D01*
X192204171Y-118996110D01*
X192367615Y-119017627D01*
X192422096Y-119024800D01*
X192422097Y-119024800D01*
X192641904Y-119024800D01*
X192685488Y-119019062D01*
X192859829Y-118996110D01*
X193072146Y-118939219D01*
X193275221Y-118855103D01*
X193465579Y-118745200D01*
X193639963Y-118611390D01*
X193716535Y-118534817D01*
X193777856Y-118501334D01*
X193804215Y-118498500D01*
X196686551Y-118498500D01*
X196773259Y-118484765D01*
X196865409Y-118470171D01*
X197037639Y-118414211D01*
X197198994Y-118331996D01*
X197345501Y-118225553D01*
X197473553Y-118097501D01*
X197579996Y-117950994D01*
X197662211Y-117789639D01*
X197718171Y-117617409D01*
X197736499Y-117501690D01*
X197746500Y-117438551D01*
X197746500Y-112821915D01*
X197754750Y-112793815D01*
X197760303Y-112765059D01*
X197765139Y-112758438D01*
X197766185Y-112754876D01*
X197780785Y-112736316D01*
X197781783Y-112735269D01*
X197882672Y-112634381D01*
X197901682Y-112609605D01*
X197906285Y-112604782D01*
X197931002Y-112590522D01*
X197954050Y-112573693D01*
X197960879Y-112573285D01*
X197966806Y-112569867D01*
X197995308Y-112571233D01*
X198023796Y-112569536D01*
X198029761Y-112572886D01*
X198036595Y-112573214D01*
X198059836Y-112589775D01*
X198084717Y-112603748D01*
X198087923Y-112609790D01*
X198093496Y-112613761D01*
X198104092Y-112640255D01*
X198117471Y-112665464D01*
X198118592Y-112676510D01*
X198119442Y-112678635D01*
X198119026Y-112680787D01*
X198120000Y-112690381D01*
X198120000Y-147196000D01*
X198100315Y-147263039D01*
X198047511Y-147308794D01*
X197996000Y-147320000D01*
X189083666Y-147320000D01*
X189016627Y-147300315D01*
X188970872Y-147247511D01*
X188960928Y-147178353D01*
X188966624Y-147155045D01*
X189017568Y-147009454D01*
X189017569Y-147009449D01*
X189032699Y-146875160D01*
X189032700Y-146875156D01*
X189032700Y-144970843D01*
X189032699Y-144970839D01*
X189017569Y-144836550D01*
X189017568Y-144836545D01*
X188991948Y-144763328D01*
X188957989Y-144666278D01*
X188862016Y-144513538D01*
X188734462Y-144385984D01*
X188664941Y-144342301D01*
X188581723Y-144290011D01*
X188411454Y-144230431D01*
X188411449Y-144230430D01*
X188277160Y-144215300D01*
X188277154Y-144215300D01*
X186372846Y-144215300D01*
X186372839Y-144215300D01*
X186238550Y-144230430D01*
X186238545Y-144230431D01*
X186068276Y-144290011D01*
X185915537Y-144385984D01*
X185787984Y-144513537D01*
X185692011Y-144666276D01*
X185666406Y-144739454D01*
X185625684Y-144796230D01*
X185560732Y-144821978D01*
X185549364Y-144822500D01*
X185134916Y-144822500D01*
X185067877Y-144802815D01*
X185047235Y-144786181D01*
X185024386Y-144763332D01*
X185024379Y-144763326D01*
X184846791Y-144627059D01*
X184846789Y-144627057D01*
X184846783Y-144627053D01*
X184846778Y-144627050D01*
X184846775Y-144627048D01*
X184652924Y-144515127D01*
X184652913Y-144515122D01*
X184446104Y-144429459D01*
X184337985Y-144400488D01*
X184229871Y-144371519D01*
X184229870Y-144371518D01*
X184229867Y-144371518D01*
X184007939Y-144342301D01*
X184007934Y-144342300D01*
X184007929Y-144342300D01*
X183784071Y-144342300D01*
X183784065Y-144342300D01*
X183784060Y-144342301D01*
X183562132Y-144371518D01*
X183345895Y-144429459D01*
X183139086Y-144515122D01*
X183139075Y-144515127D01*
X182945224Y-144627048D01*
X182945208Y-144627059D01*
X182767620Y-144763326D01*
X182767613Y-144763332D01*
X182609332Y-144921613D01*
X182609326Y-144921620D01*
X182473059Y-145099208D01*
X182473048Y-145099224D01*
X182361127Y-145293075D01*
X182361122Y-145293086D01*
X182275459Y-145499895D01*
X182217518Y-145716132D01*
X182188301Y-145938060D01*
X182188300Y-145938077D01*
X182188300Y-146161922D01*
X182188301Y-146161939D01*
X182217518Y-146383867D01*
X182275459Y-146600104D01*
X182361122Y-146806913D01*
X182361127Y-146806924D01*
X182473048Y-147000775D01*
X182473059Y-147000791D01*
X182564925Y-147120514D01*
X182590119Y-147185683D01*
X182576080Y-147254128D01*
X182527266Y-147304118D01*
X182466549Y-147320000D01*
X133728000Y-147320000D01*
X133660961Y-147300315D01*
X133615206Y-147247511D01*
X133604000Y-147196000D01*
X133604000Y-144149000D01*
X140219855Y-144149000D01*
X141229722Y-144149000D01*
X141185667Y-144225306D01*
X141155000Y-144339756D01*
X141155000Y-144458244D01*
X141185667Y-144572694D01*
X141229722Y-144649000D01*
X140219855Y-144649000D01*
X140232449Y-144728516D01*
X140300898Y-144939179D01*
X140401457Y-145136536D01*
X140531642Y-145315722D01*
X140531646Y-145315727D01*
X140688272Y-145472353D01*
X140688277Y-145472357D01*
X140867463Y-145602542D01*
X141064818Y-145703101D01*
X141275479Y-145771549D01*
X141354999Y-145784144D01*
X141355000Y-145784144D01*
X141355000Y-144774277D01*
X141431306Y-144818333D01*
X141545756Y-144849000D01*
X141664244Y-144849000D01*
X141778694Y-144818333D01*
X141855000Y-144774277D01*
X141855000Y-145784144D01*
X141934520Y-145771549D01*
X142145181Y-145703101D01*
X142342536Y-145602542D01*
X142521722Y-145472357D01*
X142521727Y-145472353D01*
X142678353Y-145315727D01*
X142678357Y-145315722D01*
X142808542Y-145136536D01*
X142909101Y-144939179D01*
X142977550Y-144728516D01*
X142990145Y-144649000D01*
X141980278Y-144649000D01*
X142024333Y-144572694D01*
X142055000Y-144458244D01*
X142055000Y-144339756D01*
X142024333Y-144225306D01*
X141980278Y-144149000D01*
X142990145Y-144149000D01*
X142977550Y-144069483D01*
X142909101Y-143858820D01*
X142808542Y-143661463D01*
X142678357Y-143482277D01*
X142678353Y-143482272D01*
X142521727Y-143325646D01*
X142521722Y-143325642D01*
X142342536Y-143195457D01*
X142145179Y-143094898D01*
X141934516Y-143026449D01*
X141855000Y-143013854D01*
X141855000Y-144023722D01*
X141778694Y-143979667D01*
X141664244Y-143949000D01*
X141545756Y-143949000D01*
X141431306Y-143979667D01*
X141355000Y-144023722D01*
X141355000Y-143013854D01*
X141275483Y-143026449D01*
X141064820Y-143094898D01*
X140867463Y-143195457D01*
X140688277Y-143325642D01*
X140688272Y-143325646D01*
X140531646Y-143482272D01*
X140531642Y-143482277D01*
X140401457Y-143661463D01*
X140300898Y-143858820D01*
X140232449Y-144069483D01*
X140219855Y-144149000D01*
X133604000Y-144149000D01*
X133604000Y-138815000D01*
X136155855Y-138815000D01*
X137165722Y-138815000D01*
X137121667Y-138891306D01*
X137091000Y-139005756D01*
X137091000Y-139124244D01*
X137121667Y-139238694D01*
X137165722Y-139315000D01*
X136155855Y-139315000D01*
X136168449Y-139394516D01*
X136236898Y-139605179D01*
X136337457Y-139802536D01*
X136467642Y-139981722D01*
X136467646Y-139981727D01*
X136624272Y-140138353D01*
X136624277Y-140138357D01*
X136803463Y-140268542D01*
X137000818Y-140369101D01*
X137211479Y-140437549D01*
X137290999Y-140450144D01*
X137291000Y-140450144D01*
X137291000Y-139440277D01*
X137367306Y-139484333D01*
X137481756Y-139515000D01*
X137600244Y-139515000D01*
X137714694Y-139484333D01*
X137791000Y-139440277D01*
X137791000Y-140450144D01*
X137870520Y-140437549D01*
X138081181Y-140369101D01*
X138278536Y-140268542D01*
X138457722Y-140138357D01*
X138457727Y-140138353D01*
X138614353Y-139981727D01*
X138614357Y-139981722D01*
X138744542Y-139802536D01*
X138845101Y-139605179D01*
X138913550Y-139394516D01*
X138926145Y-139315000D01*
X137916278Y-139315000D01*
X137960333Y-139238694D01*
X137991000Y-139124244D01*
X137991000Y-139005756D01*
X137960333Y-138891306D01*
X137916278Y-138815000D01*
X138926145Y-138815000D01*
X138913550Y-138735483D01*
X138845101Y-138524820D01*
X138744542Y-138327463D01*
X138614357Y-138148277D01*
X138614353Y-138148272D01*
X138457727Y-137991646D01*
X138457722Y-137991642D01*
X138278536Y-137861457D01*
X138081179Y-137760898D01*
X137870516Y-137692449D01*
X137791000Y-137679854D01*
X137791000Y-138689722D01*
X137714694Y-138645667D01*
X137600244Y-138615000D01*
X137481756Y-138615000D01*
X137367306Y-138645667D01*
X137291000Y-138689722D01*
X137291000Y-137679854D01*
X137211483Y-137692449D01*
X137000820Y-137760898D01*
X136803463Y-137861457D01*
X136624277Y-137991642D01*
X136624272Y-137991646D01*
X136467646Y-138148272D01*
X136467642Y-138148277D01*
X136337457Y-138327463D01*
X136236898Y-138524820D01*
X136168449Y-138735483D01*
X136155855Y-138815000D01*
X133604000Y-138815000D01*
X133604000Y-131333077D01*
X135833300Y-131333077D01*
X135833300Y-131556922D01*
X135833301Y-131556939D01*
X135862518Y-131778867D01*
X135920459Y-131995104D01*
X136006122Y-132201913D01*
X136006127Y-132201924D01*
X136118048Y-132395775D01*
X136118059Y-132395791D01*
X136254326Y-132573379D01*
X136254332Y-132573386D01*
X136412613Y-132731667D01*
X136412619Y-132731672D01*
X136590217Y-132867947D01*
X136590224Y-132867951D01*
X136784075Y-132979872D01*
X136784080Y-132979874D01*
X136784083Y-132979876D01*
X136944048Y-133046135D01*
X136962781Y-133053895D01*
X136990900Y-133065542D01*
X137207129Y-133123481D01*
X137429071Y-133152700D01*
X137429078Y-133152700D01*
X137652922Y-133152700D01*
X137652929Y-133152700D01*
X137874871Y-133123481D01*
X138091100Y-133065542D01*
X138297917Y-132979876D01*
X138491783Y-132867947D01*
X138669381Y-132731672D01*
X138719233Y-132681820D01*
X138780556Y-132648334D01*
X138806915Y-132645500D01*
X139032486Y-132645500D01*
X139219118Y-132615940D01*
X139243306Y-132608081D01*
X139279051Y-132596466D01*
X139398832Y-132557547D01*
X139567199Y-132471760D01*
X139720074Y-132360690D01*
X140573645Y-131507119D01*
X140634968Y-131473634D01*
X140661326Y-131470800D01*
X140698904Y-131470800D01*
X140742488Y-131465062D01*
X140916829Y-131442110D01*
X141129146Y-131385219D01*
X141332221Y-131301103D01*
X141522579Y-131191200D01*
X141696963Y-131057390D01*
X141852390Y-130901963D01*
X141986200Y-130727579D01*
X142096103Y-130537221D01*
X142180219Y-130334146D01*
X142237110Y-130121829D01*
X142265800Y-129903903D01*
X142265800Y-129684097D01*
X142237110Y-129466171D01*
X142180219Y-129253854D01*
X142096103Y-129050779D01*
X142083592Y-129029110D01*
X141986200Y-128860421D01*
X141852391Y-128686038D01*
X141852385Y-128686031D01*
X141825819Y-128659465D01*
X141811115Y-128632537D01*
X141794523Y-128606719D01*
X141793631Y-128600518D01*
X141792334Y-128598142D01*
X141789500Y-128571784D01*
X141789500Y-128456236D01*
X141803015Y-128399941D01*
X141828547Y-128349832D01*
X141873495Y-128211495D01*
X141912931Y-128153822D01*
X141950470Y-128132774D01*
X141972722Y-128124989D01*
X142125462Y-128029016D01*
X142253016Y-127901462D01*
X142348989Y-127748722D01*
X142408568Y-127578455D01*
X142423700Y-127444154D01*
X142423700Y-125539846D01*
X142412169Y-125437501D01*
X142408569Y-125405550D01*
X142408568Y-125405545D01*
X142361374Y-125270672D01*
X142348989Y-125235278D01*
X142330012Y-125205077D01*
X142271770Y-125112385D01*
X142253016Y-125082538D01*
X142125462Y-124954984D01*
X142093325Y-124934791D01*
X141972723Y-124859011D01*
X141802454Y-124799431D01*
X141802449Y-124799430D01*
X141668160Y-124784300D01*
X141668154Y-124784300D01*
X139763846Y-124784300D01*
X139763839Y-124784300D01*
X139629550Y-124799430D01*
X139629545Y-124799431D01*
X139459276Y-124859011D01*
X139306537Y-124954984D01*
X139178984Y-125082537D01*
X139083011Y-125235276D01*
X139023431Y-125405545D01*
X139023430Y-125405550D01*
X139008300Y-125539839D01*
X139008300Y-127444160D01*
X139023430Y-127578449D01*
X139023431Y-127578454D01*
X139083011Y-127748723D01*
X139158580Y-127868989D01*
X139178984Y-127901462D01*
X139306538Y-128029016D01*
X139324444Y-128040267D01*
X139330471Y-128044054D01*
X139376763Y-128096388D01*
X139388500Y-128149048D01*
X139388500Y-128571784D01*
X139368815Y-128638823D01*
X139352181Y-128659465D01*
X139325614Y-128686031D01*
X139325608Y-128686038D01*
X139191799Y-128860421D01*
X139081898Y-129050775D01*
X139081894Y-129050785D01*
X138997782Y-129253849D01*
X138940889Y-129466174D01*
X138912200Y-129684096D01*
X138912200Y-129721674D01*
X138892515Y-129788713D01*
X138875881Y-129809355D01*
X138665660Y-130019575D01*
X138604337Y-130053060D01*
X138534645Y-130048076D01*
X138502496Y-130030273D01*
X138491787Y-130022056D01*
X138491786Y-130022055D01*
X138491783Y-130022053D01*
X138297917Y-129910124D01*
X138297913Y-129910122D01*
X138091104Y-129824459D01*
X137899696Y-129773171D01*
X137874871Y-129766519D01*
X137874870Y-129766518D01*
X137874867Y-129766518D01*
X137652939Y-129737301D01*
X137652934Y-129737300D01*
X137652929Y-129737300D01*
X137429071Y-129737300D01*
X137429065Y-129737300D01*
X137429060Y-129737301D01*
X137207132Y-129766518D01*
X136990895Y-129824459D01*
X136784086Y-129910122D01*
X136784075Y-129910127D01*
X136590224Y-130022048D01*
X136590208Y-130022059D01*
X136412620Y-130158326D01*
X136412613Y-130158332D01*
X136254332Y-130316613D01*
X136254326Y-130316620D01*
X136118059Y-130494208D01*
X136118048Y-130494224D01*
X136006127Y-130688075D01*
X136006122Y-130688086D01*
X135920459Y-130894895D01*
X135862518Y-131111132D01*
X135833301Y-131333060D01*
X135833300Y-131333077D01*
X133604000Y-131333077D01*
X133604000Y-107678974D01*
X135470500Y-107678974D01*
X135470500Y-107967025D01*
X135470501Y-107967041D01*
X135508098Y-108252620D01*
X135508099Y-108252625D01*
X135508100Y-108252631D01*
X135582656Y-108530878D01*
X135582659Y-108530888D01*
X135692891Y-108797011D01*
X135692896Y-108797022D01*
X135836920Y-109046477D01*
X135836931Y-109046493D01*
X136012285Y-109275019D01*
X136012291Y-109275026D01*
X136215973Y-109478708D01*
X136215980Y-109478714D01*
X136418986Y-109634486D01*
X136460189Y-109690914D01*
X136467500Y-109732862D01*
X136467500Y-110944403D01*
X136447815Y-111011442D01*
X136431181Y-111032084D01*
X135662506Y-111800758D01*
X135662497Y-111800768D01*
X135614015Y-111858183D01*
X135614014Y-111858184D01*
X135526754Y-112016069D01*
X135476818Y-112189403D01*
X135476816Y-112189413D01*
X135470500Y-112264281D01*
X135470500Y-113541713D01*
X135476816Y-113616590D01*
X135476817Y-113616593D01*
X135526756Y-113789932D01*
X135565048Y-113859217D01*
X135614013Y-113947814D01*
X135662498Y-114005231D01*
X135662506Y-114005240D01*
X136565765Y-114908500D01*
X136577138Y-114918103D01*
X136623183Y-114956984D01*
X136623184Y-114956985D01*
X136623185Y-114956986D01*
X136623187Y-114956987D01*
X136781068Y-115044245D01*
X136954407Y-115094183D01*
X136998693Y-115097918D01*
X137029281Y-115100499D01*
X137029297Y-115100500D01*
X138306697Y-115100500D01*
X138306698Y-115100500D01*
X138306700Y-115100499D01*
X138306713Y-115100499D01*
X138345028Y-115097267D01*
X138381593Y-115094183D01*
X138554932Y-115044244D01*
X138712813Y-114956987D01*
X138770240Y-114908494D01*
X139673500Y-114005235D01*
X139721987Y-113947813D01*
X139809245Y-113789932D01*
X139859183Y-113616593D01*
X139865500Y-113541703D01*
X139865500Y-112264302D01*
X139865498Y-112264281D01*
X139859245Y-112190147D01*
X139859183Y-112189407D01*
X139809244Y-112016068D01*
X139721987Y-111858187D01*
X139721986Y-111858185D01*
X139673500Y-111800767D01*
X139673499Y-111800765D01*
X139673494Y-111800760D01*
X139294118Y-111421384D01*
X138904819Y-111032084D01*
X138871334Y-110970761D01*
X138868500Y-110944403D01*
X138868500Y-109782500D01*
X138888185Y-109715461D01*
X138940989Y-109669706D01*
X138992500Y-109658500D01*
X154145486Y-109658500D01*
X154332118Y-109628940D01*
X154371758Y-109616060D01*
X154511832Y-109570547D01*
X154680199Y-109484760D01*
X154833074Y-109373690D01*
X155755690Y-108451073D01*
X155866760Y-108298199D01*
X155952547Y-108129832D01*
X156010940Y-107950118D01*
X156012394Y-107940937D01*
X156040500Y-107763486D01*
X156040500Y-106684204D01*
X156060185Y-106617165D01*
X156112989Y-106571410D01*
X156182147Y-106561466D01*
X156245703Y-106590491D01*
X156252181Y-106596523D01*
X156300082Y-106644424D01*
X156300087Y-106644428D01*
X156396563Y-106714521D01*
X156511176Y-106797792D01*
X156743664Y-106916251D01*
X156991821Y-106996882D01*
X157094539Y-107013150D01*
X157249531Y-107037700D01*
X157249536Y-107037700D01*
X157510469Y-107037700D01*
X157635404Y-107017911D01*
X157768179Y-106996882D01*
X157768182Y-106996881D01*
X157768183Y-106996881D01*
X157816557Y-106981163D01*
X158016336Y-106916251D01*
X158248824Y-106797792D01*
X158459919Y-106644423D01*
X158644423Y-106459919D01*
X158742610Y-106324774D01*
X158797939Y-106282110D01*
X158867553Y-106276131D01*
X158929348Y-106308736D01*
X158930609Y-106309980D01*
X159035840Y-106415211D01*
X159208671Y-106540781D01*
X159399015Y-106637767D01*
X159399018Y-106637768D01*
X159602185Y-106703780D01*
X159670000Y-106714521D01*
X159670000Y-105695686D01*
X159674394Y-105700080D01*
X159765606Y-105752741D01*
X159867339Y-105780000D01*
X159972661Y-105780000D01*
X160074394Y-105752741D01*
X160165606Y-105700080D01*
X160170000Y-105695686D01*
X160170000Y-106714520D01*
X160237812Y-106703780D01*
X160237815Y-106703780D01*
X160440981Y-106637768D01*
X160440984Y-106637767D01*
X160631328Y-106540781D01*
X160804158Y-106415211D01*
X160804159Y-106415211D01*
X160955211Y-106264159D01*
X160955211Y-106264158D01*
X161080786Y-106091321D01*
X161083327Y-106087176D01*
X161084885Y-106088130D01*
X161127482Y-106043023D01*
X161195302Y-106026222D01*
X161261438Y-106048755D01*
X161295403Y-106087953D01*
X161296673Y-106087176D01*
X161299213Y-106091321D01*
X161424788Y-106264158D01*
X161424788Y-106264159D01*
X161575840Y-106415211D01*
X161638619Y-106460823D01*
X161681284Y-106516153D01*
X161687263Y-106585767D01*
X161654657Y-106647561D01*
X161653417Y-106648819D01*
X161642314Y-106659922D01*
X161642312Y-106659925D01*
X161642310Y-106659927D01*
X161618646Y-106692498D01*
X161531240Y-106812800D01*
X161445454Y-106981163D01*
X161387059Y-107160881D01*
X161357500Y-107347513D01*
X161357500Y-107349185D01*
X161355973Y-107368584D01*
X161349500Y-107409449D01*
X161349500Y-111714796D01*
X161340855Y-111744236D01*
X161334332Y-111774223D01*
X161330577Y-111779238D01*
X161329815Y-111781835D01*
X161313181Y-111802477D01*
X161277681Y-111837977D01*
X161216358Y-111871462D01*
X161146666Y-111866478D01*
X161102319Y-111837977D01*
X160999917Y-111735575D01*
X160999912Y-111735571D01*
X160788827Y-111582210D01*
X160788826Y-111582209D01*
X160788824Y-111582208D01*
X160556336Y-111463749D01*
X160425950Y-111421384D01*
X160308181Y-111383118D01*
X160050469Y-111342300D01*
X160050464Y-111342300D01*
X159789536Y-111342300D01*
X159789531Y-111342300D01*
X159531819Y-111383118D01*
X159531816Y-111383118D01*
X159283661Y-111463750D01*
X159051172Y-111582210D01*
X158840087Y-111735571D01*
X158840082Y-111735575D01*
X158737681Y-111837977D01*
X158676358Y-111871462D01*
X158606666Y-111866478D01*
X158562319Y-111837977D01*
X158459917Y-111735575D01*
X158459912Y-111735571D01*
X158248827Y-111582210D01*
X158248826Y-111582209D01*
X158248824Y-111582208D01*
X158016336Y-111463749D01*
X157885950Y-111421384D01*
X157768181Y-111383118D01*
X157510469Y-111342300D01*
X157510464Y-111342300D01*
X157249536Y-111342300D01*
X157249531Y-111342300D01*
X156991819Y-111383118D01*
X156991816Y-111383118D01*
X156743661Y-111463750D01*
X156511172Y-111582210D01*
X156300087Y-111735571D01*
X156300082Y-111735575D01*
X156197681Y-111837977D01*
X156136358Y-111871462D01*
X156066666Y-111866478D01*
X156022319Y-111837977D01*
X155919917Y-111735575D01*
X155919912Y-111735571D01*
X155708827Y-111582210D01*
X155708826Y-111582209D01*
X155708824Y-111582208D01*
X155476336Y-111463749D01*
X155345950Y-111421384D01*
X155228181Y-111383118D01*
X154970469Y-111342300D01*
X154970464Y-111342300D01*
X154709536Y-111342300D01*
X154709531Y-111342300D01*
X154451819Y-111383118D01*
X154451816Y-111383118D01*
X154203661Y-111463750D01*
X153971172Y-111582210D01*
X153760087Y-111735571D01*
X153760082Y-111735575D01*
X153657681Y-111837977D01*
X153596358Y-111871462D01*
X153526666Y-111866478D01*
X153482319Y-111837977D01*
X153379917Y-111735575D01*
X153379912Y-111735571D01*
X153168827Y-111582210D01*
X153168826Y-111582209D01*
X153168824Y-111582208D01*
X152936336Y-111463749D01*
X152805950Y-111421384D01*
X152688181Y-111383118D01*
X152430469Y-111342300D01*
X152430464Y-111342300D01*
X152169536Y-111342300D01*
X152169531Y-111342300D01*
X151911819Y-111383118D01*
X151911816Y-111383118D01*
X151663661Y-111463750D01*
X151431172Y-111582210D01*
X151220087Y-111735571D01*
X151220082Y-111735575D01*
X151117681Y-111837977D01*
X151056358Y-111871462D01*
X150986666Y-111866478D01*
X150942319Y-111837977D01*
X150839917Y-111735575D01*
X150839912Y-111735571D01*
X150628827Y-111582210D01*
X150628826Y-111582209D01*
X150628824Y-111582208D01*
X150396336Y-111463749D01*
X150265950Y-111421384D01*
X150148181Y-111383118D01*
X149890469Y-111342300D01*
X149890464Y-111342300D01*
X149629536Y-111342300D01*
X149629531Y-111342300D01*
X149371819Y-111383118D01*
X149371816Y-111383118D01*
X149123661Y-111463750D01*
X148891172Y-111582210D01*
X148680087Y-111735571D01*
X148680082Y-111735575D01*
X148552477Y-111863181D01*
X148491154Y-111896666D01*
X148464796Y-111899500D01*
X147076389Y-111899500D01*
X147036728Y-111905781D01*
X146905302Y-111926597D01*
X146740552Y-111980128D01*
X146586211Y-112058768D01*
X146506256Y-112116859D01*
X146446072Y-112160586D01*
X146446070Y-112160588D01*
X146446069Y-112160588D01*
X146323588Y-112283069D01*
X146323588Y-112283070D01*
X146323586Y-112283072D01*
X146309085Y-112303031D01*
X146221768Y-112423211D01*
X146143128Y-112577552D01*
X146089597Y-112742302D01*
X146062500Y-112913389D01*
X146062500Y-113086610D01*
X146090360Y-113262513D01*
X146089910Y-113262584D01*
X146092500Y-113284464D01*
X146092500Y-114755784D01*
X146072815Y-114822823D01*
X146056181Y-114843465D01*
X145929614Y-114970031D01*
X145929608Y-114970038D01*
X145795799Y-115144421D01*
X145685898Y-115334775D01*
X145685894Y-115334785D01*
X145601782Y-115537849D01*
X145544889Y-115750174D01*
X145516200Y-115968096D01*
X145516200Y-116187903D01*
X145544889Y-116405825D01*
X145601782Y-116618150D01*
X145685894Y-116821214D01*
X145685898Y-116821224D01*
X145795799Y-117011578D01*
X145929608Y-117185961D01*
X145929614Y-117185968D01*
X146085031Y-117341385D01*
X146085038Y-117341391D01*
X146259421Y-117475200D01*
X146449775Y-117585101D01*
X146449776Y-117585101D01*
X146449779Y-117585103D01*
X146617126Y-117654420D01*
X146650782Y-117668361D01*
X146652854Y-117669219D01*
X146865171Y-117726110D01*
X147028615Y-117747627D01*
X147083096Y-117754800D01*
X147083097Y-117754800D01*
X147302904Y-117754800D01*
X147346488Y-117749062D01*
X147520829Y-117726110D01*
X147733146Y-117669219D01*
X147936221Y-117585103D01*
X148126579Y-117475200D01*
X148300963Y-117341390D01*
X148456390Y-117185963D01*
X148590200Y-117011579D01*
X148700103Y-116821221D01*
X148784219Y-116618146D01*
X148841110Y-116405829D01*
X148869800Y-116187903D01*
X148869800Y-115968097D01*
X148869743Y-115967667D01*
X148850449Y-115821110D01*
X148841110Y-115750171D01*
X148784219Y-115537854D01*
X148700103Y-115334779D01*
X148693077Y-115322610D01*
X148590200Y-115144421D01*
X148456391Y-114970038D01*
X148456385Y-114970031D01*
X148329819Y-114843465D01*
X148296334Y-114782142D01*
X148293500Y-114755784D01*
X148293500Y-114224500D01*
X148296050Y-114215814D01*
X148294762Y-114206853D01*
X148305740Y-114182812D01*
X148313185Y-114157461D01*
X148320025Y-114151533D01*
X148323787Y-114143297D01*
X148346021Y-114129007D01*
X148365989Y-114111706D01*
X148376503Y-114109418D01*
X148382565Y-114105523D01*
X148417500Y-114100500D01*
X148464796Y-114100500D01*
X148531835Y-114120185D01*
X148552477Y-114136819D01*
X148680082Y-114264424D01*
X148680087Y-114264428D01*
X148859800Y-114394996D01*
X148891176Y-114417792D01*
X149123664Y-114536251D01*
X149371821Y-114616882D01*
X149474539Y-114633150D01*
X149629531Y-114657700D01*
X149629536Y-114657700D01*
X149890469Y-114657700D01*
X150015404Y-114637911D01*
X150148179Y-114616882D01*
X150148182Y-114616881D01*
X150148183Y-114616881D01*
X150206849Y-114597819D01*
X150396336Y-114536251D01*
X150628824Y-114417792D01*
X150839919Y-114264423D01*
X150942319Y-114162023D01*
X150950264Y-114157684D01*
X150955690Y-114150437D01*
X150980449Y-114141202D01*
X151003642Y-114128538D01*
X151012671Y-114129183D01*
X151021154Y-114126020D01*
X151046974Y-114131636D01*
X151073334Y-114133522D01*
X151082387Y-114139340D01*
X151089427Y-114140872D01*
X151117681Y-114162023D01*
X151136181Y-114180523D01*
X151169666Y-114241846D01*
X151172500Y-114268204D01*
X151172500Y-114755784D01*
X151152815Y-114822823D01*
X151136181Y-114843465D01*
X151009614Y-114970031D01*
X151009608Y-114970038D01*
X150875799Y-115144421D01*
X150765898Y-115334775D01*
X150765894Y-115334785D01*
X150681782Y-115537849D01*
X150624889Y-115750174D01*
X150596200Y-115968096D01*
X150596200Y-116187903D01*
X150624889Y-116405825D01*
X150681782Y-116618150D01*
X150765894Y-116821214D01*
X150765898Y-116821224D01*
X150875799Y-117011578D01*
X151009608Y-117185961D01*
X151009614Y-117185968D01*
X151165031Y-117341385D01*
X151165038Y-117341391D01*
X151339421Y-117475200D01*
X151529775Y-117585101D01*
X151529776Y-117585101D01*
X151529779Y-117585103D01*
X151697126Y-117654420D01*
X151730782Y-117668361D01*
X151732854Y-117669219D01*
X151945171Y-117726110D01*
X152108615Y-117747627D01*
X152163096Y-117754800D01*
X152163097Y-117754800D01*
X152382904Y-117754800D01*
X152426488Y-117749062D01*
X152600829Y-117726110D01*
X152813146Y-117669219D01*
X153016221Y-117585103D01*
X153206579Y-117475200D01*
X153380963Y-117341390D01*
X153536390Y-117185963D01*
X153623253Y-117072761D01*
X153679680Y-117031559D01*
X153749426Y-117027404D01*
X153810346Y-117061616D01*
X153843099Y-117123333D01*
X153839559Y-117186565D01*
X153829061Y-117218873D01*
X153829060Y-117218880D01*
X153799500Y-117405513D01*
X153799500Y-118777784D01*
X153779815Y-118844823D01*
X153763181Y-118865465D01*
X153736614Y-118892031D01*
X153736608Y-118892038D01*
X153602799Y-119066421D01*
X153492898Y-119256775D01*
X153492894Y-119256785D01*
X153408782Y-119459849D01*
X153351889Y-119672174D01*
X153323200Y-119890096D01*
X153323200Y-120109903D01*
X153351889Y-120327825D01*
X153408782Y-120540150D01*
X153492894Y-120743214D01*
X153492898Y-120743224D01*
X153602799Y-120933578D01*
X153736607Y-121107960D01*
X153736609Y-121107962D01*
X153736610Y-121107963D01*
X153763181Y-121134534D01*
X153796666Y-121195855D01*
X153799500Y-121222215D01*
X153799500Y-122522486D01*
X153829059Y-122709118D01*
X153887454Y-122888836D01*
X153961024Y-123033224D01*
X153973240Y-123057199D01*
X154084310Y-123210074D01*
X154084312Y-123210076D01*
X156529404Y-125655168D01*
X156562889Y-125716491D01*
X156557905Y-125786183D01*
X156516033Y-125842116D01*
X156450569Y-125866533D01*
X156382296Y-125851681D01*
X156372833Y-125845952D01*
X156355634Y-125834460D01*
X156326598Y-125815059D01*
X156320229Y-125812421D01*
X156135420Y-125735870D01*
X156135412Y-125735868D01*
X155932469Y-125695500D01*
X155932465Y-125695500D01*
X154657633Y-125695500D01*
X154590594Y-125675815D01*
X154559256Y-125646985D01*
X154552389Y-125638035D01*
X154396968Y-125482614D01*
X154396961Y-125482608D01*
X154222578Y-125348799D01*
X154032224Y-125238898D01*
X154032214Y-125238894D01*
X153829150Y-125154782D01*
X153616825Y-125097889D01*
X153398904Y-125069200D01*
X153398903Y-125069200D01*
X153179097Y-125069200D01*
X153179096Y-125069200D01*
X152961174Y-125097889D01*
X152748849Y-125154782D01*
X152545785Y-125238894D01*
X152545775Y-125238898D01*
X152355421Y-125348799D01*
X152181038Y-125482608D01*
X152181031Y-125482614D01*
X152025614Y-125638031D01*
X152025608Y-125638038D01*
X151891799Y-125812421D01*
X151781898Y-126002775D01*
X151781894Y-126002785D01*
X151697782Y-126205849D01*
X151640889Y-126418174D01*
X151612200Y-126636096D01*
X151612200Y-126855903D01*
X151640889Y-127073825D01*
X151697782Y-127286150D01*
X151781894Y-127489214D01*
X151781898Y-127489224D01*
X151891799Y-127679578D01*
X152025608Y-127853961D01*
X152025614Y-127853968D01*
X152181031Y-128009385D01*
X152181038Y-128009391D01*
X152355421Y-128143200D01*
X152545775Y-128253101D01*
X152545776Y-128253101D01*
X152545779Y-128253103D01*
X152748854Y-128337219D01*
X152961171Y-128394110D01*
X153124615Y-128415627D01*
X153179096Y-128422800D01*
X153179097Y-128422800D01*
X153398904Y-128422800D01*
X153442488Y-128417062D01*
X153616829Y-128394110D01*
X153829146Y-128337219D01*
X154032221Y-128253103D01*
X154222579Y-128143200D01*
X154396963Y-128009390D01*
X154552390Y-127853963D01*
X154559256Y-127845014D01*
X154562335Y-127842766D01*
X154563920Y-127839297D01*
X154590333Y-127822322D01*
X154615683Y-127803812D01*
X154620421Y-127802986D01*
X154622698Y-127801523D01*
X154657633Y-127796500D01*
X154781500Y-127796500D01*
X154848539Y-127816185D01*
X154894294Y-127868989D01*
X154905500Y-127920500D01*
X154905500Y-128148756D01*
X154891987Y-128205047D01*
X154889787Y-128209363D01*
X154833829Y-128381589D01*
X154805500Y-128560448D01*
X154805500Y-128741551D01*
X154833829Y-128920410D01*
X154889787Y-129092636D01*
X154889788Y-129092639D01*
X154943315Y-129197690D01*
X154971930Y-129253849D01*
X154972006Y-129253997D01*
X155078441Y-129400494D01*
X155078445Y-129400499D01*
X155206500Y-129528554D01*
X155206505Y-129528558D01*
X155318749Y-129610107D01*
X155353006Y-129634996D01*
X155449370Y-129684096D01*
X155514360Y-129717211D01*
X155514363Y-129717212D01*
X155600476Y-129745191D01*
X155686591Y-129773171D01*
X155769429Y-129786291D01*
X155865449Y-129801500D01*
X156351647Y-129801500D01*
X156418686Y-129821185D01*
X156464441Y-129873989D01*
X156474385Y-129943147D01*
X156445360Y-130006703D01*
X156386582Y-130044477D01*
X156383775Y-130045265D01*
X156313334Y-130064140D01*
X156259895Y-130078459D01*
X156053086Y-130164122D01*
X156053075Y-130164127D01*
X155859224Y-130276048D01*
X155859208Y-130276059D01*
X155681620Y-130412326D01*
X155681613Y-130412332D01*
X155523332Y-130570613D01*
X155523326Y-130570620D01*
X155387059Y-130748208D01*
X155387048Y-130748224D01*
X155275127Y-130942075D01*
X155275122Y-130942086D01*
X155189459Y-131148895D01*
X155161277Y-131254069D01*
X155140108Y-131333077D01*
X155136265Y-131347418D01*
X155099900Y-131407078D01*
X155037053Y-131437607D01*
X154967677Y-131429312D01*
X154913799Y-131384827D01*
X154896715Y-131347418D01*
X154896098Y-131345114D01*
X154880219Y-131285854D01*
X154796103Y-131082779D01*
X154790264Y-131072666D01*
X154686200Y-130892421D01*
X154552391Y-130718038D01*
X154552385Y-130718031D01*
X154396968Y-130562614D01*
X154396961Y-130562608D01*
X154222578Y-130428799D01*
X154032224Y-130318898D01*
X154032214Y-130318894D01*
X153829150Y-130234782D01*
X153616825Y-130177889D01*
X153398904Y-130149200D01*
X153398903Y-130149200D01*
X153361326Y-130149200D01*
X153294287Y-130129515D01*
X153273645Y-130112881D01*
X153182076Y-130021312D01*
X153182074Y-130021310D01*
X153029199Y-129910240D01*
X153016762Y-129903903D01*
X152860836Y-129824454D01*
X152681118Y-129766059D01*
X152494486Y-129736500D01*
X152494481Y-129736500D01*
X150236915Y-129736500D01*
X150169876Y-129716815D01*
X150149233Y-129700180D01*
X150099385Y-129650331D01*
X150099379Y-129650326D01*
X149921791Y-129514059D01*
X149921789Y-129514057D01*
X149921783Y-129514053D01*
X149921778Y-129514050D01*
X149921775Y-129514048D01*
X149727924Y-129402127D01*
X149727913Y-129402122D01*
X149521104Y-129316459D01*
X149304867Y-129258518D01*
X149082939Y-129229301D01*
X149082934Y-129229300D01*
X149082929Y-129229300D01*
X148859071Y-129229300D01*
X148859065Y-129229300D01*
X148859060Y-129229301D01*
X148637132Y-129258518D01*
X148420895Y-129316459D01*
X148214086Y-129402122D01*
X148214075Y-129402127D01*
X148020224Y-129514048D01*
X148020208Y-129514059D01*
X147842620Y-129650326D01*
X147842613Y-129650332D01*
X147684332Y-129808613D01*
X147684326Y-129808620D01*
X147568176Y-129959991D01*
X147511748Y-130001194D01*
X147442002Y-130005349D01*
X147381082Y-129971137D01*
X147348329Y-129909420D01*
X147345800Y-129884505D01*
X147345800Y-129684096D01*
X147325323Y-129528558D01*
X147317110Y-129466171D01*
X147260219Y-129253854D01*
X147176103Y-129050779D01*
X147163592Y-129029110D01*
X147066200Y-128860421D01*
X146932391Y-128686038D01*
X146932385Y-128686031D01*
X146776968Y-128530614D01*
X146776961Y-128530608D01*
X146602578Y-128396799D01*
X146412224Y-128286898D01*
X146412214Y-128286894D01*
X146209150Y-128202782D01*
X146026431Y-128153822D01*
X145996829Y-128145890D01*
X145996828Y-128145889D01*
X145996825Y-128145889D01*
X145778904Y-128117200D01*
X145778903Y-128117200D01*
X145559097Y-128117200D01*
X145559096Y-128117200D01*
X145341174Y-128145889D01*
X145128849Y-128202782D01*
X144925785Y-128286894D01*
X144925775Y-128286898D01*
X144735421Y-128396799D01*
X144561038Y-128530608D01*
X144561031Y-128530614D01*
X144405614Y-128686031D01*
X144405608Y-128686038D01*
X144271799Y-128860421D01*
X144161898Y-129050775D01*
X144161894Y-129050785D01*
X144077782Y-129253849D01*
X144020889Y-129466174D01*
X143992200Y-129684096D01*
X143992200Y-129903903D01*
X144011836Y-130053060D01*
X144020890Y-130121829D01*
X144030670Y-130158328D01*
X144077782Y-130334150D01*
X144161894Y-130537214D01*
X144161898Y-130537224D01*
X144271799Y-130727578D01*
X144405607Y-130901960D01*
X144405608Y-130901961D01*
X144405610Y-130901963D01*
X144432181Y-130928534D01*
X144465666Y-130989855D01*
X144468500Y-131016215D01*
X144468500Y-131576084D01*
X144448815Y-131643123D01*
X144432181Y-131663765D01*
X144382332Y-131713613D01*
X144382326Y-131713620D01*
X144246059Y-131891208D01*
X144246048Y-131891224D01*
X144134127Y-132085075D01*
X144134122Y-132085086D01*
X144048459Y-132291895D01*
X143990518Y-132508132D01*
X143961301Y-132730060D01*
X143961300Y-132730077D01*
X143961300Y-132953922D01*
X143961301Y-132953939D01*
X143989593Y-133168842D01*
X143990519Y-133175871D01*
X144007019Y-133237449D01*
X144048459Y-133392104D01*
X144134122Y-133598913D01*
X144134127Y-133598924D01*
X144246048Y-133792775D01*
X144246059Y-133792791D01*
X144382326Y-133970379D01*
X144382332Y-133970386D01*
X144540613Y-134128667D01*
X144540620Y-134128673D01*
X144626305Y-134194421D01*
X144718217Y-134264947D01*
X144718224Y-134264951D01*
X144912075Y-134376872D01*
X144912080Y-134376874D01*
X144912083Y-134376876D01*
X145118900Y-134462542D01*
X145335129Y-134520481D01*
X145557071Y-134549700D01*
X145557078Y-134549700D01*
X145780922Y-134549700D01*
X145780929Y-134549700D01*
X146002871Y-134520481D01*
X146219100Y-134462542D01*
X146425917Y-134376876D01*
X146619783Y-134264947D01*
X146797381Y-134128672D01*
X146955672Y-133970381D01*
X147091947Y-133792783D01*
X147203876Y-133598917D01*
X147289542Y-133392100D01*
X147347481Y-133175871D01*
X147376700Y-132953929D01*
X147376700Y-132730071D01*
X147347481Y-132508129D01*
X147289542Y-132291900D01*
X147203876Y-132085083D01*
X147203874Y-132085080D01*
X147203872Y-132085075D01*
X147091951Y-131891224D01*
X147091947Y-131891217D01*
X146958861Y-131717775D01*
X146955673Y-131713620D01*
X146955667Y-131713613D01*
X146905819Y-131663765D01*
X146872334Y-131602442D01*
X146869500Y-131576084D01*
X146869500Y-131016215D01*
X146876375Y-130992800D01*
X146879031Y-130968540D01*
X146886988Y-130956655D01*
X146889185Y-130949176D01*
X146897100Y-130938222D01*
X146901205Y-130933147D01*
X146932390Y-130901963D01*
X147041889Y-130759261D01*
X147042900Y-130758012D01*
X147070371Y-130739016D01*
X147097352Y-130719316D01*
X147099005Y-130719217D01*
X147100369Y-130718275D01*
X147133762Y-130717146D01*
X147167098Y-130715161D01*
X147168542Y-130715971D01*
X147170199Y-130715916D01*
X147198907Y-130733024D01*
X147228018Y-130749373D01*
X147228794Y-130750836D01*
X147230219Y-130751685D01*
X147245117Y-130781593D01*
X147260771Y-130811090D01*
X147261016Y-130813512D01*
X147261372Y-130814225D01*
X147261225Y-130815565D01*
X147263300Y-130836005D01*
X147263300Y-131048922D01*
X147263301Y-131048939D01*
X147292518Y-131270867D01*
X147350459Y-131487104D01*
X147436122Y-131693913D01*
X147436127Y-131693924D01*
X147548048Y-131887775D01*
X147548059Y-131887791D01*
X147684326Y-132065379D01*
X147684332Y-132065386D01*
X147842613Y-132223667D01*
X147842620Y-132223673D01*
X147875763Y-132249104D01*
X148020217Y-132359947D01*
X148020224Y-132359951D01*
X148214075Y-132471872D01*
X148214080Y-132471874D01*
X148214083Y-132471876D01*
X148420900Y-132557542D01*
X148637129Y-132615481D01*
X148859071Y-132644700D01*
X148859078Y-132644700D01*
X149082922Y-132644700D01*
X149082929Y-132644700D01*
X149304871Y-132615481D01*
X149521100Y-132557542D01*
X149727917Y-132471876D01*
X149921783Y-132359947D01*
X150099381Y-132223672D01*
X150149233Y-132173820D01*
X150210556Y-132140334D01*
X150236915Y-132137500D01*
X151541367Y-132137500D01*
X151608406Y-132157185D01*
X151654161Y-132209989D01*
X151661138Y-132229396D01*
X151677887Y-132291900D01*
X151697782Y-132366150D01*
X151781894Y-132569214D01*
X151781898Y-132569224D01*
X151891799Y-132759578D01*
X152025608Y-132933961D01*
X152025614Y-132933968D01*
X152181031Y-133089385D01*
X152181038Y-133089391D01*
X152355421Y-133223200D01*
X152545775Y-133333101D01*
X152545790Y-133333108D01*
X152722952Y-133406490D01*
X152777356Y-133450330D01*
X152799421Y-133516624D01*
X152799500Y-133521051D01*
X152799500Y-133905784D01*
X152779815Y-133972823D01*
X152763181Y-133993465D01*
X152736614Y-134020031D01*
X152736608Y-134020038D01*
X152602799Y-134194421D01*
X152492898Y-134384775D01*
X152492894Y-134384785D01*
X152408782Y-134587849D01*
X152351889Y-134800174D01*
X152323200Y-135018096D01*
X152323200Y-135237903D01*
X152351889Y-135455825D01*
X152408782Y-135668150D01*
X152492894Y-135871214D01*
X152492898Y-135871224D01*
X152602799Y-136061578D01*
X152736607Y-136235960D01*
X152736609Y-136235962D01*
X152736610Y-136235963D01*
X152810966Y-136310319D01*
X152815303Y-136318262D01*
X152822550Y-136323687D01*
X152831784Y-136348445D01*
X152844450Y-136371640D01*
X152843804Y-136380669D01*
X152846968Y-136389152D01*
X152841350Y-136414974D01*
X152839466Y-136441332D01*
X152833648Y-136450384D01*
X152832117Y-136457425D01*
X152810966Y-136485679D01*
X152765466Y-136531180D01*
X152704143Y-136564666D01*
X152677784Y-136567500D01*
X149946611Y-136567500D01*
X149773389Y-136567500D01*
X149733728Y-136573781D01*
X149602302Y-136594597D01*
X149437552Y-136648128D01*
X149283211Y-136726768D01*
X149218374Y-136773876D01*
X149147156Y-136825618D01*
X149081352Y-136849098D01*
X149074272Y-136849300D01*
X148859071Y-136849300D01*
X148859065Y-136849300D01*
X148859060Y-136849301D01*
X148637132Y-136878518D01*
X148420895Y-136936459D01*
X148214086Y-137022122D01*
X148214075Y-137022127D01*
X148020224Y-137134048D01*
X148020208Y-137134059D01*
X147842620Y-137270326D01*
X147842613Y-137270332D01*
X147692765Y-137420181D01*
X147631442Y-137453666D01*
X147605084Y-137456500D01*
X147487389Y-137456500D01*
X147447728Y-137462781D01*
X147316302Y-137483597D01*
X147151552Y-137537128D01*
X146997211Y-137615768D01*
X146934245Y-137661516D01*
X146857072Y-137717586D01*
X146857070Y-137717588D01*
X146857069Y-137717588D01*
X145856676Y-138717981D01*
X145795353Y-138751466D01*
X145768995Y-138754300D01*
X145557071Y-138754300D01*
X145557065Y-138754300D01*
X145557060Y-138754301D01*
X145335132Y-138783518D01*
X145118895Y-138841459D01*
X144912086Y-138927122D01*
X144912075Y-138927127D01*
X144718224Y-139039048D01*
X144718208Y-139039059D01*
X144540620Y-139175326D01*
X144540613Y-139175332D01*
X144382332Y-139333613D01*
X144382326Y-139333620D01*
X144246059Y-139511208D01*
X144246048Y-139511224D01*
X144134127Y-139705075D01*
X144134122Y-139705086D01*
X144048459Y-139911895D01*
X143990518Y-140128132D01*
X143961301Y-140350060D01*
X143961300Y-140350077D01*
X143961300Y-140573922D01*
X143961301Y-140573939D01*
X143990518Y-140795867D01*
X144048459Y-141012104D01*
X144134122Y-141218913D01*
X144134127Y-141218924D01*
X144246048Y-141412775D01*
X144246059Y-141412791D01*
X144382326Y-141590379D01*
X144382332Y-141590386D01*
X144540613Y-141748667D01*
X144540620Y-141748673D01*
X144624439Y-141812989D01*
X144718217Y-141884947D01*
X144718224Y-141884951D01*
X144912075Y-141996872D01*
X144912080Y-141996874D01*
X144912083Y-141996876D01*
X145118900Y-142082542D01*
X145335129Y-142140481D01*
X145557071Y-142169700D01*
X145557078Y-142169700D01*
X145780922Y-142169700D01*
X145780929Y-142169700D01*
X146002871Y-142140481D01*
X146219100Y-142082542D01*
X146425917Y-141996876D01*
X146619783Y-141884947D01*
X146797381Y-141748672D01*
X146955672Y-141590381D01*
X147091947Y-141412783D01*
X147203876Y-141218917D01*
X147289542Y-141012100D01*
X147347481Y-140795871D01*
X147376700Y-140573929D01*
X147376700Y-140362003D01*
X147396385Y-140294964D01*
X147413019Y-140274322D01*
X147559212Y-140128129D01*
X147766320Y-139921020D01*
X147827641Y-139887537D01*
X147897332Y-139892521D01*
X147929485Y-139910327D01*
X148020207Y-139979940D01*
X148020212Y-139979943D01*
X148020217Y-139979947D01*
X148020224Y-139979951D01*
X148214075Y-140091872D01*
X148214080Y-140091874D01*
X148214083Y-140091876D01*
X148420900Y-140177542D01*
X148637129Y-140235481D01*
X148859071Y-140264700D01*
X148859078Y-140264700D01*
X149082922Y-140264700D01*
X149082929Y-140264700D01*
X149203988Y-140248762D01*
X149273021Y-140259527D01*
X149325277Y-140305907D01*
X149344163Y-140373176D01*
X149323683Y-140439977D01*
X149307853Y-140459382D01*
X148309310Y-141457925D01*
X148240290Y-141552925D01*
X148240289Y-141552926D01*
X148198240Y-141610800D01*
X148112454Y-141779163D01*
X148054059Y-141958881D01*
X148024500Y-142145513D01*
X148024500Y-143133084D01*
X148004815Y-143200123D01*
X147988181Y-143220765D01*
X147938332Y-143270613D01*
X147938326Y-143270620D01*
X147802059Y-143448208D01*
X147802048Y-143448224D01*
X147690127Y-143642075D01*
X147690122Y-143642086D01*
X147604459Y-143848895D01*
X147546518Y-144065132D01*
X147517301Y-144287060D01*
X147517300Y-144287077D01*
X147517300Y-144510922D01*
X147517301Y-144510939D01*
X147545945Y-144728516D01*
X147546519Y-144732871D01*
X147554680Y-144763328D01*
X147604459Y-144949104D01*
X147690122Y-145155913D01*
X147690127Y-145155924D01*
X147802048Y-145349775D01*
X147802059Y-145349791D01*
X147938326Y-145527379D01*
X147938332Y-145527386D01*
X148096613Y-145685667D01*
X148096620Y-145685673D01*
X148136315Y-145716132D01*
X148274217Y-145821947D01*
X148274224Y-145821951D01*
X148468075Y-145933872D01*
X148468080Y-145933874D01*
X148468083Y-145933876D01*
X148674900Y-146019542D01*
X148891129Y-146077481D01*
X149113071Y-146106700D01*
X149113078Y-146106700D01*
X149336922Y-146106700D01*
X149336929Y-146106700D01*
X149558871Y-146077481D01*
X149775100Y-146019542D01*
X149981917Y-145933876D01*
X150175783Y-145821947D01*
X150353381Y-145685672D01*
X150511672Y-145527381D01*
X150647947Y-145349783D01*
X150759876Y-145155917D01*
X150845542Y-144949100D01*
X150903481Y-144732871D01*
X150932700Y-144510929D01*
X150932700Y-144287071D01*
X150903481Y-144065129D01*
X150845542Y-143848900D01*
X150759876Y-143642083D01*
X150759874Y-143642080D01*
X150759872Y-143642075D01*
X150647951Y-143448224D01*
X150647947Y-143448217D01*
X150618384Y-143409690D01*
X150511673Y-143270620D01*
X150511667Y-143270613D01*
X150461819Y-143220765D01*
X150428334Y-143159442D01*
X150425500Y-143133084D01*
X150425500Y-142788625D01*
X150445185Y-142721586D01*
X150461819Y-142700944D01*
X150928530Y-142234233D01*
X151459503Y-141703259D01*
X151520824Y-141669776D01*
X151590516Y-141674760D01*
X151646449Y-141716632D01*
X151664223Y-141749987D01*
X151686909Y-141814819D01*
X151730976Y-141884951D01*
X151782884Y-141967562D01*
X151910438Y-142095116D01*
X152063178Y-142191089D01*
X152070109Y-142193514D01*
X152126886Y-142234233D01*
X152152636Y-142299184D01*
X152139183Y-142367747D01*
X152129480Y-142383439D01*
X152111883Y-142407659D01*
X152013534Y-142600681D01*
X151946588Y-142806719D01*
X151935140Y-142879000D01*
X152949403Y-142879000D01*
X152898461Y-142967234D01*
X152869900Y-143073824D01*
X152869900Y-143184176D01*
X152898461Y-143290766D01*
X152949403Y-143379000D01*
X151935140Y-143379000D01*
X151946588Y-143451280D01*
X152013534Y-143657318D01*
X152111883Y-143850339D01*
X152239219Y-144025600D01*
X152239219Y-144025601D01*
X152392398Y-144178780D01*
X152567660Y-144306116D01*
X152760681Y-144404465D01*
X152966714Y-144471410D01*
X153038999Y-144482859D01*
X153039000Y-144482859D01*
X153039000Y-143468596D01*
X153127234Y-143519539D01*
X153233824Y-143548100D01*
X153344176Y-143548100D01*
X153450766Y-143519539D01*
X153539000Y-143468596D01*
X153539000Y-144482859D01*
X153611284Y-144471410D01*
X153611287Y-144471410D01*
X153817318Y-144404465D01*
X154010339Y-144306116D01*
X154185600Y-144178780D01*
X154185601Y-144178780D01*
X154338780Y-144025601D01*
X154338780Y-144025600D01*
X154466116Y-143850339D01*
X154564465Y-143657318D01*
X154631411Y-143451280D01*
X154642860Y-143379000D01*
X153628597Y-143379000D01*
X153679539Y-143290766D01*
X153708100Y-143184176D01*
X153708100Y-143073824D01*
X153679539Y-142967234D01*
X153628597Y-142879000D01*
X154642860Y-142879000D01*
X154631411Y-142806719D01*
X154631411Y-142806718D01*
X154611441Y-142745255D01*
X154564465Y-142600681D01*
X154466115Y-142407658D01*
X154448521Y-142383441D01*
X154425042Y-142317635D01*
X154440868Y-142249581D01*
X154490974Y-142200887D01*
X154507886Y-142193515D01*
X154514822Y-142191089D01*
X154667562Y-142095116D01*
X154795116Y-141967562D01*
X154891089Y-141814822D01*
X154891090Y-141814818D01*
X154893073Y-141810702D01*
X154939894Y-141758841D01*
X155004795Y-141740500D01*
X155470089Y-141740500D01*
X155537128Y-141760185D01*
X155582883Y-141812989D01*
X155592827Y-141882147D01*
X155582931Y-141913346D01*
X155583763Y-141913691D01*
X155581898Y-141918193D01*
X155508934Y-142142752D01*
X155492898Y-142244000D01*
X156538988Y-142244000D01*
X156506075Y-142301007D01*
X156472000Y-142428174D01*
X156472000Y-142559826D01*
X156506075Y-142686993D01*
X156538988Y-142744000D01*
X155492898Y-142744000D01*
X155508934Y-142845247D01*
X155581897Y-143069802D01*
X155689085Y-143280171D01*
X155827866Y-143471186D01*
X155994813Y-143638133D01*
X156185828Y-143776914D01*
X156396195Y-143884102D01*
X156620744Y-143957063D01*
X156620750Y-143957065D01*
X156722000Y-143973101D01*
X156722000Y-142927012D01*
X156779007Y-142959925D01*
X156906174Y-142994000D01*
X157037826Y-142994000D01*
X157164993Y-142959925D01*
X157222000Y-142927012D01*
X157222000Y-143973100D01*
X157323249Y-143957065D01*
X157323255Y-143957063D01*
X157547804Y-143884102D01*
X157758171Y-143776914D01*
X157949186Y-143638133D01*
X158116133Y-143471186D01*
X158254914Y-143280171D01*
X158362102Y-143069802D01*
X158435064Y-142845252D01*
X158437506Y-142829834D01*
X158467435Y-142766699D01*
X158526746Y-142729767D01*
X158596609Y-142730763D01*
X158654842Y-142769372D01*
X158660295Y-142776341D01*
X158723310Y-142863074D01*
X158977309Y-143117073D01*
X158977310Y-143117074D01*
X159269926Y-143409690D01*
X159422801Y-143520760D01*
X159476459Y-143548100D01*
X159591163Y-143606545D01*
X159591165Y-143606545D01*
X159591168Y-143606547D01*
X159687497Y-143637846D01*
X159770881Y-143664940D01*
X159957514Y-143694500D01*
X159957519Y-143694500D01*
X160146482Y-143694500D01*
X163194847Y-143694500D01*
X163261886Y-143714185D01*
X163282523Y-143730814D01*
X163354492Y-143802783D01*
X163402303Y-143850594D01*
X163435916Y-143876386D01*
X163589550Y-143994273D01*
X163666864Y-144038910D01*
X163793943Y-144112280D01*
X163793948Y-144112282D01*
X163793951Y-144112284D01*
X164012007Y-144202606D01*
X164028063Y-144206908D01*
X164068851Y-144226362D01*
X164220801Y-144336760D01*
X164389168Y-144422547D01*
X164568882Y-144480940D01*
X164638870Y-144492025D01*
X164755513Y-144510500D01*
X164755518Y-144510500D01*
X164944486Y-144510500D01*
X165131118Y-144480940D01*
X165160448Y-144471410D01*
X165310832Y-144422547D01*
X165479199Y-144336760D01*
X165632073Y-144225690D01*
X165765690Y-144092073D01*
X165876760Y-143939199D01*
X165946267Y-143802782D01*
X165994241Y-143751986D01*
X166062062Y-143735191D01*
X166128197Y-143757728D01*
X166155128Y-143783591D01*
X166226326Y-143876379D01*
X166226332Y-143876386D01*
X166384613Y-144034667D01*
X166384620Y-144034673D01*
X166424315Y-144065132D01*
X166562217Y-144170947D01*
X166562224Y-144170951D01*
X166756075Y-144282872D01*
X166756080Y-144282874D01*
X166756083Y-144282876D01*
X166962900Y-144368542D01*
X167179129Y-144426481D01*
X167401071Y-144455700D01*
X167401078Y-144455700D01*
X167624922Y-144455700D01*
X167624929Y-144455700D01*
X167846871Y-144426481D01*
X168063100Y-144368542D01*
X168269917Y-144282876D01*
X168463783Y-144170947D01*
X168641381Y-144034672D01*
X168799672Y-143876381D01*
X168935947Y-143698783D01*
X169047876Y-143504917D01*
X169133542Y-143298100D01*
X169191481Y-143081871D01*
X169220700Y-142859929D01*
X169220700Y-142636071D01*
X169191481Y-142414129D01*
X169133542Y-142197900D01*
X169126217Y-142180217D01*
X169091377Y-142096105D01*
X169047876Y-141991083D01*
X169047874Y-141991080D01*
X169047872Y-141991075D01*
X168936688Y-141798500D01*
X168920215Y-141730600D01*
X168943067Y-141664573D01*
X168997989Y-141621383D01*
X169044075Y-141612500D01*
X170187649Y-141612500D01*
X170254688Y-141632185D01*
X170286025Y-141661014D01*
X170313608Y-141696961D01*
X170313614Y-141696968D01*
X170469031Y-141852385D01*
X170469038Y-141852391D01*
X170643421Y-141986200D01*
X170833775Y-142096101D01*
X170833776Y-142096101D01*
X170833779Y-142096103D01*
X171036854Y-142180219D01*
X171249171Y-142237110D01*
X171412615Y-142258627D01*
X171467096Y-142265800D01*
X171467097Y-142265800D01*
X171686904Y-142265800D01*
X171730488Y-142260062D01*
X171904829Y-142237110D01*
X172117146Y-142180219D01*
X172320221Y-142096103D01*
X172510579Y-141986200D01*
X172684963Y-141852390D01*
X172840390Y-141696963D01*
X172866753Y-141662606D01*
X172867975Y-141661014D01*
X172924403Y-141619811D01*
X172966351Y-141612500D01*
X186662268Y-141612500D01*
X186709719Y-141621938D01*
X186901900Y-141701542D01*
X187118129Y-141759481D01*
X187340071Y-141788700D01*
X187340078Y-141788700D01*
X187563922Y-141788700D01*
X187563929Y-141788700D01*
X187785871Y-141759481D01*
X188002100Y-141701542D01*
X188208917Y-141615876D01*
X188402783Y-141503947D01*
X188580381Y-141367672D01*
X188738672Y-141209381D01*
X188874947Y-141031783D01*
X188986876Y-140837917D01*
X189072542Y-140631100D01*
X189130481Y-140414871D01*
X189159700Y-140192929D01*
X189159700Y-139969071D01*
X189130481Y-139747129D01*
X189072542Y-139530900D01*
X188986876Y-139324083D01*
X188986874Y-139324080D01*
X188986872Y-139324075D01*
X188874951Y-139130224D01*
X188874947Y-139130217D01*
X188738672Y-138952619D01*
X188738667Y-138952613D01*
X188580386Y-138794332D01*
X188580379Y-138794326D01*
X188402791Y-138658059D01*
X188402789Y-138658057D01*
X188402783Y-138658053D01*
X188402778Y-138658050D01*
X188402775Y-138658048D01*
X188208924Y-138546127D01*
X188208913Y-138546122D01*
X188002104Y-138460459D01*
X187893985Y-138431488D01*
X187785871Y-138402519D01*
X187785870Y-138402518D01*
X187785867Y-138402518D01*
X187563939Y-138373301D01*
X187563934Y-138373300D01*
X187563929Y-138373300D01*
X187340071Y-138373300D01*
X187340065Y-138373300D01*
X187340060Y-138373301D01*
X187118132Y-138402518D01*
X186901892Y-138460460D01*
X186895952Y-138462921D01*
X186826483Y-138470390D01*
X186764004Y-138439115D01*
X186728352Y-138379026D01*
X186724500Y-138348360D01*
X186724500Y-135011581D01*
X186744185Y-134944542D01*
X186773012Y-134913206D01*
X186802381Y-134890672D01*
X186960672Y-134732381D01*
X187096947Y-134554783D01*
X187208876Y-134360917D01*
X187294542Y-134154100D01*
X187352481Y-133937871D01*
X187381700Y-133715929D01*
X187381700Y-133492071D01*
X187352481Y-133270129D01*
X187294542Y-133053900D01*
X187208876Y-132847083D01*
X187208874Y-132847080D01*
X187208872Y-132847075D01*
X187096951Y-132653224D01*
X187096947Y-132653217D01*
X187035687Y-132573381D01*
X186960673Y-132475620D01*
X186960667Y-132475613D01*
X186836150Y-132351096D01*
X188061200Y-132351096D01*
X188061200Y-132570903D01*
X188087668Y-132771955D01*
X188089890Y-132788829D01*
X188102859Y-132837230D01*
X188146782Y-133001150D01*
X188230894Y-133204214D01*
X188230898Y-133204224D01*
X188340799Y-133394578D01*
X188474608Y-133568961D01*
X188474614Y-133568968D01*
X188601181Y-133695535D01*
X188634666Y-133756858D01*
X188637500Y-133783216D01*
X188637500Y-136565389D01*
X188637500Y-136738611D01*
X188639811Y-136753200D01*
X188662289Y-136895127D01*
X188664598Y-136909701D01*
X188718127Y-137074445D01*
X188796768Y-137228788D01*
X188898586Y-137368928D01*
X189402072Y-137872414D01*
X189542212Y-137974232D01*
X189615131Y-138011386D01*
X189696549Y-138052871D01*
X189696551Y-138052871D01*
X189696554Y-138052873D01*
X189861299Y-138106402D01*
X190032389Y-138133500D01*
X190205610Y-138133500D01*
X193847500Y-138133500D01*
X193914539Y-138153185D01*
X193960294Y-138205989D01*
X193971500Y-138257500D01*
X193971500Y-138715084D01*
X193951815Y-138782123D01*
X193935181Y-138802765D01*
X193785332Y-138952613D01*
X193785326Y-138952620D01*
X193649059Y-139130208D01*
X193649048Y-139130224D01*
X193537127Y-139324075D01*
X193537122Y-139324086D01*
X193451459Y-139530895D01*
X193393518Y-139747132D01*
X193364301Y-139969060D01*
X193364300Y-139969077D01*
X193364300Y-140192922D01*
X193364301Y-140192939D01*
X193388029Y-140373176D01*
X193393519Y-140414871D01*
X193405446Y-140459382D01*
X193451459Y-140631104D01*
X193537122Y-140837913D01*
X193537127Y-140837924D01*
X193649048Y-141031775D01*
X193649059Y-141031791D01*
X193785326Y-141209379D01*
X193785332Y-141209386D01*
X193943613Y-141367667D01*
X193943620Y-141367673D01*
X194056480Y-141454273D01*
X194121217Y-141503947D01*
X194121224Y-141503951D01*
X194315075Y-141615872D01*
X194315080Y-141615874D01*
X194315083Y-141615876D01*
X194521900Y-141701542D01*
X194738129Y-141759481D01*
X194960071Y-141788700D01*
X194960078Y-141788700D01*
X195183922Y-141788700D01*
X195183929Y-141788700D01*
X195405871Y-141759481D01*
X195622100Y-141701542D01*
X195828917Y-141615876D01*
X196022783Y-141503947D01*
X196200381Y-141367672D01*
X196358672Y-141209381D01*
X196494947Y-141031783D01*
X196606876Y-140837917D01*
X196692542Y-140631100D01*
X196750481Y-140414871D01*
X196779700Y-140192929D01*
X196779700Y-139969071D01*
X196750481Y-139747129D01*
X196692542Y-139530900D01*
X196606876Y-139324083D01*
X196606874Y-139324080D01*
X196606872Y-139324075D01*
X196494951Y-139130224D01*
X196494947Y-139130217D01*
X196358672Y-138952619D01*
X196358667Y-138952613D01*
X196208819Y-138802765D01*
X196175334Y-138741442D01*
X196172500Y-138715084D01*
X196172500Y-137780464D01*
X196192185Y-137713425D01*
X196196183Y-137707578D01*
X196267229Y-137609792D01*
X196267228Y-137609792D01*
X196267232Y-137609788D01*
X196345873Y-137455445D01*
X196399402Y-137290701D01*
X196426500Y-137119611D01*
X196426500Y-136946389D01*
X196399402Y-136775299D01*
X196345873Y-136610555D01*
X196267232Y-136456212D01*
X196165414Y-136316072D01*
X196042928Y-136193586D01*
X195902788Y-136091768D01*
X195748445Y-136013127D01*
X195583701Y-135959598D01*
X195583699Y-135959597D01*
X195583698Y-135959597D01*
X195452271Y-135938781D01*
X195412611Y-135932500D01*
X195412610Y-135932500D01*
X190962500Y-135932500D01*
X190895461Y-135912815D01*
X190849706Y-135860011D01*
X190838500Y-135808500D01*
X190838500Y-133783216D01*
X190858185Y-133716177D01*
X190874819Y-133695535D01*
X191001385Y-133568968D01*
X191001390Y-133568963D01*
X191135200Y-133394579D01*
X191245103Y-133204221D01*
X191329219Y-133001146D01*
X191386110Y-132788829D01*
X191414800Y-132570903D01*
X191414800Y-132351097D01*
X191386110Y-132133171D01*
X191329219Y-131920854D01*
X191245103Y-131717779D01*
X191242701Y-131713619D01*
X191135200Y-131527421D01*
X191001391Y-131353038D01*
X191001385Y-131353031D01*
X190918509Y-131270155D01*
X192508250Y-131270155D01*
X192508250Y-132465000D01*
X193697009Y-132465000D01*
X193684072Y-132496233D01*
X193655250Y-132641131D01*
X193655250Y-132788869D01*
X193684072Y-132933767D01*
X193697009Y-132965000D01*
X192508250Y-132965000D01*
X192508250Y-134159844D01*
X192514651Y-134219372D01*
X192514653Y-134219379D01*
X192564895Y-134354086D01*
X192564899Y-134354093D01*
X192651059Y-134469187D01*
X192651062Y-134469190D01*
X192766156Y-134555350D01*
X192766163Y-134555354D01*
X192900870Y-134605596D01*
X192900877Y-134605598D01*
X192960405Y-134611999D01*
X192960422Y-134612000D01*
X194155250Y-134612000D01*
X194155250Y-133423240D01*
X194186483Y-133436178D01*
X194331381Y-133465000D01*
X194479119Y-133465000D01*
X194624017Y-133436178D01*
X194655250Y-133423240D01*
X194655250Y-134612000D01*
X195850078Y-134612000D01*
X195850094Y-134611999D01*
X195909622Y-134605598D01*
X195909629Y-134605596D01*
X196044336Y-134555354D01*
X196044343Y-134555350D01*
X196159437Y-134469190D01*
X196159440Y-134469187D01*
X196245600Y-134354093D01*
X196245604Y-134354086D01*
X196295846Y-134219379D01*
X196295848Y-134219372D01*
X196302249Y-134159844D01*
X196302250Y-134159827D01*
X196302250Y-132965000D01*
X195113491Y-132965000D01*
X195126428Y-132933767D01*
X195155250Y-132788869D01*
X195155250Y-132641131D01*
X195126428Y-132496233D01*
X195113491Y-132465000D01*
X196302250Y-132465000D01*
X196302250Y-131270172D01*
X196302249Y-131270155D01*
X196295848Y-131210627D01*
X196295846Y-131210620D01*
X196245604Y-131075913D01*
X196245600Y-131075906D01*
X196159440Y-130960812D01*
X196159437Y-130960809D01*
X196044343Y-130874649D01*
X196044336Y-130874645D01*
X195909629Y-130824403D01*
X195909622Y-130824401D01*
X195850094Y-130818000D01*
X194655250Y-130818000D01*
X194655250Y-132006759D01*
X194624017Y-131993822D01*
X194479119Y-131965000D01*
X194331381Y-131965000D01*
X194186483Y-131993822D01*
X194155250Y-132006759D01*
X194155250Y-130818000D01*
X192960405Y-130818000D01*
X192900877Y-130824401D01*
X192900870Y-130824403D01*
X192766163Y-130874645D01*
X192766156Y-130874649D01*
X192651062Y-130960809D01*
X192651059Y-130960812D01*
X192564899Y-131075906D01*
X192564895Y-131075913D01*
X192514653Y-131210620D01*
X192514651Y-131210627D01*
X192508250Y-131270155D01*
X190918509Y-131270155D01*
X190845968Y-131197614D01*
X190845961Y-131197608D01*
X190671578Y-131063799D01*
X190481224Y-130953898D01*
X190481214Y-130953894D01*
X190278150Y-130869782D01*
X190108788Y-130824401D01*
X190065829Y-130812890D01*
X190065828Y-130812889D01*
X190065825Y-130812889D01*
X189847904Y-130784200D01*
X189847903Y-130784200D01*
X189628097Y-130784200D01*
X189628096Y-130784200D01*
X189410174Y-130812889D01*
X189197849Y-130869782D01*
X188994785Y-130953894D01*
X188994775Y-130953898D01*
X188804421Y-131063799D01*
X188630038Y-131197608D01*
X188630031Y-131197614D01*
X188474614Y-131353031D01*
X188474608Y-131353038D01*
X188340799Y-131527421D01*
X188230898Y-131717775D01*
X188230894Y-131717785D01*
X188146782Y-131920849D01*
X188089889Y-132133174D01*
X188061200Y-132351096D01*
X186836150Y-132351096D01*
X186802386Y-132317332D01*
X186802379Y-132317326D01*
X186624791Y-132181059D01*
X186624789Y-132181057D01*
X186624783Y-132181053D01*
X186624778Y-132181050D01*
X186624775Y-132181048D01*
X186430924Y-132069127D01*
X186430913Y-132069122D01*
X186224104Y-131983459D01*
X186115985Y-131954488D01*
X186007871Y-131925519D01*
X186007870Y-131925518D01*
X186007867Y-131925518D01*
X185785939Y-131896301D01*
X185785934Y-131896300D01*
X185785929Y-131896300D01*
X185562071Y-131896300D01*
X185562065Y-131896300D01*
X185562060Y-131896301D01*
X185340132Y-131925518D01*
X185123895Y-131983459D01*
X184917086Y-132069122D01*
X184917075Y-132069127D01*
X184723224Y-132181048D01*
X184723208Y-132181059D01*
X184545620Y-132317326D01*
X184545613Y-132317332D01*
X184387332Y-132475613D01*
X184387326Y-132475620D01*
X184251059Y-132653208D01*
X184251048Y-132653224D01*
X184139127Y-132847075D01*
X184139122Y-132847086D01*
X184053459Y-133053895D01*
X183995518Y-133270132D01*
X183966301Y-133492060D01*
X183966300Y-133492077D01*
X183966300Y-133715922D01*
X183966301Y-133715939D01*
X183992639Y-133916001D01*
X183995519Y-133937871D01*
X184010416Y-133993465D01*
X184053459Y-134154104D01*
X184139122Y-134360913D01*
X184139127Y-134360924D01*
X184251048Y-134554775D01*
X184251059Y-134554791D01*
X184387326Y-134732379D01*
X184387332Y-134732386D01*
X184545613Y-134890667D01*
X184545617Y-134890670D01*
X184545619Y-134890672D01*
X184574986Y-134913205D01*
X184616188Y-134969631D01*
X184623500Y-135011581D01*
X184623500Y-136697360D01*
X184603815Y-136764399D01*
X184551011Y-136810154D01*
X184481853Y-136820098D01*
X184452048Y-136811921D01*
X184446107Y-136809460D01*
X184408936Y-136799500D01*
X184229871Y-136751519D01*
X184229870Y-136751518D01*
X184229867Y-136751518D01*
X184007939Y-136722301D01*
X184007934Y-136722300D01*
X184007929Y-136722300D01*
X183784071Y-136722300D01*
X183784065Y-136722300D01*
X183784060Y-136722301D01*
X183562132Y-136751518D01*
X183345895Y-136809459D01*
X183139086Y-136895122D01*
X183139075Y-136895127D01*
X182945224Y-137007048D01*
X182945208Y-137007059D01*
X182767620Y-137143326D01*
X182767613Y-137143332D01*
X182609328Y-137301617D01*
X182586795Y-137330985D01*
X182583715Y-137333233D01*
X182582131Y-137336703D01*
X182555719Y-137353676D01*
X182530367Y-137372189D01*
X182525628Y-137373014D01*
X182523353Y-137374477D01*
X182488418Y-137379500D01*
X182470633Y-137379500D01*
X182403594Y-137359815D01*
X182372256Y-137330985D01*
X182365389Y-137322035D01*
X182209968Y-137166614D01*
X182209961Y-137166608D01*
X182035578Y-137032799D01*
X181845224Y-136922898D01*
X181845214Y-136922894D01*
X181642150Y-136838782D01*
X181443712Y-136785610D01*
X181429829Y-136781890D01*
X181429828Y-136781889D01*
X181429825Y-136781889D01*
X181211904Y-136753200D01*
X181211903Y-136753200D01*
X180992097Y-136753200D01*
X180992096Y-136753200D01*
X180774174Y-136781889D01*
X180561849Y-136838782D01*
X180358785Y-136922894D01*
X180358775Y-136922898D01*
X180168421Y-137032799D01*
X179994038Y-137166608D01*
X179994031Y-137166614D01*
X179838614Y-137322031D01*
X179838608Y-137322038D01*
X179704799Y-137496421D01*
X179594898Y-137686775D01*
X179594894Y-137686785D01*
X179510782Y-137889849D01*
X179453889Y-138102174D01*
X179425200Y-138320096D01*
X179425200Y-138539903D01*
X179453425Y-138754301D01*
X179453890Y-138757829D01*
X179463670Y-138794328D01*
X179510782Y-138970150D01*
X179581156Y-139140047D01*
X179588625Y-139209517D01*
X179557350Y-139271996D01*
X179497261Y-139307648D01*
X179466595Y-139311500D01*
X177657405Y-139311500D01*
X177590366Y-139291815D01*
X177544611Y-139239011D01*
X177534667Y-139169853D01*
X177542844Y-139140047D01*
X177546919Y-139130208D01*
X177613219Y-138970146D01*
X177670110Y-138757829D01*
X177698800Y-138539903D01*
X177698800Y-138431613D01*
X177718485Y-138364574D01*
X177735115Y-138343936D01*
X178417518Y-137661532D01*
X178417537Y-137661516D01*
X178422498Y-137656554D01*
X178422501Y-137656553D01*
X178550553Y-137528501D01*
X178656996Y-137381994D01*
X178739211Y-137220639D01*
X178740092Y-137217927D01*
X178795172Y-137048409D01*
X178799335Y-137022124D01*
X178823501Y-136869551D01*
X178823501Y-136684052D01*
X178823500Y-136684037D01*
X178823500Y-135203202D01*
X178843185Y-135136163D01*
X178885500Y-135095815D01*
X179004783Y-135026947D01*
X179182381Y-134890672D01*
X179340672Y-134732381D01*
X179476947Y-134554783D01*
X179588876Y-134360917D01*
X179674542Y-134154100D01*
X179732481Y-133937871D01*
X179761700Y-133715929D01*
X179761700Y-133492071D01*
X179732481Y-133270129D01*
X179674542Y-133053900D01*
X179588876Y-132847083D01*
X179588874Y-132847080D01*
X179588872Y-132847075D01*
X179476951Y-132653224D01*
X179476947Y-132653217D01*
X179415687Y-132573381D01*
X179340673Y-132475620D01*
X179340667Y-132475613D01*
X179182386Y-132317332D01*
X179182379Y-132317326D01*
X179004791Y-132181059D01*
X179004789Y-132181057D01*
X179004783Y-132181053D01*
X179004778Y-132181050D01*
X179004775Y-132181048D01*
X178810924Y-132069127D01*
X178810913Y-132069122D01*
X178604104Y-131983459D01*
X178495985Y-131954488D01*
X178387871Y-131925519D01*
X178387870Y-131925518D01*
X178387867Y-131925518D01*
X178165939Y-131896301D01*
X178165934Y-131896300D01*
X178165929Y-131896300D01*
X177942071Y-131896300D01*
X177942065Y-131896300D01*
X177942060Y-131896301D01*
X177720132Y-131925518D01*
X177503895Y-131983459D01*
X177297086Y-132069122D01*
X177297075Y-132069127D01*
X177103224Y-132181048D01*
X177103208Y-132181059D01*
X176925620Y-132317326D01*
X176925613Y-132317332D01*
X176767332Y-132475613D01*
X176767326Y-132475620D01*
X176631059Y-132653208D01*
X176631048Y-132653224D01*
X176519127Y-132847075D01*
X176519122Y-132847086D01*
X176433459Y-133053895D01*
X176375518Y-133270132D01*
X176346301Y-133492060D01*
X176346300Y-133492077D01*
X176346300Y-133715922D01*
X176346301Y-133715939D01*
X176372639Y-133916001D01*
X176375519Y-133937871D01*
X176390416Y-133993465D01*
X176433459Y-134154104D01*
X176443033Y-134177217D01*
X176513061Y-134346280D01*
X176522500Y-134393731D01*
X176522500Y-136251085D01*
X176502815Y-136318124D01*
X176486181Y-136338766D01*
X176108067Y-136716881D01*
X176046744Y-136750366D01*
X176020386Y-136753200D01*
X175912096Y-136753200D01*
X175694174Y-136781889D01*
X175481849Y-136838782D01*
X175278785Y-136922894D01*
X175278775Y-136922898D01*
X175088421Y-137032799D01*
X174914039Y-137166607D01*
X174875753Y-137204894D01*
X174837464Y-137243182D01*
X174776144Y-137276666D01*
X174749785Y-137279500D01*
X173140522Y-137279500D01*
X173073483Y-137259815D01*
X173033135Y-137217500D01*
X173003754Y-137166610D01*
X172974200Y-137115421D01*
X172922780Y-137048409D01*
X172840391Y-136941038D01*
X172840385Y-136941031D01*
X172684968Y-136785614D01*
X172684961Y-136785608D01*
X172510578Y-136651799D01*
X172320224Y-136541898D01*
X172320214Y-136541894D01*
X172117150Y-136457782D01*
X171904825Y-136400889D01*
X171686904Y-136372200D01*
X171686903Y-136372200D01*
X171467097Y-136372200D01*
X171467096Y-136372200D01*
X171249174Y-136400889D01*
X171036849Y-136457782D01*
X170833785Y-136541894D01*
X170833775Y-136541898D01*
X170643421Y-136651799D01*
X170484328Y-136773876D01*
X170419159Y-136799070D01*
X170408842Y-136799500D01*
X168496051Y-136799500D01*
X168429012Y-136779815D01*
X168383257Y-136727011D01*
X168373313Y-136657853D01*
X168402338Y-136594297D01*
X168434048Y-136568114D01*
X168463783Y-136550947D01*
X168641381Y-136414672D01*
X168799672Y-136256381D01*
X168935947Y-136078783D01*
X169047876Y-135884917D01*
X169133542Y-135678100D01*
X169191481Y-135461871D01*
X169220700Y-135239929D01*
X169220700Y-135016071D01*
X169191481Y-134794129D01*
X169133542Y-134577900D01*
X169047876Y-134371083D01*
X169047874Y-134371080D01*
X169047872Y-134371075D01*
X168935951Y-134177224D01*
X168935947Y-134177217D01*
X168799672Y-133999619D01*
X168799667Y-133999613D01*
X168749819Y-133949765D01*
X168716334Y-133888442D01*
X168713500Y-133862084D01*
X168713500Y-133531500D01*
X168733185Y-133464461D01*
X168785989Y-133418706D01*
X168837500Y-133407500D01*
X172179486Y-133407500D01*
X172366118Y-133377940D01*
X172379084Y-133373727D01*
X172545832Y-133319547D01*
X172714199Y-133233760D01*
X172867074Y-133122690D01*
X173495005Y-132494756D01*
X173495012Y-132494751D01*
X173502072Y-132487691D01*
X173502074Y-132487690D01*
X174143690Y-131846074D01*
X174254760Y-131693200D01*
X174340547Y-131524832D01*
X174358103Y-131470800D01*
X174367425Y-131442111D01*
X174385910Y-131385219D01*
X174398940Y-131345118D01*
X174420242Y-131210620D01*
X174428500Y-131158486D01*
X174428500Y-127688581D01*
X174448185Y-127621542D01*
X174500989Y-127575787D01*
X174570147Y-127565843D01*
X174633703Y-127594868D01*
X174647473Y-127609486D01*
X174647652Y-127609330D01*
X174650332Y-127612386D01*
X174808613Y-127770667D01*
X174808617Y-127770670D01*
X174808619Y-127770672D01*
X174837986Y-127793205D01*
X174879188Y-127849631D01*
X174886500Y-127891581D01*
X174886500Y-129304469D01*
X174926868Y-129507412D01*
X174926870Y-129507420D01*
X175006059Y-129698598D01*
X175121023Y-129870655D01*
X175267345Y-130016977D01*
X175267346Y-130016977D01*
X175274413Y-130024044D01*
X175274412Y-130024044D01*
X175274416Y-130024047D01*
X175987341Y-130736974D01*
X175987345Y-130736977D01*
X176159395Y-130851938D01*
X176159408Y-130851945D01*
X176280159Y-130901961D01*
X176350580Y-130931130D01*
X176350584Y-130931130D01*
X176350585Y-130931131D01*
X176553532Y-130971501D01*
X176553535Y-130971501D01*
X176760467Y-130971501D01*
X176908341Y-130942086D01*
X176963420Y-130931130D01*
X177149777Y-130853938D01*
X177197229Y-130844500D01*
X181295456Y-130844500D01*
X181362495Y-130864185D01*
X181408250Y-130916989D01*
X181417073Y-130944309D01*
X181442603Y-131072658D01*
X181442605Y-131072666D01*
X181510488Y-131236548D01*
X181609034Y-131384034D01*
X181609040Y-131384041D01*
X181734458Y-131509459D01*
X181734465Y-131509465D01*
X181881951Y-131608011D01*
X181881952Y-131608011D01*
X181881953Y-131608012D01*
X182045834Y-131675895D01*
X182219803Y-131710499D01*
X182219807Y-131710500D01*
X182219808Y-131710500D01*
X182397193Y-131710500D01*
X182397194Y-131710499D01*
X182571166Y-131675895D01*
X182735047Y-131608012D01*
X182776077Y-131580596D01*
X182842755Y-131559720D01*
X182844967Y-131559700D01*
X182932231Y-131559700D01*
X182978126Y-131553657D01*
X183161710Y-131529489D01*
X183385284Y-131469582D01*
X183599125Y-131381006D01*
X183799575Y-131265276D01*
X183983205Y-131124372D01*
X184146872Y-130960705D01*
X184287776Y-130777075D01*
X184403506Y-130576625D01*
X184492082Y-130362784D01*
X184551989Y-130139210D01*
X184582200Y-129909730D01*
X184582200Y-129678270D01*
X184578521Y-129650328D01*
X184562490Y-129528553D01*
X184551989Y-129448790D01*
X184492082Y-129225216D01*
X184403506Y-129011375D01*
X184402167Y-129009057D01*
X184401978Y-129008277D01*
X184401710Y-129007733D01*
X184401831Y-129007672D01*
X184385692Y-128941159D01*
X184408541Y-128875131D01*
X184463460Y-128831937D01*
X184533012Y-128825292D01*
X184571556Y-128839667D01*
X184573875Y-128841006D01*
X184787716Y-128929582D01*
X185011290Y-128989489D01*
X185177534Y-129011375D01*
X185240769Y-129019700D01*
X185240770Y-129019700D01*
X185472231Y-129019700D01*
X185535466Y-129011375D01*
X185701710Y-128989489D01*
X185925284Y-128929582D01*
X186139125Y-128841006D01*
X186141443Y-128839668D01*
X186191227Y-128810925D01*
X186339575Y-128725276D01*
X186523205Y-128584372D01*
X186686872Y-128420705D01*
X186827776Y-128237075D01*
X186943506Y-128036625D01*
X187032082Y-127822784D01*
X187091989Y-127599210D01*
X187122200Y-127369730D01*
X187122200Y-127271096D01*
X188061200Y-127271096D01*
X188061200Y-127490903D01*
X188089889Y-127708825D01*
X188146782Y-127921150D01*
X188230894Y-128124214D01*
X188230898Y-128124224D01*
X188340799Y-128314578D01*
X188474608Y-128488961D01*
X188474614Y-128488968D01*
X188630031Y-128644385D01*
X188630038Y-128644391D01*
X188804421Y-128778200D01*
X188994775Y-128888101D01*
X188994776Y-128888101D01*
X188994779Y-128888103D01*
X189197854Y-128972219D01*
X189410171Y-129029110D01*
X189573615Y-129050627D01*
X189628096Y-129057800D01*
X189628097Y-129057800D01*
X189847904Y-129057800D01*
X189901188Y-129050785D01*
X190065829Y-129029110D01*
X190278146Y-128972219D01*
X190481221Y-128888103D01*
X190671579Y-128778200D01*
X190693833Y-128761123D01*
X190759001Y-128735930D01*
X190769319Y-128735500D01*
X192431578Y-128735500D01*
X192498617Y-128755185D01*
X192538965Y-128797500D01*
X192574170Y-128858477D01*
X192574181Y-128858493D01*
X192749535Y-129087019D01*
X192749541Y-129087026D01*
X192953223Y-129290708D01*
X192953230Y-129290714D01*
X193098426Y-129402127D01*
X193181765Y-129466075D01*
X193197437Y-129475123D01*
X193431227Y-129610103D01*
X193431232Y-129610105D01*
X193431235Y-129610107D01*
X193528347Y-129650332D01*
X193689809Y-129717212D01*
X193697371Y-129720344D01*
X193975619Y-129794900D01*
X194261218Y-129832500D01*
X194261225Y-129832500D01*
X194549275Y-129832500D01*
X194549282Y-129832500D01*
X194834881Y-129794900D01*
X195113129Y-129720344D01*
X195379265Y-129610107D01*
X195628735Y-129466075D01*
X195857271Y-129290713D01*
X196060963Y-129087021D01*
X196236325Y-128858485D01*
X196380357Y-128609015D01*
X196490594Y-128342879D01*
X196565150Y-128064631D01*
X196602750Y-127779032D01*
X196602750Y-127490968D01*
X196565150Y-127205369D01*
X196490594Y-126927121D01*
X196380357Y-126660985D01*
X196380355Y-126660982D01*
X196380353Y-126660977D01*
X196236329Y-126411522D01*
X196236325Y-126411515D01*
X196128452Y-126270932D01*
X196060964Y-126182980D01*
X196060958Y-126182973D01*
X195857276Y-125979291D01*
X195857269Y-125979285D01*
X195628743Y-125803931D01*
X195628741Y-125803929D01*
X195628735Y-125803925D01*
X195628730Y-125803922D01*
X195628727Y-125803920D01*
X195379272Y-125659896D01*
X195379261Y-125659891D01*
X195113138Y-125549659D01*
X195113131Y-125549657D01*
X195113129Y-125549656D01*
X194834881Y-125475100D01*
X194834875Y-125475099D01*
X194834870Y-125475098D01*
X194549291Y-125437501D01*
X194549288Y-125437500D01*
X194549282Y-125437500D01*
X194261218Y-125437500D01*
X194261212Y-125437500D01*
X194261208Y-125437501D01*
X193975629Y-125475098D01*
X193975622Y-125475099D01*
X193975619Y-125475100D01*
X193758696Y-125533224D01*
X193697371Y-125549656D01*
X193697361Y-125549659D01*
X193431238Y-125659891D01*
X193431227Y-125659896D01*
X193181772Y-125803920D01*
X193181756Y-125803931D01*
X192953230Y-125979285D01*
X192953223Y-125979291D01*
X192749541Y-126182973D01*
X192749535Y-126182980D01*
X192574181Y-126411506D01*
X192574170Y-126411522D01*
X192538965Y-126472500D01*
X192488398Y-126520716D01*
X192431578Y-126534500D01*
X191257066Y-126534500D01*
X191190027Y-126514815D01*
X191149681Y-126472503D01*
X191135200Y-126447421D01*
X191107648Y-126411515D01*
X191001391Y-126273038D01*
X191001385Y-126273031D01*
X190845968Y-126117614D01*
X190845961Y-126117608D01*
X190671578Y-125983799D01*
X190481224Y-125873898D01*
X190481214Y-125873894D01*
X190278150Y-125789782D01*
X190065825Y-125732889D01*
X189847904Y-125704200D01*
X189847903Y-125704200D01*
X189628097Y-125704200D01*
X189628096Y-125704200D01*
X189410174Y-125732889D01*
X189197849Y-125789782D01*
X188994785Y-125873894D01*
X188994775Y-125873898D01*
X188804421Y-125983799D01*
X188630038Y-126117608D01*
X188630031Y-126117614D01*
X188474614Y-126273031D01*
X188474608Y-126273038D01*
X188340799Y-126447421D01*
X188230898Y-126637775D01*
X188230894Y-126637785D01*
X188146782Y-126840849D01*
X188089889Y-127053174D01*
X188061200Y-127271096D01*
X187122200Y-127271096D01*
X187122200Y-127138270D01*
X187091989Y-126908790D01*
X187032082Y-126685216D01*
X186943506Y-126471375D01*
X186943504Y-126471372D01*
X186943502Y-126471367D01*
X186827780Y-126270932D01*
X186827776Y-126270925D01*
X186746596Y-126165129D01*
X186686873Y-126087296D01*
X186686867Y-126087289D01*
X186523212Y-125923634D01*
X186523207Y-125923630D01*
X186523205Y-125923628D01*
X186455511Y-125871684D01*
X186414310Y-125815257D01*
X186407000Y-125773310D01*
X186407000Y-125354925D01*
X186411410Y-125322151D01*
X186413465Y-125314651D01*
X186430130Y-125274419D01*
X186430876Y-125270672D01*
X186444195Y-125203709D01*
X186470501Y-125071465D01*
X186470501Y-124864534D01*
X186470501Y-124859424D01*
X186470500Y-124859398D01*
X186470500Y-124610534D01*
X186470499Y-124610530D01*
X186430131Y-124407587D01*
X186430130Y-124407580D01*
X186350941Y-124216402D01*
X186235977Y-124044345D01*
X186235975Y-124044342D01*
X186089657Y-123898024D01*
X186003626Y-123840541D01*
X185917598Y-123783059D01*
X185726420Y-123703870D01*
X185726412Y-123703868D01*
X185523469Y-123663500D01*
X185523465Y-123663500D01*
X184687400Y-123663500D01*
X184620361Y-123643815D01*
X184574606Y-123591011D01*
X184569543Y-123576056D01*
X184569368Y-123576118D01*
X184522414Y-123441931D01*
X184507489Y-123399278D01*
X184411516Y-123246538D01*
X184283962Y-123118984D01*
X184178999Y-123053031D01*
X184131223Y-123023011D01*
X183960954Y-122963431D01*
X183960949Y-122963430D01*
X183826660Y-122948300D01*
X183826654Y-122948300D01*
X181806346Y-122948300D01*
X181806344Y-122948300D01*
X181797039Y-122949348D01*
X181728218Y-122937290D01*
X181676840Y-122889939D01*
X181659219Y-122822328D01*
X181680949Y-122755923D01*
X181684786Y-122750640D01*
X181685898Y-122749192D01*
X181800700Y-122599579D01*
X181910603Y-122409221D01*
X181994719Y-122206146D01*
X182051610Y-121993829D01*
X182080300Y-121775903D01*
X182080300Y-121556097D01*
X182061856Y-121416000D01*
X184129640Y-121416000D01*
X185143903Y-121416000D01*
X185092961Y-121504234D01*
X185064400Y-121610824D01*
X185064400Y-121721176D01*
X185092961Y-121827766D01*
X185143903Y-121916000D01*
X184129640Y-121916000D01*
X184141088Y-121988280D01*
X184208034Y-122194318D01*
X184306383Y-122387339D01*
X184433719Y-122562600D01*
X184433719Y-122562601D01*
X184586898Y-122715780D01*
X184762160Y-122843116D01*
X184955181Y-122941465D01*
X185161214Y-123008410D01*
X185233499Y-123019859D01*
X185233500Y-123019859D01*
X185233500Y-122005596D01*
X185321734Y-122056539D01*
X185428324Y-122085100D01*
X185538676Y-122085100D01*
X185645266Y-122056539D01*
X185733500Y-122005596D01*
X185733500Y-123019859D01*
X185805784Y-123008410D01*
X185805787Y-123008410D01*
X186011818Y-122941465D01*
X186204839Y-122843116D01*
X186380100Y-122715780D01*
X186380101Y-122715780D01*
X186533280Y-122562601D01*
X186533280Y-122562600D01*
X186660616Y-122387339D01*
X186758965Y-122194318D01*
X186825911Y-121988281D01*
X186837315Y-121916281D01*
X192207750Y-121916281D01*
X192207750Y-123193713D01*
X192214066Y-123268590D01*
X192214067Y-123268593D01*
X192264006Y-123441932D01*
X192307634Y-123520872D01*
X192351263Y-123599814D01*
X192399748Y-123657231D01*
X192399756Y-123657240D01*
X193303015Y-124560500D01*
X193336630Y-124588884D01*
X193360433Y-124608984D01*
X193360434Y-124608985D01*
X193360435Y-124608986D01*
X193360437Y-124608987D01*
X193518318Y-124696245D01*
X193691657Y-124746183D01*
X193735943Y-124749918D01*
X193766531Y-124752499D01*
X193766547Y-124752500D01*
X195043947Y-124752500D01*
X195043948Y-124752500D01*
X195043950Y-124752499D01*
X195043963Y-124752499D01*
X195082278Y-124749267D01*
X195118843Y-124746183D01*
X195292182Y-124696244D01*
X195450063Y-124608987D01*
X195507490Y-124560494D01*
X196410750Y-123657235D01*
X196459237Y-123599813D01*
X196546495Y-123441932D01*
X196596433Y-123268593D01*
X196602750Y-123193703D01*
X196602750Y-121916302D01*
X196602748Y-121916281D01*
X196598233Y-121862751D01*
X196596433Y-121841407D01*
X196546494Y-121668068D01*
X196459237Y-121510187D01*
X196459236Y-121510185D01*
X196410750Y-121452767D01*
X196410749Y-121452765D01*
X196410744Y-121452760D01*
X195507485Y-120549500D01*
X195482112Y-120528075D01*
X195450066Y-120501015D01*
X195450065Y-120501014D01*
X195292180Y-120413754D01*
X195118846Y-120363818D01*
X195118847Y-120363818D01*
X195118843Y-120363817D01*
X195118839Y-120363816D01*
X195118836Y-120363816D01*
X195043968Y-120357500D01*
X195043953Y-120357500D01*
X193766552Y-120357500D01*
X193766536Y-120357500D01*
X193691659Y-120363816D01*
X193518318Y-120413756D01*
X193360435Y-120501013D01*
X193303017Y-120549499D01*
X193303002Y-120549513D01*
X192399756Y-121452758D01*
X192399747Y-121452768D01*
X192351265Y-121510183D01*
X192351264Y-121510184D01*
X192264004Y-121668069D01*
X192214068Y-121841403D01*
X192214066Y-121841413D01*
X192207750Y-121916281D01*
X186837315Y-121916281D01*
X186837360Y-121916000D01*
X185823097Y-121916000D01*
X185874039Y-121827766D01*
X185902600Y-121721176D01*
X185902600Y-121610824D01*
X185874039Y-121504234D01*
X185823097Y-121416000D01*
X186837360Y-121416000D01*
X186825911Y-121343719D01*
X186758965Y-121137681D01*
X186660616Y-120944660D01*
X186533280Y-120769399D01*
X186533280Y-120769398D01*
X186380101Y-120616219D01*
X186204839Y-120488883D01*
X186011818Y-120390534D01*
X185805780Y-120323588D01*
X185733500Y-120312139D01*
X185733500Y-121326403D01*
X185645266Y-121275461D01*
X185538676Y-121246900D01*
X185428324Y-121246900D01*
X185321734Y-121275461D01*
X185233500Y-121326403D01*
X185233500Y-120312139D01*
X185161219Y-120323588D01*
X184955181Y-120390534D01*
X184762160Y-120488883D01*
X184586899Y-120616219D01*
X184586898Y-120616219D01*
X184433719Y-120769398D01*
X184433719Y-120769399D01*
X184306383Y-120944660D01*
X184208034Y-121137681D01*
X184141088Y-121343719D01*
X184129640Y-121416000D01*
X182061856Y-121416000D01*
X182051610Y-121338171D01*
X181994719Y-121125854D01*
X181910603Y-120922779D01*
X181905959Y-120914736D01*
X181800700Y-120732421D01*
X181666891Y-120558038D01*
X181666885Y-120558031D01*
X181511468Y-120402614D01*
X181511461Y-120402608D01*
X181337078Y-120268799D01*
X181146724Y-120158898D01*
X181146714Y-120158894D01*
X180943650Y-120074782D01*
X180731325Y-120017889D01*
X180513404Y-119989200D01*
X180513403Y-119989200D01*
X180293597Y-119989200D01*
X180293596Y-119989200D01*
X180075674Y-120017889D01*
X179863349Y-120074782D01*
X179660285Y-120158894D01*
X179660275Y-120158898D01*
X179469921Y-120268799D01*
X179295538Y-120402608D01*
X179295531Y-120402614D01*
X179140114Y-120558031D01*
X179140108Y-120558038D01*
X179006299Y-120732421D01*
X178896398Y-120922775D01*
X178896394Y-120922785D01*
X178812282Y-121125849D01*
X178755389Y-121338174D01*
X178726700Y-121556096D01*
X178726700Y-121775903D01*
X178755389Y-121993825D01*
X178812282Y-122206150D01*
X178896394Y-122409214D01*
X178896398Y-122409224D01*
X179006299Y-122599578D01*
X179140108Y-122773961D01*
X179140114Y-122773968D01*
X179295535Y-122929389D01*
X179304485Y-122936256D01*
X179345688Y-122992683D01*
X179353000Y-123034633D01*
X179353000Y-124817469D01*
X179393368Y-125020412D01*
X179393370Y-125020420D01*
X179461334Y-125184500D01*
X179472559Y-125211598D01*
X179512031Y-125270672D01*
X179587524Y-125383657D01*
X179738157Y-125534290D01*
X179738176Y-125534307D01*
X179841900Y-125638031D01*
X179860846Y-125656977D01*
X180032895Y-125771937D01*
X180032901Y-125771940D01*
X180032902Y-125771941D01*
X180224080Y-125851130D01*
X180427030Y-125891499D01*
X180427034Y-125891500D01*
X180427035Y-125891500D01*
X180633966Y-125891500D01*
X180633967Y-125891499D01*
X180836920Y-125851130D01*
X180913527Y-125819397D01*
X180982995Y-125811929D01*
X181045474Y-125843204D01*
X181078020Y-125893004D01*
X181125509Y-126028719D01*
X181181362Y-126117608D01*
X181221484Y-126181462D01*
X181349038Y-126309016D01*
X181501778Y-126404989D01*
X181539459Y-126418174D01*
X181672045Y-126464568D01*
X181672050Y-126464569D01*
X181762546Y-126474765D01*
X181806340Y-126479699D01*
X181806343Y-126479700D01*
X181806346Y-126479700D01*
X183580467Y-126479700D01*
X183647506Y-126499385D01*
X183693261Y-126552189D01*
X183703205Y-126621347D01*
X183695029Y-126651147D01*
X183690954Y-126660988D01*
X183680917Y-126685218D01*
X183621010Y-126908793D01*
X183590800Y-127138269D01*
X183590800Y-127369730D01*
X183618278Y-127578455D01*
X183621011Y-127599210D01*
X183624540Y-127612379D01*
X183680918Y-127822784D01*
X183769492Y-128036621D01*
X183769497Y-128036632D01*
X183770834Y-128038947D01*
X183771022Y-128039725D01*
X183771290Y-128040267D01*
X183771168Y-128040326D01*
X183787307Y-128106847D01*
X183764454Y-128172874D01*
X183709533Y-128216065D01*
X183639980Y-128222706D01*
X183601447Y-128208334D01*
X183599132Y-128206997D01*
X183599121Y-128206992D01*
X183385284Y-128118418D01*
X183161706Y-128058510D01*
X182932231Y-128028300D01*
X182932230Y-128028300D01*
X182700770Y-128028300D01*
X182700769Y-128028300D01*
X182471293Y-128058510D01*
X182247715Y-128118418D01*
X182033878Y-128206992D01*
X182033867Y-128206997D01*
X181833432Y-128322719D01*
X181833416Y-128322730D01*
X181649796Y-128463626D01*
X181649789Y-128463632D01*
X181486132Y-128627289D01*
X181486126Y-128627296D01*
X181434187Y-128694986D01*
X181377760Y-128736189D01*
X181335811Y-128743500D01*
X177111500Y-128743500D01*
X177044461Y-128723815D01*
X176998706Y-128671011D01*
X176987500Y-128619500D01*
X176987500Y-127891581D01*
X177007185Y-127824542D01*
X177036012Y-127793206D01*
X177065381Y-127770672D01*
X177223672Y-127612381D01*
X177359947Y-127434783D01*
X177471876Y-127240917D01*
X177557542Y-127034100D01*
X177615481Y-126817871D01*
X177644700Y-126595929D01*
X177644700Y-126372071D01*
X177615481Y-126150129D01*
X177557542Y-125933900D01*
X177471876Y-125727083D01*
X177471874Y-125727080D01*
X177471872Y-125727075D01*
X177363770Y-125539839D01*
X177359947Y-125533217D01*
X177315353Y-125475101D01*
X177223673Y-125355620D01*
X177223668Y-125355614D01*
X177189735Y-125321682D01*
X177156249Y-125260360D01*
X177161233Y-125190668D01*
X177189735Y-125146318D01*
X177223668Y-125112385D01*
X177223672Y-125112381D01*
X177359947Y-124934783D01*
X177471876Y-124740917D01*
X177557542Y-124534100D01*
X177615481Y-124317871D01*
X177644700Y-124095929D01*
X177644700Y-123872071D01*
X177615481Y-123650129D01*
X177557542Y-123433900D01*
X177471876Y-123227083D01*
X177471874Y-123227080D01*
X177471872Y-123227075D01*
X177366979Y-123045398D01*
X177359947Y-123033217D01*
X177280278Y-122929390D01*
X177223673Y-122855620D01*
X177223667Y-122855613D01*
X177131168Y-122763114D01*
X177097683Y-122701791D01*
X177102667Y-122632099D01*
X177143367Y-122577054D01*
X177143650Y-122576836D01*
X177150381Y-122571672D01*
X177308672Y-122413381D01*
X177444947Y-122235783D01*
X177556876Y-122041917D01*
X177642542Y-121835100D01*
X177700481Y-121618871D01*
X177729700Y-121396929D01*
X177729700Y-121173071D01*
X177700481Y-120951129D01*
X177642542Y-120734900D01*
X177556876Y-120528083D01*
X177556874Y-120528080D01*
X177556872Y-120528075D01*
X177444951Y-120334224D01*
X177444947Y-120334217D01*
X177308672Y-120156619D01*
X177308667Y-120156613D01*
X177150386Y-119998332D01*
X177150379Y-119998326D01*
X176972791Y-119862059D01*
X176972789Y-119862057D01*
X176972783Y-119862053D01*
X176972778Y-119862050D01*
X176972775Y-119862048D01*
X176778924Y-119750127D01*
X176778913Y-119750122D01*
X176572104Y-119664459D01*
X176355867Y-119606518D01*
X176300515Y-119599231D01*
X176236618Y-119570964D01*
X176198148Y-119512639D01*
X176197317Y-119442774D01*
X176229018Y-119388613D01*
X177203421Y-118414211D01*
X177376633Y-118241000D01*
X183812140Y-118241000D01*
X184826403Y-118241000D01*
X184775461Y-118329234D01*
X184746900Y-118435824D01*
X184746900Y-118546176D01*
X184775461Y-118652766D01*
X184826403Y-118741000D01*
X183812140Y-118741000D01*
X183823588Y-118813280D01*
X183890534Y-119019318D01*
X183988883Y-119212339D01*
X184116219Y-119387600D01*
X184116219Y-119387601D01*
X184269398Y-119540780D01*
X184444660Y-119668116D01*
X184637681Y-119766465D01*
X184843714Y-119833410D01*
X184915999Y-119844859D01*
X184916000Y-119844859D01*
X184916000Y-118830596D01*
X185004234Y-118881539D01*
X185110824Y-118910100D01*
X185221176Y-118910100D01*
X185327766Y-118881539D01*
X185416000Y-118830596D01*
X185416000Y-119844859D01*
X185488284Y-119833410D01*
X185488287Y-119833410D01*
X185694318Y-119766465D01*
X185887339Y-119668116D01*
X186062600Y-119540780D01*
X186062601Y-119540780D01*
X186215780Y-119387601D01*
X186215780Y-119387600D01*
X186343116Y-119212339D01*
X186441465Y-119019318D01*
X186508411Y-118813280D01*
X186519860Y-118741000D01*
X185505597Y-118741000D01*
X185556539Y-118652766D01*
X185585100Y-118546176D01*
X185585100Y-118435824D01*
X185556539Y-118329234D01*
X185505597Y-118241000D01*
X186519860Y-118241000D01*
X186987140Y-118241000D01*
X188001403Y-118241000D01*
X187950461Y-118329234D01*
X187921900Y-118435824D01*
X187921900Y-118546176D01*
X187950461Y-118652766D01*
X188001403Y-118741000D01*
X186987140Y-118741000D01*
X186998588Y-118813280D01*
X187065534Y-119019318D01*
X187163883Y-119212339D01*
X187291219Y-119387600D01*
X187291219Y-119387601D01*
X187444398Y-119540780D01*
X187619660Y-119668116D01*
X187812681Y-119766465D01*
X188018714Y-119833410D01*
X188090999Y-119844859D01*
X188091000Y-119844859D01*
X188091000Y-118830596D01*
X188179234Y-118881539D01*
X188285824Y-118910100D01*
X188396176Y-118910100D01*
X188502766Y-118881539D01*
X188591000Y-118830596D01*
X188591000Y-119844859D01*
X188663284Y-119833410D01*
X188663287Y-119833410D01*
X188869318Y-119766465D01*
X189062339Y-119668116D01*
X189237600Y-119540780D01*
X189237601Y-119540780D01*
X189390780Y-119387601D01*
X189390780Y-119387600D01*
X189518116Y-119212339D01*
X189616465Y-119019318D01*
X189683411Y-118813280D01*
X189694860Y-118741000D01*
X188680597Y-118741000D01*
X188731539Y-118652766D01*
X188760100Y-118546176D01*
X188760100Y-118435824D01*
X188731539Y-118329234D01*
X188680597Y-118241000D01*
X189694860Y-118241000D01*
X189683411Y-118168719D01*
X189616465Y-117962681D01*
X189518116Y-117769660D01*
X189390780Y-117594399D01*
X189390780Y-117594398D01*
X189237601Y-117441219D01*
X189062339Y-117313883D01*
X188869318Y-117215534D01*
X188663280Y-117148588D01*
X188591000Y-117137139D01*
X188591000Y-118151403D01*
X188502766Y-118100461D01*
X188396176Y-118071900D01*
X188285824Y-118071900D01*
X188179234Y-118100461D01*
X188091000Y-118151403D01*
X188091000Y-117137139D01*
X188018719Y-117148588D01*
X187812681Y-117215534D01*
X187619660Y-117313883D01*
X187444399Y-117441219D01*
X187444398Y-117441219D01*
X187291219Y-117594398D01*
X187291219Y-117594399D01*
X187163883Y-117769660D01*
X187065534Y-117962681D01*
X186998588Y-118168719D01*
X186987140Y-118241000D01*
X186519860Y-118241000D01*
X186508411Y-118168719D01*
X186441465Y-117962681D01*
X186343116Y-117769660D01*
X186215780Y-117594399D01*
X186215780Y-117594398D01*
X186062601Y-117441219D01*
X185887339Y-117313883D01*
X185694318Y-117215534D01*
X185488280Y-117148588D01*
X185416000Y-117137139D01*
X185416000Y-118151403D01*
X185327766Y-118100461D01*
X185221176Y-118071900D01*
X185110824Y-118071900D01*
X185004234Y-118100461D01*
X184916000Y-118151403D01*
X184916000Y-117137139D01*
X184843719Y-117148588D01*
X184637681Y-117215534D01*
X184444660Y-117313883D01*
X184269399Y-117441219D01*
X184269398Y-117441219D01*
X184116219Y-117594398D01*
X184116219Y-117594399D01*
X183988883Y-117769660D01*
X183890534Y-117962681D01*
X183823588Y-118168719D01*
X183812140Y-118241000D01*
X177376633Y-118241000D01*
X177427251Y-118190382D01*
X177599974Y-118017658D01*
X177599977Y-118017655D01*
X177714942Y-117845598D01*
X177778337Y-117692547D01*
X177794130Y-117654420D01*
X177809153Y-117578895D01*
X177829780Y-117475200D01*
X177834501Y-117451467D01*
X177834501Y-117239424D01*
X177834500Y-117239398D01*
X177834500Y-116914509D01*
X177854185Y-116847470D01*
X177891277Y-116811169D01*
X177891053Y-116810860D01*
X177893150Y-116809335D01*
X177893730Y-116808769D01*
X177894978Y-116808003D01*
X177894994Y-116807996D01*
X177895190Y-116807854D01*
X178041494Y-116701558D01*
X178041492Y-116701558D01*
X178041501Y-116701553D01*
X178169553Y-116573501D01*
X178275996Y-116426994D01*
X178358211Y-116265639D01*
X178414171Y-116093409D01*
X178428765Y-116001259D01*
X178442500Y-115914551D01*
X178442500Y-107330077D01*
X179013300Y-107330077D01*
X179013300Y-107553922D01*
X179013301Y-107553939D01*
X179042518Y-107775867D01*
X179100459Y-107992104D01*
X179186122Y-108198913D01*
X179186127Y-108198924D01*
X179298048Y-108392775D01*
X179298059Y-108392792D01*
X179387622Y-108509514D01*
X179412816Y-108574684D01*
X179398777Y-108643129D01*
X179387622Y-108660486D01*
X179298059Y-108777207D01*
X179298048Y-108777224D01*
X179186127Y-108971075D01*
X179186122Y-108971086D01*
X179100459Y-109177895D01*
X179042518Y-109394132D01*
X179013301Y-109616060D01*
X179013300Y-109616077D01*
X179013300Y-109839922D01*
X179013301Y-109839939D01*
X179042518Y-110061867D01*
X179100459Y-110278104D01*
X179186122Y-110484913D01*
X179186127Y-110484924D01*
X179298048Y-110678775D01*
X179298059Y-110678792D01*
X179387622Y-110795514D01*
X179412816Y-110860684D01*
X179398777Y-110929129D01*
X179387622Y-110946486D01*
X179298059Y-111063207D01*
X179298048Y-111063224D01*
X179186127Y-111257075D01*
X179186122Y-111257086D01*
X179100459Y-111463895D01*
X179042518Y-111680132D01*
X179013638Y-111899500D01*
X179013300Y-111902071D01*
X179013300Y-112125929D01*
X179013300Y-112125934D01*
X179013301Y-112125939D01*
X179042518Y-112347867D01*
X179100459Y-112564104D01*
X179186122Y-112770913D01*
X179186127Y-112770924D01*
X179298048Y-112964775D01*
X179298059Y-112964791D01*
X179434326Y-113142379D01*
X179434332Y-113142386D01*
X179592617Y-113300671D01*
X179605293Y-113310397D01*
X179646496Y-113366824D01*
X179650652Y-113436570D01*
X179617491Y-113496454D01*
X179561325Y-113552620D01*
X179425059Y-113730208D01*
X179425048Y-113730224D01*
X179313127Y-113924075D01*
X179313122Y-113924086D01*
X179227459Y-114130895D01*
X179169518Y-114347132D01*
X179140301Y-114569060D01*
X179140300Y-114569077D01*
X179140300Y-114792922D01*
X179140301Y-114792939D01*
X179169518Y-115014867D01*
X179227459Y-115231104D01*
X179313122Y-115437913D01*
X179313127Y-115437924D01*
X179425048Y-115631775D01*
X179425059Y-115631791D01*
X179561326Y-115809379D01*
X179561332Y-115809386D01*
X179719613Y-115967667D01*
X179719620Y-115967673D01*
X179795096Y-116025587D01*
X179897217Y-116103947D01*
X179897224Y-116103951D01*
X180091075Y-116215872D01*
X180091080Y-116215874D01*
X180091083Y-116215876D01*
X180297900Y-116301542D01*
X180514129Y-116359481D01*
X180736071Y-116388700D01*
X180736078Y-116388700D01*
X180959922Y-116388700D01*
X180959929Y-116388700D01*
X181181871Y-116359481D01*
X181398100Y-116301542D01*
X181604917Y-116215876D01*
X181798783Y-116103947D01*
X181976381Y-115967672D01*
X182134672Y-115809381D01*
X182270947Y-115631783D01*
X182382876Y-115437917D01*
X182468542Y-115231100D01*
X182526481Y-115014871D01*
X182555700Y-114792929D01*
X182555700Y-114685500D01*
X182575385Y-114618461D01*
X182628189Y-114572706D01*
X182679700Y-114561500D01*
X183893785Y-114561500D01*
X183960824Y-114581185D01*
X183981461Y-114597814D01*
X184041347Y-114657700D01*
X184058039Y-114674392D01*
X184232421Y-114808200D01*
X184422775Y-114918101D01*
X184422776Y-114918101D01*
X184422779Y-114918103D01*
X184625854Y-115002219D01*
X184838171Y-115059110D01*
X185001615Y-115080627D01*
X185056096Y-115087800D01*
X185056097Y-115087800D01*
X185275904Y-115087800D01*
X185319488Y-115082062D01*
X185493829Y-115059110D01*
X185706146Y-115002219D01*
X185909221Y-114918103D01*
X186099579Y-114808200D01*
X186273963Y-114674390D01*
X186429390Y-114518963D01*
X186563200Y-114344579D01*
X186646113Y-114200968D01*
X186696680Y-114152754D01*
X186765287Y-114139530D01*
X186830151Y-114165498D01*
X186860887Y-114200969D01*
X186943799Y-114344578D01*
X187077608Y-114518961D01*
X187077614Y-114518968D01*
X187233031Y-114674385D01*
X187233038Y-114674391D01*
X187407421Y-114808200D01*
X187597775Y-114918101D01*
X187597776Y-114918101D01*
X187597779Y-114918103D01*
X187800854Y-115002219D01*
X188013171Y-115059110D01*
X188176615Y-115080627D01*
X188231096Y-115087800D01*
X188231097Y-115087800D01*
X188450904Y-115087800D01*
X188494488Y-115082062D01*
X188668829Y-115059110D01*
X188881146Y-115002219D01*
X189084221Y-114918103D01*
X189274579Y-114808200D01*
X189448963Y-114674390D01*
X189525535Y-114597817D01*
X189586856Y-114564334D01*
X189613215Y-114561500D01*
X191293319Y-114561500D01*
X191293343Y-114561501D01*
X191298454Y-114561501D01*
X191479545Y-114561501D01*
X191479546Y-114561501D01*
X191658409Y-114533171D01*
X191830639Y-114477211D01*
X191991994Y-114394996D01*
X192012835Y-114379854D01*
X192138501Y-114288553D01*
X192266553Y-114160501D01*
X192266554Y-114160499D01*
X192273610Y-114153443D01*
X192273615Y-114153436D01*
X192445935Y-113981116D01*
X192507258Y-113947634D01*
X192533615Y-113944800D01*
X192641904Y-113944800D01*
X192685488Y-113939062D01*
X192859829Y-113916110D01*
X193072146Y-113859219D01*
X193275221Y-113775103D01*
X193465579Y-113665200D01*
X193639963Y-113531390D01*
X193795390Y-113375963D01*
X193929200Y-113201579D01*
X194039103Y-113011221D01*
X194123219Y-112808146D01*
X194180110Y-112595829D01*
X194208800Y-112377903D01*
X194208800Y-112158097D01*
X194206257Y-112138784D01*
X194195723Y-112058768D01*
X194180110Y-111940171D01*
X194123219Y-111727854D01*
X194039103Y-111524779D01*
X194003867Y-111463749D01*
X193929200Y-111334421D01*
X193795391Y-111160038D01*
X193795385Y-111160031D01*
X193639968Y-111004614D01*
X193639961Y-111004608D01*
X193465578Y-110870799D01*
X193275224Y-110760898D01*
X193275214Y-110760894D01*
X193072150Y-110676782D01*
X192859825Y-110619889D01*
X192641904Y-110591200D01*
X192641903Y-110591200D01*
X192422097Y-110591200D01*
X192422096Y-110591200D01*
X192204174Y-110619889D01*
X191991849Y-110676782D01*
X191788785Y-110760894D01*
X191788775Y-110760898D01*
X191598421Y-110870799D01*
X191424038Y-111004608D01*
X191424031Y-111004614D01*
X191268614Y-111160031D01*
X191268608Y-111160038D01*
X191134799Y-111334421D01*
X191024898Y-111524775D01*
X191024894Y-111524785D01*
X190940782Y-111727849D01*
X190883889Y-111940174D01*
X190855912Y-112152685D01*
X190827646Y-112216582D01*
X190769321Y-112255053D01*
X190732973Y-112260500D01*
X189615500Y-112260500D01*
X189548461Y-112240815D01*
X189502706Y-112188011D01*
X189491500Y-112136500D01*
X189491500Y-107997233D01*
X189505016Y-107940937D01*
X189534209Y-107883643D01*
X189534212Y-107883636D01*
X189569226Y-107775871D01*
X189590171Y-107711409D01*
X189595791Y-107675926D01*
X189618501Y-107532547D01*
X189618501Y-107351454D01*
X189590171Y-107172591D01*
X189562191Y-107086476D01*
X189534212Y-107000363D01*
X189534211Y-107000360D01*
X189451995Y-106839004D01*
X189432958Y-106812803D01*
X189432957Y-106812801D01*
X189345553Y-106692499D01*
X189217501Y-106564447D01*
X189217499Y-106564445D01*
X189217494Y-106564441D01*
X189070997Y-106458006D01*
X189070996Y-106458005D01*
X189070994Y-106458004D01*
X189019300Y-106431664D01*
X188909639Y-106375788D01*
X188909636Y-106375787D01*
X188737410Y-106319829D01*
X188585012Y-106295691D01*
X188558546Y-106291499D01*
X188377453Y-106291499D01*
X188372342Y-106291499D01*
X188372318Y-106291500D01*
X182036915Y-106291500D01*
X181969876Y-106271815D01*
X181949238Y-106255185D01*
X181849381Y-106155328D01*
X181849380Y-106155327D01*
X181849378Y-106155325D01*
X181671791Y-106019059D01*
X181671789Y-106019057D01*
X181671783Y-106019053D01*
X181671778Y-106019050D01*
X181671775Y-106019048D01*
X181477924Y-105907127D01*
X181477913Y-105907122D01*
X181271104Y-105821459D01*
X181054867Y-105763518D01*
X180832939Y-105734301D01*
X180832934Y-105734300D01*
X180832929Y-105734300D01*
X180609071Y-105734300D01*
X180609065Y-105734300D01*
X180609060Y-105734301D01*
X180387132Y-105763518D01*
X180170895Y-105821459D01*
X179964086Y-105907122D01*
X179964075Y-105907127D01*
X179770224Y-106019048D01*
X179770208Y-106019059D01*
X179592620Y-106155326D01*
X179592613Y-106155332D01*
X179434332Y-106313613D01*
X179434326Y-106313620D01*
X179298059Y-106491208D01*
X179298048Y-106491224D01*
X179186127Y-106685075D01*
X179186122Y-106685086D01*
X179100459Y-106891895D01*
X179042518Y-107108132D01*
X179013301Y-107330060D01*
X179013300Y-107330077D01*
X178442500Y-107330077D01*
X178442500Y-106267681D01*
X178442501Y-106267656D01*
X178442501Y-106081454D01*
X178436414Y-106043023D01*
X178414171Y-105902591D01*
X178381013Y-105800539D01*
X178358212Y-105730363D01*
X178358210Y-105730360D01*
X178329015Y-105673060D01*
X178315500Y-105616765D01*
X178315500Y-105206152D01*
X178335185Y-105139113D01*
X178352865Y-105119499D01*
X178351829Y-105118463D01*
X178521587Y-104948704D01*
X178521589Y-104948702D01*
X178521592Y-104948699D01*
X178665273Y-104761450D01*
X178783284Y-104557049D01*
X178873606Y-104338993D01*
X178934693Y-104111014D01*
X178965500Y-103877011D01*
X178965500Y-103640989D01*
X178934693Y-103406986D01*
X178873606Y-103179007D01*
X178783284Y-102960951D01*
X178783282Y-102960948D01*
X178783280Y-102960943D01*
X178720447Y-102852115D01*
X178665273Y-102756550D01*
X178561619Y-102621465D01*
X178521593Y-102569302D01*
X178521588Y-102569296D01*
X178351829Y-102399538D01*
X178353040Y-102398326D01*
X178338811Y-102375241D01*
X178320523Y-102346783D01*
X178320295Y-102345200D01*
X178319887Y-102344538D01*
X178315500Y-102311848D01*
X178315500Y-102125096D01*
X180441200Y-102125096D01*
X180441200Y-102344903D01*
X180464661Y-102523116D01*
X180469890Y-102562829D01*
X180491894Y-102644949D01*
X180526782Y-102775150D01*
X180610894Y-102978214D01*
X180610898Y-102978224D01*
X180720799Y-103168578D01*
X180854608Y-103342961D01*
X180854614Y-103342968D01*
X181010031Y-103498385D01*
X181010038Y-103498391D01*
X181184421Y-103632200D01*
X181374775Y-103742101D01*
X181374776Y-103742101D01*
X181374779Y-103742103D01*
X181577854Y-103826219D01*
X181790171Y-103883110D01*
X181953615Y-103904627D01*
X182008096Y-103911800D01*
X182008097Y-103911800D01*
X182227904Y-103911800D01*
X182271488Y-103906062D01*
X182445829Y-103883110D01*
X182658146Y-103826219D01*
X182861221Y-103742103D01*
X183051579Y-103632200D01*
X183225963Y-103498390D01*
X183275757Y-103448596D01*
X183352535Y-103371819D01*
X183379462Y-103357115D01*
X183405281Y-103340523D01*
X183411481Y-103339631D01*
X183413858Y-103338334D01*
X183440216Y-103335500D01*
X183673084Y-103335500D01*
X183740123Y-103355185D01*
X183760765Y-103371819D01*
X183910613Y-103521667D01*
X183910620Y-103521673D01*
X183968398Y-103566007D01*
X184088217Y-103657947D01*
X184088224Y-103657951D01*
X184282075Y-103769872D01*
X184282080Y-103769874D01*
X184282083Y-103769876D01*
X184488900Y-103855542D01*
X184705129Y-103913481D01*
X184927071Y-103942700D01*
X184927078Y-103942700D01*
X185150922Y-103942700D01*
X185150929Y-103942700D01*
X185372871Y-103913481D01*
X185589100Y-103855542D01*
X185795917Y-103769876D01*
X185989783Y-103657947D01*
X186167381Y-103521672D01*
X186325672Y-103363381D01*
X186461947Y-103185783D01*
X186573876Y-102991917D01*
X186659542Y-102785100D01*
X186717481Y-102568871D01*
X186746700Y-102346929D01*
X186746700Y-102123071D01*
X186717481Y-101901129D01*
X186659542Y-101684900D01*
X186573876Y-101478083D01*
X186573874Y-101478080D01*
X186573872Y-101478075D01*
X186461951Y-101284224D01*
X186461947Y-101284217D01*
X186350121Y-101138482D01*
X186325673Y-101106620D01*
X186325667Y-101106613D01*
X186167386Y-100948332D01*
X186167379Y-100948326D01*
X185989791Y-100812059D01*
X185989789Y-100812057D01*
X185989783Y-100812053D01*
X185989778Y-100812050D01*
X185989775Y-100812048D01*
X185795924Y-100700127D01*
X185795913Y-100700122D01*
X185589104Y-100614459D01*
X185388213Y-100560630D01*
X185372871Y-100556519D01*
X185372870Y-100556518D01*
X185372867Y-100556518D01*
X185150939Y-100527301D01*
X185150934Y-100527300D01*
X185150929Y-100527300D01*
X184927071Y-100527300D01*
X184927065Y-100527300D01*
X184927060Y-100527301D01*
X184705132Y-100556518D01*
X184488895Y-100614459D01*
X184282086Y-100700122D01*
X184282075Y-100700127D01*
X184088224Y-100812048D01*
X184088208Y-100812059D01*
X183910620Y-100948326D01*
X183910613Y-100948332D01*
X183760765Y-101098181D01*
X183733837Y-101112884D01*
X183708019Y-101129477D01*
X183701818Y-101130368D01*
X183699442Y-101131666D01*
X183673084Y-101134500D01*
X183440216Y-101134500D01*
X183373177Y-101114815D01*
X183352535Y-101098181D01*
X183225968Y-100971614D01*
X183225961Y-100971608D01*
X183051578Y-100837799D01*
X182861224Y-100727898D01*
X182861214Y-100727894D01*
X182658150Y-100643782D01*
X182445825Y-100586889D01*
X182227904Y-100558200D01*
X182227903Y-100558200D01*
X182008097Y-100558200D01*
X182008096Y-100558200D01*
X181790174Y-100586889D01*
X181577849Y-100643782D01*
X181374785Y-100727894D01*
X181374775Y-100727898D01*
X181184421Y-100837799D01*
X181010038Y-100971608D01*
X181010031Y-100971614D01*
X180854614Y-101127031D01*
X180854608Y-101127038D01*
X180720799Y-101301421D01*
X180610898Y-101491775D01*
X180610894Y-101491785D01*
X180526782Y-101694849D01*
X180469889Y-101907174D01*
X180441200Y-102125096D01*
X178315500Y-102125096D01*
X178315500Y-98774682D01*
X178315501Y-98774657D01*
X178315501Y-98588448D01*
X178287172Y-98409590D01*
X178252172Y-98301873D01*
X178231211Y-98237361D01*
X178231209Y-98237358D01*
X178231209Y-98237356D01*
X178220315Y-98215976D01*
X178206800Y-98159681D01*
X178206800Y-97122743D01*
X178206799Y-97122739D01*
X178199159Y-97054921D01*
X178198052Y-97045096D01*
X180441200Y-97045096D01*
X180441200Y-97264903D01*
X180452983Y-97354410D01*
X180469890Y-97482829D01*
X180476651Y-97508060D01*
X180526782Y-97695150D01*
X180610894Y-97898214D01*
X180610898Y-97898224D01*
X180720799Y-98088578D01*
X180854608Y-98262961D01*
X180854614Y-98262968D01*
X181010031Y-98418385D01*
X181010038Y-98418391D01*
X181184421Y-98552200D01*
X181374775Y-98662101D01*
X181374776Y-98662101D01*
X181374779Y-98662103D01*
X181577854Y-98746219D01*
X181790171Y-98803110D01*
X181953615Y-98824627D01*
X182008096Y-98831800D01*
X182008097Y-98831800D01*
X182227904Y-98831800D01*
X182271488Y-98826062D01*
X182445829Y-98803110D01*
X182658146Y-98746219D01*
X182861221Y-98662103D01*
X183051579Y-98552200D01*
X183225963Y-98418390D01*
X183258602Y-98385750D01*
X183319923Y-98352265D01*
X183379326Y-98355236D01*
X183379560Y-98354264D01*
X183384287Y-98355398D01*
X183384299Y-98355402D01*
X183555389Y-98382500D01*
X183555390Y-98382500D01*
X183728610Y-98382500D01*
X183728611Y-98382500D01*
X183899701Y-98355402D01*
X184064445Y-98301873D01*
X184218788Y-98223232D01*
X184358928Y-98121414D01*
X184481414Y-97998928D01*
X184583232Y-97858788D01*
X184661873Y-97704445D01*
X184715402Y-97539701D01*
X184742500Y-97368611D01*
X184742500Y-93403346D01*
X184762185Y-93336307D01*
X184778819Y-93315665D01*
X185110648Y-92983836D01*
X185647500Y-92446985D01*
X185695987Y-92389563D01*
X185783245Y-92231682D01*
X185833183Y-92058343D01*
X185839500Y-91983453D01*
X185839500Y-90706052D01*
X185839498Y-90706031D01*
X185833664Y-90636861D01*
X185833183Y-90631157D01*
X185783244Y-90457818D01*
X185695987Y-90299937D01*
X185695986Y-90299935D01*
X185647500Y-90242517D01*
X185647499Y-90242515D01*
X185647494Y-90242510D01*
X184744235Y-89339250D01*
X184696581Y-89299011D01*
X184686816Y-89290765D01*
X184686815Y-89290764D01*
X184528930Y-89203504D01*
X184355596Y-89153568D01*
X184355597Y-89153568D01*
X184355593Y-89153567D01*
X184355589Y-89153566D01*
X184355586Y-89153566D01*
X184280718Y-89147250D01*
X184280703Y-89147250D01*
X183003302Y-89147250D01*
X183003286Y-89147250D01*
X182928409Y-89153566D01*
X182755068Y-89203506D01*
X182597185Y-89290763D01*
X182539767Y-89339249D01*
X182539752Y-89339263D01*
X181636506Y-90242508D01*
X181636497Y-90242518D01*
X181588015Y-90299933D01*
X181588014Y-90299934D01*
X181500754Y-90457819D01*
X181450818Y-90631153D01*
X181450816Y-90631163D01*
X181444500Y-90706031D01*
X181444500Y-91983463D01*
X181450816Y-92058340D01*
X181450817Y-92058343D01*
X181500756Y-92231682D01*
X181544384Y-92310622D01*
X181588013Y-92389564D01*
X181636499Y-92446982D01*
X181636513Y-92446997D01*
X182505181Y-93315666D01*
X182538666Y-93376989D01*
X182541500Y-93403347D01*
X182541500Y-95378090D01*
X182521815Y-95445129D01*
X182469011Y-95490884D01*
X182401315Y-95501029D01*
X182227904Y-95478200D01*
X182227903Y-95478200D01*
X182008097Y-95478200D01*
X182008096Y-95478200D01*
X181790174Y-95506889D01*
X181577849Y-95563782D01*
X181374785Y-95647894D01*
X181374775Y-95647898D01*
X181184421Y-95757799D01*
X181010038Y-95891608D01*
X181010031Y-95891614D01*
X180854614Y-96047031D01*
X180854608Y-96047038D01*
X180720799Y-96221421D01*
X180610898Y-96411775D01*
X180610894Y-96411785D01*
X180526782Y-96614849D01*
X180469889Y-96827174D01*
X180441200Y-97045096D01*
X178198052Y-97045096D01*
X178191669Y-96988449D01*
X178191668Y-96988445D01*
X178185753Y-96971542D01*
X178132089Y-96818178D01*
X178036116Y-96665438D01*
X177908562Y-96537884D01*
X177908559Y-96537882D01*
X177875530Y-96517128D01*
X177829239Y-96464793D01*
X177818592Y-96395740D01*
X177823569Y-96373825D01*
X177857402Y-96269701D01*
X177884500Y-96098611D01*
X177884500Y-95925389D01*
X177857402Y-95754299D01*
X177805380Y-95594193D01*
X177804318Y-95590427D01*
X177767960Y-95519071D01*
X177725232Y-95435212D01*
X177623414Y-95295072D01*
X177452928Y-95124586D01*
X177312788Y-95022768D01*
X177158445Y-94944127D01*
X176993701Y-94890598D01*
X176993699Y-94890597D01*
X176993698Y-94890597D01*
X176862271Y-94869781D01*
X176822611Y-94863500D01*
X176822610Y-94863500D01*
X172082636Y-94863500D01*
X172015597Y-94843815D01*
X171969842Y-94791011D01*
X171965594Y-94780454D01*
X171958597Y-94760457D01*
X171939989Y-94707278D01*
X171922985Y-94680217D01*
X171867209Y-94591449D01*
X171844016Y-94554538D01*
X171716462Y-94426984D01*
X171563716Y-94331007D01*
X171557447Y-94327988D01*
X171558476Y-94325850D01*
X171510751Y-94291603D01*
X171485019Y-94226644D01*
X171484500Y-94215306D01*
X171484500Y-93863581D01*
X171504185Y-93796542D01*
X171533012Y-93765206D01*
X171562381Y-93742672D01*
X171720672Y-93584381D01*
X171743205Y-93555014D01*
X171799633Y-93513811D01*
X171841582Y-93506500D01*
X172450868Y-93506500D01*
X172517907Y-93526185D01*
X172563662Y-93578989D01*
X172567910Y-93589546D01*
X172611010Y-93712721D01*
X172667379Y-93802431D01*
X172706984Y-93865462D01*
X172834538Y-93993016D01*
X172924880Y-94049782D01*
X172978486Y-94083465D01*
X172987278Y-94088989D01*
X173068478Y-94117402D01*
X173157545Y-94148568D01*
X173157550Y-94148569D01*
X173248046Y-94158765D01*
X173291840Y-94163699D01*
X173291843Y-94163700D01*
X173291846Y-94163700D01*
X175196157Y-94163700D01*
X175196158Y-94163699D01*
X175263304Y-94156134D01*
X175330449Y-94148569D01*
X175330452Y-94148568D01*
X175330455Y-94148568D01*
X175500722Y-94088989D01*
X175653462Y-93993016D01*
X175781016Y-93865462D01*
X175876989Y-93712722D01*
X175936568Y-93542455D01*
X175939796Y-93513811D01*
X175951699Y-93408160D01*
X175951700Y-93408156D01*
X175951700Y-91503843D01*
X175951699Y-91503839D01*
X175936569Y-91369550D01*
X175936568Y-91369545D01*
X175876988Y-91199276D01*
X175826972Y-91119677D01*
X175781016Y-91046538D01*
X175653462Y-90918984D01*
X175570178Y-90866653D01*
X175500723Y-90823011D01*
X175330454Y-90763431D01*
X175330449Y-90763430D01*
X175196160Y-90748300D01*
X175196154Y-90748300D01*
X173291846Y-90748300D01*
X173291839Y-90748300D01*
X173157550Y-90763430D01*
X173157545Y-90763431D01*
X172987276Y-90823011D01*
X172834537Y-90918984D01*
X172706984Y-91046537D01*
X172611010Y-91199278D01*
X172567910Y-91322454D01*
X172527188Y-91379230D01*
X172462236Y-91404978D01*
X172450868Y-91405500D01*
X171841582Y-91405500D01*
X171774543Y-91385815D01*
X171743205Y-91356985D01*
X171720671Y-91327617D01*
X171562386Y-91169332D01*
X171562379Y-91169326D01*
X171384791Y-91033059D01*
X171384789Y-91033057D01*
X171384783Y-91033053D01*
X171384778Y-91033050D01*
X171384775Y-91033048D01*
X171190924Y-90921127D01*
X171190913Y-90921122D01*
X170984104Y-90835459D01*
X170767867Y-90777518D01*
X170545939Y-90748301D01*
X170545934Y-90748300D01*
X170545929Y-90748300D01*
X170322071Y-90748300D01*
X170322065Y-90748300D01*
X170322060Y-90748301D01*
X170100132Y-90777518D01*
X169883895Y-90835459D01*
X169677086Y-90921122D01*
X169677075Y-90921127D01*
X169483224Y-91033048D01*
X169483208Y-91033059D01*
X169305620Y-91169326D01*
X169305613Y-91169332D01*
X169147332Y-91327613D01*
X169147326Y-91327620D01*
X169011059Y-91505208D01*
X169011048Y-91505224D01*
X168899127Y-91699075D01*
X168899122Y-91699086D01*
X168813459Y-91905895D01*
X168755518Y-92122132D01*
X168726301Y-92344060D01*
X168726300Y-92344077D01*
X168726300Y-92567922D01*
X168726301Y-92567939D01*
X168755518Y-92789867D01*
X168813459Y-93006104D01*
X168899122Y-93212913D01*
X168899127Y-93212924D01*
X169011048Y-93406775D01*
X169011059Y-93406791D01*
X169147326Y-93584379D01*
X169147332Y-93584386D01*
X169305613Y-93742667D01*
X169305617Y-93742670D01*
X169305619Y-93742672D01*
X169334986Y-93765205D01*
X169337233Y-93768283D01*
X169340703Y-93769868D01*
X169357677Y-93796281D01*
X169376188Y-93821631D01*
X169377013Y-93826369D01*
X169378477Y-93828646D01*
X169383500Y-93863581D01*
X169383500Y-94074772D01*
X169374060Y-94122226D01*
X169344737Y-94193015D01*
X169300895Y-94247418D01*
X169244063Y-94268781D01*
X169220550Y-94271430D01*
X169050278Y-94331010D01*
X168897537Y-94426984D01*
X168769984Y-94554537D01*
X168674011Y-94707276D01*
X168614431Y-94877545D01*
X168614430Y-94877550D01*
X168599300Y-95011839D01*
X168599300Y-96916160D01*
X168614430Y-97050449D01*
X168614431Y-97050454D01*
X168674011Y-97220723D01*
X168738061Y-97322657D01*
X168769984Y-97373462D01*
X168897538Y-97501016D01*
X168959105Y-97539701D01*
X169032494Y-97585815D01*
X169050278Y-97596989D01*
X169159076Y-97635059D01*
X169220545Y-97656568D01*
X169220550Y-97656569D01*
X169311046Y-97666765D01*
X169354840Y-97671699D01*
X169354843Y-97671700D01*
X169354846Y-97671700D01*
X171259157Y-97671700D01*
X171259158Y-97671699D01*
X171326304Y-97664134D01*
X171393449Y-97656569D01*
X171393452Y-97656568D01*
X171393455Y-97656568D01*
X171563722Y-97596989D01*
X171716462Y-97501016D01*
X171844016Y-97373462D01*
X171939989Y-97220722D01*
X171965594Y-97147545D01*
X172006316Y-97090770D01*
X172071268Y-97065022D01*
X172082636Y-97064500D01*
X172757084Y-97064500D01*
X172824123Y-97084185D01*
X172869878Y-97136989D01*
X172879822Y-97206147D01*
X172857402Y-97261385D01*
X172812885Y-97322657D01*
X172714534Y-97515681D01*
X172647588Y-97721719D01*
X172636140Y-97794000D01*
X173650403Y-97794000D01*
X173599461Y-97882234D01*
X173570900Y-97988824D01*
X173570900Y-98099176D01*
X173599461Y-98205766D01*
X173650403Y-98294000D01*
X172636140Y-98294000D01*
X172647588Y-98366280D01*
X172714534Y-98572318D01*
X172812883Y-98765339D01*
X172940219Y-98940600D01*
X172940219Y-98940601D01*
X173093398Y-99093780D01*
X173268660Y-99221116D01*
X173461681Y-99319465D01*
X173667714Y-99386410D01*
X173739999Y-99397859D01*
X173740000Y-99397859D01*
X173740000Y-98383596D01*
X173828234Y-98434539D01*
X173934824Y-98463100D01*
X174045176Y-98463100D01*
X174151766Y-98434539D01*
X174240000Y-98383596D01*
X174240000Y-99397859D01*
X174312284Y-99386410D01*
X174312287Y-99386410D01*
X174518318Y-99319465D01*
X174711341Y-99221115D01*
X174735553Y-99203524D01*
X174801359Y-99180042D01*
X174869413Y-99195866D01*
X174918109Y-99245971D01*
X174925481Y-99262880D01*
X174927910Y-99269820D01*
X174927911Y-99269822D01*
X175023884Y-99422562D01*
X175151438Y-99550116D01*
X175304178Y-99646089D01*
X175473539Y-99705351D01*
X175474445Y-99705668D01*
X175474450Y-99705669D01*
X175564946Y-99715865D01*
X175608740Y-99720799D01*
X175608743Y-99720800D01*
X175608746Y-99720800D01*
X175890500Y-99720800D01*
X175957539Y-99740485D01*
X176003294Y-99793289D01*
X176014500Y-99844800D01*
X176014500Y-102311848D01*
X175994815Y-102378887D01*
X175977678Y-102399045D01*
X175978171Y-102399538D01*
X175808415Y-102569292D01*
X175808412Y-102569296D01*
X175785162Y-102599595D01*
X175728733Y-102640796D01*
X175658987Y-102644949D01*
X175607329Y-102616340D01*
X175605888Y-102618028D01*
X175602186Y-102614866D01*
X175411171Y-102476085D01*
X175200802Y-102368897D01*
X174976247Y-102295934D01*
X174875000Y-102279897D01*
X174875000Y-103325988D01*
X174817993Y-103293075D01*
X174690826Y-103259000D01*
X174559174Y-103259000D01*
X174432007Y-103293075D01*
X174375000Y-103325988D01*
X174375000Y-102279897D01*
X174273752Y-102295934D01*
X174049197Y-102368897D01*
X173838825Y-102476087D01*
X173647819Y-102614860D01*
X173644112Y-102618027D01*
X173642656Y-102616322D01*
X173589405Y-102645307D01*
X173519720Y-102640228D01*
X173464835Y-102599592D01*
X173441592Y-102569301D01*
X173441590Y-102569299D01*
X173441587Y-102569295D01*
X173274704Y-102402412D01*
X173274697Y-102402406D01*
X173087454Y-102258730D01*
X173087453Y-102258729D01*
X173087450Y-102258727D01*
X172998755Y-102207519D01*
X172883056Y-102140719D01*
X172883045Y-102140714D01*
X172664993Y-102050394D01*
X172437010Y-101989306D01*
X172203020Y-101958501D01*
X172203017Y-101958500D01*
X172203011Y-101958500D01*
X171966989Y-101958500D01*
X171966983Y-101958500D01*
X171966979Y-101958501D01*
X171732989Y-101989306D01*
X171505006Y-102050394D01*
X171286954Y-102140714D01*
X171286943Y-102140719D01*
X171082545Y-102258730D01*
X170895302Y-102402406D01*
X170895295Y-102402412D01*
X170728412Y-102569295D01*
X170728406Y-102569302D01*
X170584730Y-102756545D01*
X170466719Y-102960943D01*
X170466714Y-102960954D01*
X170376394Y-103179006D01*
X170315306Y-103406989D01*
X170284501Y-103640979D01*
X170284500Y-103640995D01*
X170284500Y-103881083D01*
X170264815Y-103948122D01*
X170248181Y-103968764D01*
X170023764Y-104193182D01*
X169962444Y-104226666D01*
X169936085Y-104229500D01*
X169302656Y-104229500D01*
X169235617Y-104209815D01*
X169189862Y-104157011D01*
X169179918Y-104087853D01*
X169197662Y-104039528D01*
X169242088Y-103968823D01*
X169242089Y-103968822D01*
X169301668Y-103798555D01*
X169303885Y-103778883D01*
X169311699Y-103709523D01*
X169316800Y-103664254D01*
X169316800Y-101821746D01*
X169302503Y-101694854D01*
X169301669Y-101687450D01*
X169301668Y-101687445D01*
X169259320Y-101566421D01*
X169242089Y-101517178D01*
X169209159Y-101464771D01*
X169163458Y-101392038D01*
X169146116Y-101364438D01*
X169018562Y-101236884D01*
X168865822Y-101140911D01*
X168865821Y-101140910D01*
X168865820Y-101140910D01*
X168858880Y-101138481D01*
X168802106Y-101097757D01*
X168776362Y-101032803D01*
X168789821Y-100964242D01*
X168799524Y-100948553D01*
X168817115Y-100924341D01*
X168915465Y-100731318D01*
X168982411Y-100525280D01*
X168993860Y-100453000D01*
X167979597Y-100453000D01*
X168030539Y-100364766D01*
X168059100Y-100258176D01*
X168059100Y-100147824D01*
X168030539Y-100041234D01*
X167979597Y-99953000D01*
X168993860Y-99953000D01*
X168982411Y-99880719D01*
X168915465Y-99674681D01*
X168817116Y-99481660D01*
X168689780Y-99306399D01*
X168689780Y-99306398D01*
X168536601Y-99153219D01*
X168361339Y-99025883D01*
X168168318Y-98927534D01*
X167962280Y-98860588D01*
X167890000Y-98849139D01*
X167890000Y-99863403D01*
X167801766Y-99812461D01*
X167695176Y-99783900D01*
X167584824Y-99783900D01*
X167478234Y-99812461D01*
X167390000Y-99863403D01*
X167390000Y-98849139D01*
X167317719Y-98860588D01*
X167111681Y-98927534D01*
X166918660Y-99025883D01*
X166743399Y-99153219D01*
X166743398Y-99153219D01*
X166590219Y-99306398D01*
X166590219Y-99306399D01*
X166462883Y-99481660D01*
X166364534Y-99674681D01*
X166297588Y-99880719D01*
X166286140Y-99953000D01*
X167300403Y-99953000D01*
X167249461Y-100041234D01*
X167220900Y-100147824D01*
X167220900Y-100258176D01*
X167249461Y-100364766D01*
X167300403Y-100453000D01*
X166286140Y-100453000D01*
X166297588Y-100525280D01*
X166364534Y-100731318D01*
X166462883Y-100924339D01*
X166480478Y-100948556D01*
X166503958Y-101014362D01*
X166488133Y-101082416D01*
X166438027Y-101131111D01*
X166421120Y-101138482D01*
X166414175Y-101140912D01*
X166261437Y-101236884D01*
X166133884Y-101364437D01*
X166037911Y-101517176D01*
X165978331Y-101687445D01*
X165978330Y-101687449D01*
X165967280Y-101785527D01*
X165961338Y-101799665D01*
X165960246Y-101814965D01*
X165948078Y-101831221D01*
X165940213Y-101849941D01*
X165927570Y-101858623D01*
X165918380Y-101870903D01*
X165899356Y-101878000D01*
X165882618Y-101889496D01*
X165867286Y-101889965D01*
X165852918Y-101895326D01*
X165833077Y-101891011D01*
X165812781Y-101891633D01*
X165798613Y-101883518D01*
X165784644Y-101880481D01*
X165756400Y-101859340D01*
X165756388Y-101859333D01*
X165746383Y-101849330D01*
X165746382Y-101849328D01*
X165746374Y-101849321D01*
X165035119Y-101138066D01*
X165001634Y-101076743D01*
X164998800Y-101050385D01*
X164998800Y-100424743D01*
X164998799Y-100424739D01*
X164983669Y-100290450D01*
X164983668Y-100290445D01*
X164924088Y-100120175D01*
X164883786Y-100056036D01*
X164883785Y-100056035D01*
X164852660Y-100006500D01*
X164828116Y-99967438D01*
X164700562Y-99839884D01*
X164626407Y-99793289D01*
X164547823Y-99743911D01*
X164377554Y-99684331D01*
X164377549Y-99684330D01*
X164243260Y-99669200D01*
X164243254Y-99669200D01*
X162400746Y-99669200D01*
X162400739Y-99669200D01*
X162266450Y-99684330D01*
X162266445Y-99684331D01*
X162096176Y-99743911D01*
X161943437Y-99839884D01*
X161815884Y-99967437D01*
X161719912Y-100120175D01*
X161717482Y-100127120D01*
X161676758Y-100183894D01*
X161611804Y-100209638D01*
X161543243Y-100196179D01*
X161527556Y-100186478D01*
X161503339Y-100168883D01*
X161310318Y-100070534D01*
X161104280Y-100003588D01*
X161032000Y-99992139D01*
X161032000Y-101006403D01*
X160943766Y-100955461D01*
X160837176Y-100926900D01*
X160726824Y-100926900D01*
X160620234Y-100955461D01*
X160532000Y-101006403D01*
X160532000Y-99992139D01*
X160459719Y-100003588D01*
X160253681Y-100070534D01*
X160060660Y-100168883D01*
X159885399Y-100296219D01*
X159885398Y-100296219D01*
X159732219Y-100449398D01*
X159732219Y-100449399D01*
X159604883Y-100624660D01*
X159506534Y-100817681D01*
X159439588Y-101023719D01*
X159428140Y-101096000D01*
X160442403Y-101096000D01*
X160391461Y-101184234D01*
X160362900Y-101290824D01*
X160362900Y-101401176D01*
X160391461Y-101507766D01*
X160442403Y-101596000D01*
X159428140Y-101596000D01*
X159439588Y-101668280D01*
X159506534Y-101874318D01*
X159604883Y-102067339D01*
X159732219Y-102242600D01*
X159732219Y-102242601D01*
X159885398Y-102395780D01*
X160060660Y-102523116D01*
X160253681Y-102621465D01*
X160459714Y-102688410D01*
X160531999Y-102699859D01*
X160532000Y-102699859D01*
X160532000Y-101685596D01*
X160620234Y-101736539D01*
X160726824Y-101765100D01*
X160837176Y-101765100D01*
X160943766Y-101736539D01*
X161032000Y-101685596D01*
X161032000Y-102699859D01*
X161104284Y-102688410D01*
X161104287Y-102688410D01*
X161310318Y-102621465D01*
X161503341Y-102523115D01*
X161527553Y-102505524D01*
X161593359Y-102482042D01*
X161661413Y-102497866D01*
X161710109Y-102547971D01*
X161717481Y-102564880D01*
X161719029Y-102569302D01*
X161719911Y-102571822D01*
X161815884Y-102724562D01*
X161943438Y-102852116D01*
X162096178Y-102948089D01*
X162182299Y-102978224D01*
X162266445Y-103007668D01*
X162266450Y-103007669D01*
X162356946Y-103017865D01*
X162400740Y-103022799D01*
X162400743Y-103022800D01*
X162400746Y-103022800D01*
X163614385Y-103022800D01*
X163643825Y-103031444D01*
X163673812Y-103037968D01*
X163678827Y-103041722D01*
X163681424Y-103042485D01*
X163702066Y-103059119D01*
X163813181Y-103170234D01*
X163846666Y-103231557D01*
X163849500Y-103257915D01*
X163849500Y-104134796D01*
X163829815Y-104201835D01*
X163813181Y-104222477D01*
X163735575Y-104300082D01*
X163637389Y-104435224D01*
X163582059Y-104477889D01*
X163512445Y-104483868D01*
X163450651Y-104451262D01*
X163449390Y-104450019D01*
X163344159Y-104344788D01*
X163171328Y-104219218D01*
X162980984Y-104122232D01*
X162980981Y-104122231D01*
X162777814Y-104056219D01*
X162710000Y-104045478D01*
X162710000Y-105064314D01*
X162705606Y-105059920D01*
X162614394Y-105007259D01*
X162512661Y-104980000D01*
X162407339Y-104980000D01*
X162305606Y-105007259D01*
X162214394Y-105059920D01*
X162210000Y-105064314D01*
X162210000Y-104045478D01*
X162209999Y-104045478D01*
X162142185Y-104056219D01*
X161939018Y-104122231D01*
X161939015Y-104122232D01*
X161748671Y-104219218D01*
X161575841Y-104344788D01*
X161575840Y-104344788D01*
X161424788Y-104495840D01*
X161424788Y-104495841D01*
X161299213Y-104668678D01*
X161296673Y-104672824D01*
X161295119Y-104671871D01*
X161252495Y-104716990D01*
X161184671Y-104733775D01*
X161118540Y-104711228D01*
X161084590Y-104672049D01*
X161083327Y-104672824D01*
X161080786Y-104668678D01*
X160955211Y-104495841D01*
X160955211Y-104495840D01*
X160804159Y-104344788D01*
X160631328Y-104219218D01*
X160440984Y-104122232D01*
X160440981Y-104122231D01*
X160237814Y-104056219D01*
X160170000Y-104045478D01*
X160170000Y-105064314D01*
X160165606Y-105059920D01*
X160074394Y-105007259D01*
X159972661Y-104980000D01*
X159867339Y-104980000D01*
X159765606Y-105007259D01*
X159674394Y-105059920D01*
X159670000Y-105064314D01*
X159670000Y-104045478D01*
X159669999Y-104045478D01*
X159602185Y-104056219D01*
X159399018Y-104122231D01*
X159399015Y-104122232D01*
X159208671Y-104219218D01*
X159035844Y-104344785D01*
X158930609Y-104450020D01*
X158869286Y-104483504D01*
X158799594Y-104478520D01*
X158743661Y-104436648D01*
X158742610Y-104435223D01*
X158644428Y-104300087D01*
X158644424Y-104300082D01*
X158459917Y-104115575D01*
X158459912Y-104115571D01*
X158248827Y-103962210D01*
X158248826Y-103962209D01*
X158248824Y-103962208D01*
X158016336Y-103843749D01*
X157929302Y-103815470D01*
X157768181Y-103763118D01*
X157510469Y-103722300D01*
X157510464Y-103722300D01*
X157249536Y-103722300D01*
X157249531Y-103722300D01*
X156991819Y-103763118D01*
X156991816Y-103763118D01*
X156743661Y-103843750D01*
X156511172Y-103962210D01*
X156300087Y-104115571D01*
X156300082Y-104115575D01*
X156252181Y-104163477D01*
X156190858Y-104196962D01*
X156121166Y-104191978D01*
X156065233Y-104150106D01*
X156040816Y-104084642D01*
X156040500Y-104075796D01*
X156040500Y-98611513D01*
X156010940Y-98424881D01*
X155988310Y-98355236D01*
X155952547Y-98245168D01*
X155866760Y-98076801D01*
X155755690Y-97923927D01*
X155683935Y-97852172D01*
X155595074Y-97763310D01*
X155442199Y-97652240D01*
X155273836Y-97566454D01*
X155094118Y-97508059D01*
X154907486Y-97478500D01*
X154907481Y-97478500D01*
X154718519Y-97478500D01*
X154718514Y-97478500D01*
X154531881Y-97508059D01*
X154352164Y-97566454D01*
X154302059Y-97591985D01*
X154245764Y-97605500D01*
X153411915Y-97605500D01*
X153344876Y-97585815D01*
X153324234Y-97569181D01*
X153045360Y-97290306D01*
X153045359Y-97290305D01*
X153045354Y-97290300D01*
X153011111Y-97261385D01*
X152987935Y-97241815D01*
X152987934Y-97241814D01*
X152830049Y-97154554D01*
X152698758Y-97116730D01*
X152656712Y-97104617D01*
X152656708Y-97104616D01*
X152656705Y-97104616D01*
X152581837Y-97098300D01*
X152581822Y-97098300D01*
X151710183Y-97098300D01*
X151710179Y-97098300D01*
X151635294Y-97104617D01*
X151635289Y-97104617D01*
X151635288Y-97104618D01*
X151635285Y-97104618D01*
X151635284Y-97104619D01*
X151461950Y-97154555D01*
X151304066Y-97241813D01*
X151246648Y-97290299D01*
X151246633Y-97290313D01*
X150630306Y-97906639D01*
X150630297Y-97906649D01*
X150581815Y-97964064D01*
X150581814Y-97964065D01*
X150494554Y-98121950D01*
X150444618Y-98295284D01*
X150444616Y-98295294D01*
X150438300Y-98370162D01*
X150438300Y-99241820D01*
X150444617Y-99316705D01*
X150444619Y-99316715D01*
X150494555Y-99490049D01*
X150581813Y-99647933D01*
X150612549Y-99684331D01*
X150630306Y-99705359D01*
X151246646Y-100321700D01*
X151280261Y-100350084D01*
X151304064Y-100370184D01*
X151304065Y-100370185D01*
X151304066Y-100370186D01*
X151304068Y-100370187D01*
X151461949Y-100457445D01*
X151635288Y-100507383D01*
X151679574Y-100511118D01*
X151710162Y-100513699D01*
X151710178Y-100513700D01*
X152581806Y-100513700D01*
X152581817Y-100513700D01*
X152656712Y-100507382D01*
X152830051Y-100457444D01*
X152987932Y-100370187D01*
X153045359Y-100321694D01*
X153324235Y-100042819D01*
X153351162Y-100028115D01*
X153376981Y-100011523D01*
X153383181Y-100010631D01*
X153385558Y-100009334D01*
X153411916Y-100006500D01*
X153515500Y-100006500D01*
X153582539Y-100026185D01*
X153628294Y-100078989D01*
X153639500Y-100130500D01*
X153639500Y-101464771D01*
X153619815Y-101531810D01*
X153567011Y-101577565D01*
X153497853Y-101587509D01*
X153434297Y-101558484D01*
X153417124Y-101540258D01*
X153399414Y-101517178D01*
X153303390Y-101392037D01*
X153303388Y-101392035D01*
X153303385Y-101392031D01*
X153147968Y-101236614D01*
X153147961Y-101236608D01*
X152973578Y-101102799D01*
X152783224Y-100992898D01*
X152783214Y-100992894D01*
X152580150Y-100908782D01*
X152367825Y-100851889D01*
X152149904Y-100823200D01*
X152149903Y-100823200D01*
X151930097Y-100823200D01*
X151930096Y-100823200D01*
X151712174Y-100851889D01*
X151499849Y-100908782D01*
X151296785Y-100992894D01*
X151296775Y-100992898D01*
X151106421Y-101102799D01*
X150932038Y-101236608D01*
X150932031Y-101236614D01*
X150776614Y-101392031D01*
X150776608Y-101392038D01*
X150642799Y-101566421D01*
X150532898Y-101756775D01*
X150532894Y-101756785D01*
X150448782Y-101959849D01*
X150391889Y-102172174D01*
X150363200Y-102390096D01*
X150363200Y-102609903D01*
X150391432Y-102824356D01*
X150391890Y-102827829D01*
X150398398Y-102852115D01*
X150448782Y-103040150D01*
X150532894Y-103243214D01*
X150532898Y-103243224D01*
X150642799Y-103433578D01*
X150776608Y-103607961D01*
X150776614Y-103607968D01*
X150932031Y-103763385D01*
X150932038Y-103763391D01*
X151106419Y-103897199D01*
X151106421Y-103897200D01*
X151176974Y-103937933D01*
X151194227Y-103956027D01*
X151214241Y-103971010D01*
X151217921Y-103980876D01*
X151225189Y-103988499D01*
X151229921Y-104013050D01*
X151238658Y-104036474D01*
X151236419Y-104046763D01*
X151238413Y-104057105D01*
X151229120Y-104080317D01*
X151223806Y-104104747D01*
X151214207Y-104117569D01*
X151212445Y-104121971D01*
X151202655Y-104133001D01*
X151117680Y-104217976D01*
X151056357Y-104251461D01*
X150986665Y-104246477D01*
X150942318Y-104217976D01*
X150839917Y-104115575D01*
X150839912Y-104115571D01*
X150628827Y-103962210D01*
X150628826Y-103962209D01*
X150628824Y-103962208D01*
X150396336Y-103843749D01*
X150309302Y-103815470D01*
X150148181Y-103763118D01*
X149890469Y-103722300D01*
X149890464Y-103722300D01*
X149629536Y-103722300D01*
X149629531Y-103722300D01*
X149371819Y-103763118D01*
X149371816Y-103763118D01*
X149123661Y-103843750D01*
X148891172Y-103962210D01*
X148680087Y-104115571D01*
X148680082Y-104115575D01*
X148495573Y-104300084D01*
X148453218Y-104358384D01*
X148397889Y-104401050D01*
X148352899Y-104409500D01*
X147964999Y-104409500D01*
X147897960Y-104389815D01*
X147866627Y-104360991D01*
X147821390Y-104302037D01*
X147821384Y-104302031D01*
X147821381Y-104302027D01*
X147665968Y-104146614D01*
X147665961Y-104146608D01*
X147491578Y-104012799D01*
X147468559Y-103999509D01*
X147420343Y-103948942D01*
X147407120Y-103880335D01*
X147433088Y-103815470D01*
X147484467Y-103778883D01*
X147483823Y-103777328D01*
X147488314Y-103775468D01*
X147681339Y-103677116D01*
X147856600Y-103549780D01*
X147856601Y-103549780D01*
X148009780Y-103396601D01*
X148009780Y-103396600D01*
X148137116Y-103221339D01*
X148235465Y-103028318D01*
X148302411Y-102822280D01*
X148313860Y-102750000D01*
X147299597Y-102750000D01*
X147350539Y-102661766D01*
X147379100Y-102555176D01*
X147379100Y-102444824D01*
X147350539Y-102338234D01*
X147299597Y-102250000D01*
X148313860Y-102250000D01*
X148302411Y-102177719D01*
X148235465Y-101971681D01*
X148137116Y-101778660D01*
X148009780Y-101603399D01*
X148009780Y-101603398D01*
X147856601Y-101450219D01*
X147681339Y-101322883D01*
X147488318Y-101224534D01*
X147282280Y-101157588D01*
X147210000Y-101146139D01*
X147210000Y-102160403D01*
X147121766Y-102109461D01*
X147015176Y-102080900D01*
X146904824Y-102080900D01*
X146798234Y-102109461D01*
X146710000Y-102160403D01*
X146710000Y-101146139D01*
X146637719Y-101157588D01*
X146431681Y-101224534D01*
X146238660Y-101322883D01*
X146063399Y-101450219D01*
X146063398Y-101450219D01*
X145910219Y-101603398D01*
X145910219Y-101603399D01*
X145782883Y-101778660D01*
X145684534Y-101971681D01*
X145617588Y-102177719D01*
X145606140Y-102250000D01*
X146620403Y-102250000D01*
X146569461Y-102338234D01*
X146540900Y-102444824D01*
X146540900Y-102555176D01*
X146569461Y-102661766D01*
X146620403Y-102750000D01*
X145606140Y-102750000D01*
X145617588Y-102822280D01*
X145684534Y-103028318D01*
X145782883Y-103221339D01*
X145910219Y-103396600D01*
X145910219Y-103396601D01*
X146063398Y-103549780D01*
X146063404Y-103549785D01*
X146111295Y-103584580D01*
X146153961Y-103639910D01*
X146159940Y-103709523D01*
X146127334Y-103771318D01*
X146070505Y-103804672D01*
X146017854Y-103818780D01*
X145814785Y-103902894D01*
X145814775Y-103902898D01*
X145624421Y-104012799D01*
X145450038Y-104146608D01*
X145450031Y-104146614D01*
X145294614Y-104302031D01*
X145294608Y-104302038D01*
X145160799Y-104476421D01*
X145050898Y-104666775D01*
X145050894Y-104666785D01*
X144966782Y-104869849D01*
X144909889Y-105082174D01*
X144881200Y-105300096D01*
X144881200Y-105519903D01*
X144909867Y-105737659D01*
X144909890Y-105737829D01*
X144916774Y-105763519D01*
X144966782Y-105950150D01*
X145050894Y-106153214D01*
X145050898Y-106153224D01*
X145160799Y-106343578D01*
X145294608Y-106517961D01*
X145294614Y-106517968D01*
X145450031Y-106673385D01*
X145450038Y-106673391D01*
X145624421Y-106807200D01*
X145814775Y-106917101D01*
X145814776Y-106917101D01*
X145814779Y-106917103D01*
X145991912Y-106990473D01*
X146015782Y-107000361D01*
X146017854Y-107001219D01*
X146064529Y-107013725D01*
X146124188Y-107050090D01*
X146154717Y-107112937D01*
X146146422Y-107182313D01*
X146101937Y-107236191D01*
X146035385Y-107257465D01*
X146032434Y-107257500D01*
X139886643Y-107257500D01*
X139819604Y-107237815D01*
X139773849Y-107185011D01*
X139766868Y-107165594D01*
X139753344Y-107115121D01*
X139727321Y-107052297D01*
X139671322Y-106917103D01*
X139643107Y-106848985D01*
X139643105Y-106848982D01*
X139643103Y-106848977D01*
X139505067Y-106609894D01*
X139499075Y-106599515D01*
X139391959Y-106459919D01*
X139323714Y-106370980D01*
X139323708Y-106370973D01*
X139120026Y-106167291D01*
X139120019Y-106167285D01*
X138891493Y-105991931D01*
X138891491Y-105991929D01*
X138891485Y-105991925D01*
X138891480Y-105991922D01*
X138891477Y-105991920D01*
X138642022Y-105847896D01*
X138642011Y-105847891D01*
X138375887Y-105737659D01*
X138375883Y-105737657D01*
X138375879Y-105737656D01*
X138097631Y-105663100D01*
X138097625Y-105663099D01*
X138097620Y-105663098D01*
X137812041Y-105625501D01*
X137812038Y-105625500D01*
X137812032Y-105625500D01*
X137523968Y-105625500D01*
X137523962Y-105625500D01*
X137523958Y-105625501D01*
X137238379Y-105663098D01*
X137238372Y-105663099D01*
X137238369Y-105663100D01*
X136987339Y-105730363D01*
X136960121Y-105737656D01*
X136960111Y-105737659D01*
X136693988Y-105847891D01*
X136693977Y-105847896D01*
X136444522Y-105991920D01*
X136444506Y-105991931D01*
X136215980Y-106167285D01*
X136215973Y-106167291D01*
X136012291Y-106370973D01*
X136012285Y-106370980D01*
X135836931Y-106599506D01*
X135836920Y-106599522D01*
X135692896Y-106848977D01*
X135692891Y-106848988D01*
X135582659Y-107115111D01*
X135582657Y-107115118D01*
X135582656Y-107115121D01*
X135517325Y-107358943D01*
X135508101Y-107393366D01*
X135508098Y-107393379D01*
X135470501Y-107678958D01*
X135470500Y-107678974D01*
X133604000Y-107678974D01*
X133604000Y-105160000D01*
X140124140Y-105160000D01*
X141138403Y-105160000D01*
X141087461Y-105248234D01*
X141058900Y-105354824D01*
X141058900Y-105465176D01*
X141087461Y-105571766D01*
X141138403Y-105660000D01*
X140124140Y-105660000D01*
X140135588Y-105732280D01*
X140202534Y-105938318D01*
X140300883Y-106131339D01*
X140428219Y-106306600D01*
X140428219Y-106306601D01*
X140581398Y-106459780D01*
X140756660Y-106587116D01*
X140949681Y-106685465D01*
X141155714Y-106752410D01*
X141227999Y-106763859D01*
X141228000Y-106763859D01*
X141228000Y-105749596D01*
X141316234Y-105800539D01*
X141422824Y-105829100D01*
X141533176Y-105829100D01*
X141639766Y-105800539D01*
X141728000Y-105749596D01*
X141728000Y-106763859D01*
X141800284Y-106752410D01*
X141800287Y-106752410D01*
X142006318Y-106685465D01*
X142199339Y-106587116D01*
X142374600Y-106459780D01*
X142374601Y-106459780D01*
X142527780Y-106306601D01*
X142527780Y-106306600D01*
X142655116Y-106131339D01*
X142753465Y-105938318D01*
X142820411Y-105732280D01*
X142831860Y-105660000D01*
X141817597Y-105660000D01*
X141868539Y-105571766D01*
X141897100Y-105465176D01*
X141897100Y-105354824D01*
X141868539Y-105248234D01*
X141817597Y-105160000D01*
X142831860Y-105160000D01*
X142820411Y-105087719D01*
X142753465Y-104881681D01*
X142655116Y-104688660D01*
X142527780Y-104513399D01*
X142527780Y-104513398D01*
X142374601Y-104360219D01*
X142199339Y-104232883D01*
X142006318Y-104134534D01*
X141800280Y-104067588D01*
X141728000Y-104056139D01*
X141728000Y-105070403D01*
X141639766Y-105019461D01*
X141533176Y-104990900D01*
X141422824Y-104990900D01*
X141316234Y-105019461D01*
X141228000Y-105070403D01*
X141228000Y-104056139D01*
X141155719Y-104067588D01*
X140949681Y-104134534D01*
X140756660Y-104232883D01*
X140581399Y-104360219D01*
X140581398Y-104360219D01*
X140428219Y-104513398D01*
X140428219Y-104513399D01*
X140300883Y-104688660D01*
X140202534Y-104881681D01*
X140135588Y-105087719D01*
X140124140Y-105160000D01*
X133604000Y-105160000D01*
X133604000Y-101301039D01*
X135470500Y-101301039D01*
X135470500Y-104184960D01*
X135485630Y-104319249D01*
X135485631Y-104319254D01*
X135545211Y-104489523D01*
X135587641Y-104557049D01*
X135641184Y-104642262D01*
X135768738Y-104769816D01*
X135921478Y-104865789D01*
X136071857Y-104918409D01*
X136091745Y-104925368D01*
X136091750Y-104925369D01*
X136182246Y-104935565D01*
X136226040Y-104940499D01*
X136226043Y-104940500D01*
X136226046Y-104940500D01*
X139109957Y-104940500D01*
X139109958Y-104940499D01*
X139177104Y-104932934D01*
X139244249Y-104925369D01*
X139244252Y-104925368D01*
X139244255Y-104925368D01*
X139414522Y-104865789D01*
X139567262Y-104769816D01*
X139694816Y-104642262D01*
X139790789Y-104489522D01*
X139850368Y-104319255D01*
X139852529Y-104300081D01*
X139864573Y-104193181D01*
X139865500Y-104184954D01*
X139865500Y-101301046D01*
X139850368Y-101166745D01*
X139790789Y-100996478D01*
X139775163Y-100971610D01*
X139699938Y-100851890D01*
X139694816Y-100843738D01*
X139567262Y-100716184D01*
X139414523Y-100620211D01*
X139244254Y-100560631D01*
X139244249Y-100560630D01*
X139109960Y-100545500D01*
X139109954Y-100545500D01*
X138992500Y-100545500D01*
X138983814Y-100542949D01*
X138974853Y-100544238D01*
X138950812Y-100533259D01*
X138925461Y-100525815D01*
X138919533Y-100518974D01*
X138911297Y-100515213D01*
X138897007Y-100492978D01*
X138879706Y-100473011D01*
X138877418Y-100462496D01*
X138873523Y-100456435D01*
X138868500Y-100421500D01*
X138868500Y-100243626D01*
X138888185Y-100176587D01*
X138904819Y-100155945D01*
X139017945Y-100042819D01*
X139079268Y-100009334D01*
X139105626Y-100006500D01*
X146689085Y-100006500D01*
X146756124Y-100026185D01*
X146776765Y-100042818D01*
X147182646Y-100448700D01*
X147211437Y-100473011D01*
X147240064Y-100497184D01*
X147240065Y-100497185D01*
X147240066Y-100497186D01*
X147240068Y-100497187D01*
X147397949Y-100584445D01*
X147571288Y-100634383D01*
X147615574Y-100638118D01*
X147646162Y-100640699D01*
X147646178Y-100640700D01*
X148517806Y-100640700D01*
X148517817Y-100640700D01*
X148592712Y-100634382D01*
X148766051Y-100584444D01*
X148923932Y-100497187D01*
X148981359Y-100448694D01*
X149597700Y-99832354D01*
X149646187Y-99774932D01*
X149733445Y-99617051D01*
X149783383Y-99443712D01*
X149787741Y-99392044D01*
X149789699Y-99368837D01*
X149789700Y-99368822D01*
X149789700Y-98497194D01*
X149789700Y-98497183D01*
X149783382Y-98422288D01*
X149733444Y-98248949D01*
X149646187Y-98091068D01*
X149646186Y-98091066D01*
X149597700Y-98033648D01*
X149597699Y-98033646D01*
X149597694Y-98033641D01*
X149416225Y-97852172D01*
X149168819Y-97604765D01*
X149135334Y-97543442D01*
X149132500Y-97517084D01*
X149132500Y-97038581D01*
X149152185Y-96971542D01*
X149181012Y-96940206D01*
X149210381Y-96917672D01*
X149368672Y-96759381D01*
X149504947Y-96581783D01*
X149616876Y-96387917D01*
X149702542Y-96181100D01*
X149760481Y-95964871D01*
X149789700Y-95742929D01*
X149789700Y-95519071D01*
X149771523Y-95381000D01*
X154316855Y-95381000D01*
X155326722Y-95381000D01*
X155282667Y-95457306D01*
X155252000Y-95571756D01*
X155252000Y-95690244D01*
X155282667Y-95804694D01*
X155326722Y-95881000D01*
X154316855Y-95881000D01*
X154329449Y-95960516D01*
X154397898Y-96171179D01*
X154498457Y-96368536D01*
X154628642Y-96547722D01*
X154628646Y-96547727D01*
X154785272Y-96704353D01*
X154785277Y-96704357D01*
X154964463Y-96834542D01*
X155161818Y-96935101D01*
X155372479Y-97003549D01*
X155451999Y-97016144D01*
X155452000Y-97016144D01*
X155452000Y-96006277D01*
X155528306Y-96050333D01*
X155642756Y-96081000D01*
X155761244Y-96081000D01*
X155875694Y-96050333D01*
X155952000Y-96006277D01*
X155952000Y-97016144D01*
X156031520Y-97003549D01*
X156242181Y-96935101D01*
X156439536Y-96834542D01*
X156618722Y-96704357D01*
X156618727Y-96704353D01*
X156775353Y-96547727D01*
X156775357Y-96547722D01*
X156905542Y-96368536D01*
X157006101Y-96171179D01*
X157046996Y-96045320D01*
X157046996Y-96045319D01*
X157074550Y-95960514D01*
X157087145Y-95881000D01*
X156077278Y-95881000D01*
X156121333Y-95804694D01*
X156152000Y-95690244D01*
X156152000Y-95571756D01*
X156121333Y-95457306D01*
X156077278Y-95381000D01*
X157087145Y-95381000D01*
X157074550Y-95301483D01*
X157006101Y-95090820D01*
X156951137Y-94982946D01*
X156924136Y-94929955D01*
X157596800Y-94929955D01*
X157596800Y-95635000D01*
X158628722Y-95635000D01*
X158584667Y-95711306D01*
X158554000Y-95825756D01*
X158554000Y-95944244D01*
X158584667Y-96058694D01*
X158628722Y-96135000D01*
X157596800Y-96135000D01*
X157596800Y-96840044D01*
X157603201Y-96899572D01*
X157603203Y-96899579D01*
X157653445Y-97034286D01*
X157653449Y-97034293D01*
X157739609Y-97149387D01*
X157739612Y-97149390D01*
X157854706Y-97235550D01*
X157854713Y-97235554D01*
X157989420Y-97285796D01*
X157989427Y-97285798D01*
X158048955Y-97292199D01*
X158048972Y-97292200D01*
X158754000Y-97292200D01*
X158754000Y-96260277D01*
X158830306Y-96304333D01*
X158944756Y-96335000D01*
X159063244Y-96335000D01*
X159177694Y-96304333D01*
X159254000Y-96260277D01*
X159254000Y-97292200D01*
X159959028Y-97292200D01*
X159959044Y-97292199D01*
X160018572Y-97285798D01*
X160018579Y-97285796D01*
X160153286Y-97235554D01*
X160153293Y-97235550D01*
X160268387Y-97149390D01*
X160268390Y-97149387D01*
X160354550Y-97034293D01*
X160354554Y-97034286D01*
X160404796Y-96899579D01*
X160404798Y-96899572D01*
X160411199Y-96840044D01*
X160411200Y-96840027D01*
X160411200Y-96135000D01*
X159379278Y-96135000D01*
X159423333Y-96058694D01*
X159454000Y-95944244D01*
X159454000Y-95825756D01*
X159424055Y-95714000D01*
X161301855Y-95714000D01*
X162311722Y-95714000D01*
X162267667Y-95790306D01*
X162237000Y-95904756D01*
X162237000Y-96023244D01*
X162267667Y-96137694D01*
X162311722Y-96214000D01*
X161301855Y-96214000D01*
X161314449Y-96293516D01*
X161382898Y-96504179D01*
X161483457Y-96701536D01*
X161613642Y-96880722D01*
X161613646Y-96880727D01*
X161770272Y-97037353D01*
X161770277Y-97037357D01*
X161949463Y-97167542D01*
X162146818Y-97268101D01*
X162357479Y-97336549D01*
X162436999Y-97349144D01*
X162437000Y-97349144D01*
X162437000Y-96339277D01*
X162513306Y-96383333D01*
X162627756Y-96414000D01*
X162746244Y-96414000D01*
X162860694Y-96383333D01*
X162937000Y-96339277D01*
X162937000Y-97349144D01*
X163016520Y-97336549D01*
X163227181Y-97268101D01*
X163424536Y-97167542D01*
X163603722Y-97037357D01*
X163603727Y-97037353D01*
X163760353Y-96880727D01*
X163760357Y-96880722D01*
X163890542Y-96701536D01*
X163991101Y-96504179D01*
X164059550Y-96293516D01*
X164072145Y-96214000D01*
X163062278Y-96214000D01*
X163106333Y-96137694D01*
X163137000Y-96023244D01*
X163137000Y-95904756D01*
X163106333Y-95790306D01*
X163062278Y-95714000D01*
X164072145Y-95714000D01*
X164059550Y-95634483D01*
X163991101Y-95423820D01*
X163890542Y-95226463D01*
X163760357Y-95047277D01*
X163760353Y-95047272D01*
X163603727Y-94890646D01*
X163603722Y-94890642D01*
X163424536Y-94760457D01*
X163227179Y-94659898D01*
X163016516Y-94591449D01*
X162937000Y-94578854D01*
X162937000Y-95588722D01*
X162860694Y-95544667D01*
X162746244Y-95514000D01*
X162627756Y-95514000D01*
X162513306Y-95544667D01*
X162437000Y-95588722D01*
X162437000Y-94578854D01*
X162357483Y-94591449D01*
X162146820Y-94659898D01*
X161949463Y-94760457D01*
X161770277Y-94890642D01*
X161770272Y-94890646D01*
X161613646Y-95047272D01*
X161613642Y-95047277D01*
X161483457Y-95226463D01*
X161382898Y-95423820D01*
X161314449Y-95634483D01*
X161301855Y-95714000D01*
X159424055Y-95714000D01*
X159423333Y-95711306D01*
X159379278Y-95635000D01*
X160411200Y-95635000D01*
X160411200Y-94929972D01*
X160411199Y-94929955D01*
X160404798Y-94870427D01*
X160404796Y-94870420D01*
X160354554Y-94735713D01*
X160354550Y-94735706D01*
X160268390Y-94620612D01*
X160268387Y-94620609D01*
X160153293Y-94534449D01*
X160153286Y-94534445D01*
X160018579Y-94484203D01*
X160018572Y-94484201D01*
X159959044Y-94477800D01*
X159254000Y-94477800D01*
X159254000Y-95509722D01*
X159177694Y-95465667D01*
X159063244Y-95435000D01*
X158944756Y-95435000D01*
X158830306Y-95465667D01*
X158754000Y-95509722D01*
X158754000Y-94477800D01*
X158048955Y-94477800D01*
X157989427Y-94484201D01*
X157989420Y-94484203D01*
X157854713Y-94534445D01*
X157854706Y-94534449D01*
X157739612Y-94620609D01*
X157739609Y-94620612D01*
X157653449Y-94735706D01*
X157653445Y-94735713D01*
X157603203Y-94870420D01*
X157603201Y-94870427D01*
X157596800Y-94929955D01*
X156924136Y-94929955D01*
X156905542Y-94893463D01*
X156775357Y-94714277D01*
X156775353Y-94714272D01*
X156618727Y-94557646D01*
X156618722Y-94557642D01*
X156439536Y-94427457D01*
X156242179Y-94326898D01*
X156031516Y-94258449D01*
X155952000Y-94245854D01*
X155952000Y-95255722D01*
X155875694Y-95211667D01*
X155761244Y-95181000D01*
X155642756Y-95181000D01*
X155528306Y-95211667D01*
X155452000Y-95255722D01*
X155452000Y-94245854D01*
X155372483Y-94258449D01*
X155161820Y-94326898D01*
X154964463Y-94427457D01*
X154785277Y-94557642D01*
X154785272Y-94557646D01*
X154628646Y-94714272D01*
X154628642Y-94714277D01*
X154498457Y-94893463D01*
X154397898Y-95090820D01*
X154329449Y-95301483D01*
X154316855Y-95381000D01*
X149771523Y-95381000D01*
X149760481Y-95297129D01*
X149702542Y-95080900D01*
X149616876Y-94874083D01*
X149616874Y-94874080D01*
X149616872Y-94874075D01*
X149504951Y-94680224D01*
X149504947Y-94680217D01*
X149427169Y-94578854D01*
X149368673Y-94502620D01*
X149368667Y-94502613D01*
X149210386Y-94344332D01*
X149210379Y-94344326D01*
X149032791Y-94208059D01*
X149032789Y-94208057D01*
X149032783Y-94208053D01*
X149032778Y-94208050D01*
X149032775Y-94208048D01*
X148838924Y-94096127D01*
X148838913Y-94096122D01*
X148632104Y-94010459D01*
X148415867Y-93952518D01*
X148193939Y-93923301D01*
X148193934Y-93923300D01*
X148193929Y-93923300D01*
X147970071Y-93923300D01*
X147970065Y-93923300D01*
X147970060Y-93923301D01*
X147748132Y-93952518D01*
X147531895Y-94010459D01*
X147325086Y-94096122D01*
X147325075Y-94096127D01*
X147131224Y-94208048D01*
X147131208Y-94208059D01*
X146953620Y-94344326D01*
X146953613Y-94344332D01*
X146795332Y-94502613D01*
X146795326Y-94502620D01*
X146659059Y-94680208D01*
X146659048Y-94680224D01*
X146547127Y-94874075D01*
X146547122Y-94874086D01*
X146461459Y-95080895D01*
X146403518Y-95297132D01*
X146374301Y-95519060D01*
X146374300Y-95519077D01*
X146374300Y-95742922D01*
X146374301Y-95742939D01*
X146403518Y-95964867D01*
X146461459Y-96181104D01*
X146547122Y-96387913D01*
X146547127Y-96387924D01*
X146659048Y-96581775D01*
X146659059Y-96581791D01*
X146795326Y-96759379D01*
X146795332Y-96759386D01*
X146953613Y-96917667D01*
X146953617Y-96917670D01*
X146953619Y-96917672D01*
X146982986Y-96940205D01*
X147024188Y-96996631D01*
X147031500Y-97038581D01*
X147031500Y-97481500D01*
X147011815Y-97548539D01*
X146959011Y-97594294D01*
X146907500Y-97605500D01*
X138462514Y-97605500D01*
X138275881Y-97635059D01*
X138096163Y-97693454D01*
X137927799Y-97779240D01*
X137774927Y-97890309D01*
X137576125Y-98089110D01*
X137514801Y-98122594D01*
X137507843Y-98123901D01*
X137386884Y-98143059D01*
X137207165Y-98201454D01*
X137038800Y-98287240D01*
X136951579Y-98350610D01*
X136885927Y-98398310D01*
X136885925Y-98398312D01*
X136885924Y-98398312D01*
X136752312Y-98531924D01*
X136752312Y-98531925D01*
X136752310Y-98531927D01*
X136737581Y-98552200D01*
X136641240Y-98684800D01*
X136555454Y-98853163D01*
X136497059Y-99032881D01*
X136467500Y-99219513D01*
X136467500Y-100421500D01*
X136447815Y-100488539D01*
X136395011Y-100534294D01*
X136343500Y-100545500D01*
X136226039Y-100545500D01*
X136091750Y-100560630D01*
X136091745Y-100560631D01*
X135921476Y-100620211D01*
X135768737Y-100716184D01*
X135641184Y-100843737D01*
X135545211Y-100996476D01*
X135485631Y-101166745D01*
X135485630Y-101166750D01*
X135470500Y-101301039D01*
X133604000Y-101301039D01*
X133604000Y-89979839D01*
X157296300Y-89979839D01*
X157296300Y-91884160D01*
X157311430Y-92018449D01*
X157311431Y-92018454D01*
X157371011Y-92188723D01*
X157452727Y-92318772D01*
X157466984Y-92341462D01*
X157594538Y-92469016D01*
X157747278Y-92564989D01*
X157917545Y-92624568D01*
X157917550Y-92624569D01*
X158008046Y-92634765D01*
X158051840Y-92639699D01*
X158051843Y-92639700D01*
X158051846Y-92639700D01*
X159103996Y-92639700D01*
X159171035Y-92659385D01*
X159191677Y-92676019D01*
X159811072Y-93295414D01*
X159951212Y-93397232D01*
X160024131Y-93434386D01*
X160105549Y-93475871D01*
X160105551Y-93475871D01*
X160105554Y-93475873D01*
X160199814Y-93506500D01*
X160222315Y-93513811D01*
X160270298Y-93529402D01*
X160352674Y-93542449D01*
X160441389Y-93556500D01*
X161448084Y-93556500D01*
X161515123Y-93576185D01*
X161535765Y-93592819D01*
X161685613Y-93742667D01*
X161685620Y-93742673D01*
X161755484Y-93796281D01*
X161863217Y-93878947D01*
X161863224Y-93878951D01*
X162057075Y-93990872D01*
X162057080Y-93990874D01*
X162057083Y-93990876D01*
X162263900Y-94076542D01*
X162480129Y-94134481D01*
X162702071Y-94163700D01*
X162702078Y-94163700D01*
X162925922Y-94163700D01*
X162925929Y-94163700D01*
X163147871Y-94134481D01*
X163364100Y-94076542D01*
X163570917Y-93990876D01*
X163764783Y-93878947D01*
X163942381Y-93742672D01*
X164100672Y-93584381D01*
X164236947Y-93406783D01*
X164348876Y-93212917D01*
X164434542Y-93006100D01*
X164492481Y-92789871D01*
X164521700Y-92567929D01*
X164521700Y-92344071D01*
X164492481Y-92122129D01*
X164434542Y-91905900D01*
X164348876Y-91699083D01*
X164348874Y-91699080D01*
X164348872Y-91699075D01*
X164236951Y-91505224D01*
X164236947Y-91505217D01*
X164100672Y-91327619D01*
X164100670Y-91327617D01*
X164100667Y-91327613D01*
X163942386Y-91169332D01*
X163942379Y-91169326D01*
X163764791Y-91033059D01*
X163764789Y-91033057D01*
X163764783Y-91033053D01*
X163764778Y-91033050D01*
X163764775Y-91033048D01*
X163570924Y-90921127D01*
X163570913Y-90921122D01*
X163364104Y-90835459D01*
X163147867Y-90777518D01*
X162925939Y-90748301D01*
X162925934Y-90748300D01*
X162925929Y-90748300D01*
X162702071Y-90748300D01*
X162702065Y-90748300D01*
X162702060Y-90748301D01*
X162480132Y-90777518D01*
X162263895Y-90835459D01*
X162057086Y-90921122D01*
X162057075Y-90921127D01*
X161863224Y-91033048D01*
X161863208Y-91033059D01*
X161685620Y-91169326D01*
X161685613Y-91169332D01*
X161535765Y-91319181D01*
X161474442Y-91352666D01*
X161448084Y-91355500D01*
X161035204Y-91355500D01*
X160968165Y-91335815D01*
X160947523Y-91319181D01*
X160748019Y-91119677D01*
X160714534Y-91058354D01*
X160711700Y-91031996D01*
X160711700Y-89979843D01*
X160711699Y-89979839D01*
X160696569Y-89845550D01*
X160696568Y-89845545D01*
X160647621Y-89705663D01*
X160636989Y-89675278D01*
X160541016Y-89522538D01*
X160413462Y-89394984D01*
X160324783Y-89339263D01*
X160260723Y-89299011D01*
X160090454Y-89239431D01*
X160090449Y-89239430D01*
X159956160Y-89224300D01*
X159956154Y-89224300D01*
X158051846Y-89224300D01*
X158051839Y-89224300D01*
X157917550Y-89239430D01*
X157917545Y-89239431D01*
X157747276Y-89299011D01*
X157594537Y-89394984D01*
X157466984Y-89522537D01*
X157371011Y-89675276D01*
X157311431Y-89845545D01*
X157311430Y-89845550D01*
X157296300Y-89979839D01*
X133604000Y-89979839D01*
X133604000Y-88007027D01*
X133623685Y-87939988D01*
X133676489Y-87894233D01*
X133727022Y-87883031D01*
X197995024Y-87376984D01*
X198062216Y-87396140D01*
G37*
%TD.AperFunction*%
%TD*%
M02*
