%TF.GenerationSoftware,KiCad,Pcbnew,9.0.7*%
%TF.CreationDate,2026-03-19T12:02:40+01:00*%
%TF.ProjectId,TweakTone_V1-2,54776561-6b54-46f6-9e65-5f56312d322e,rev?*%
%TF.SameCoordinates,Original*%
%TF.FileFunction,Soldermask,Bot*%
%TF.FilePolarity,Negative*%
%FSLAX46Y46*%
G04 Gerber Fmt 4.6, Leading zero omitted, Abs format (unit mm)*
G04 Created by KiCad (PCBNEW 9.0.7) date 2026-03-19 12:02:40*
%MOMM*%
%LPD*%
G01*
G04 APERTURE LIST*
G04 Aperture macros list*
%AMRoundRect*
0 Rectangle with rounded corners*
0 $1 Rounding radius*
0 $2 $3 $4 $5 $6 $7 $8 $9 X,Y pos of 4 corners*
0 Add a 4 corners polygon primitive as box body*
4,1,4,$2,$3,$4,$5,$6,$7,$8,$9,$2,$3,0*
0 Add four circle primitives for the rounded corners*
1,1,$1+$1,$2,$3*
1,1,$1+$1,$4,$5*
1,1,$1+$1,$6,$7*
1,1,$1+$1,$8,$9*
0 Add four rect primitives between the rounded corners*
20,1,$1+$1,$2,$3,$4,$5,0*
20,1,$1+$1,$4,$5,$6,$7,0*
20,1,$1+$1,$6,$7,$8,$9,0*
20,1,$1+$1,$8,$9,$2,$3,0*%
%AMFreePoly0*
4,1,25,0.435494,0.989396,0.447617,0.979042,0.979042,0.447617,1.007549,0.391669,1.008800,0.375775,1.008800,-0.375775,0.989396,-0.435494,0.979042,-0.447617,0.447617,-0.979042,0.391669,-1.007549,0.375775,-1.008800,-0.375775,-1.008800,-0.435494,-0.989396,-0.447617,-0.979042,-0.979042,-0.447617,-1.007549,-0.391669,-1.008800,-0.375775,-1.008800,0.375775,-0.989396,0.435494,-0.979042,0.447617,
-0.447617,0.979042,-0.391669,1.007549,-0.375775,1.008800,0.375775,1.008800,0.435494,0.989396,0.435494,0.989396,$1*%
%AMFreePoly1*
4,1,25,0.638375,1.479196,0.650498,1.468842,1.468842,0.650498,1.497349,0.594550,1.498600,0.578656,1.498600,-0.578656,1.479196,-0.638375,1.468842,-0.650498,0.650498,-1.468842,0.594550,-1.497349,0.578656,-1.498600,-0.578656,-1.498600,-0.638375,-1.479196,-0.650498,-1.468842,-1.468842,-0.650498,-1.497349,-0.594550,-1.498600,-0.578656,-1.498600,0.578656,-1.479196,0.638375,-1.468842,0.650498,
-0.650498,1.468842,-0.594550,1.497349,-0.578656,1.498600,0.578656,1.498600,0.638375,1.479196,0.638375,1.479196,$1*%
G04 Aperture macros list end*
%ADD10RoundRect,0.101600X-1.000000X-1.000000X1.000000X-1.000000X1.000000X1.000000X-1.000000X1.000000X0*%
%ADD11C,2.203200*%
%ADD12RoundRect,0.101600X-0.907200X-0.907200X0.907200X-0.907200X0.907200X0.907200X-0.907200X0.907200X0*%
%ADD13C,1.955800*%
%ADD14C,2.017600*%
%ADD15RoundRect,0.101600X0.907200X-0.907200X0.907200X0.907200X-0.907200X0.907200X-0.907200X-0.907200X0*%
%ADD16FreePoly0,0.000000*%
%ADD17RoundRect,0.101600X-1.397000X1.397000X-1.397000X-1.397000X1.397000X-1.397000X1.397000X1.397000X0*%
%ADD18C,2.997200*%
%ADD19FreePoly1,270.000000*%
%ADD20RoundRect,0.101600X0.876300X0.876300X-0.876300X0.876300X-0.876300X-0.876300X0.876300X-0.876300X0*%
%ADD21RoundRect,0.101600X1.397000X1.397000X-1.397000X1.397000X-1.397000X-1.397000X1.397000X-1.397000X0*%
%ADD22FreePoly1,180.000000*%
%ADD23RoundRect,0.101600X0.907200X0.907200X-0.907200X0.907200X-0.907200X-0.907200X0.907200X-0.907200X0*%
%ADD24RoundRect,0.101600X-0.857200X0.857200X-0.857200X-0.857200X0.857200X-0.857200X0.857200X0.857200X0*%
%ADD25C,1.917600*%
%ADD26RoundRect,0.101600X-0.876300X0.876300X-0.876300X-0.876300X0.876300X-0.876300X0.876300X0.876300X0*%
%ADD27RoundRect,0.101600X0.876300X-0.876300X0.876300X0.876300X-0.876300X0.876300X-0.876300X-0.876300X0*%
%ADD28RoundRect,0.101600X1.397000X-1.397000X1.397000X1.397000X-1.397000X1.397000X-1.397000X-1.397000X0*%
%ADD29FreePoly1,90.000000*%
%ADD30RoundRect,0.101600X-0.965200X0.965200X-0.965200X-0.965200X0.965200X-0.965200X0.965200X0.965200X0*%
%ADD31C,2.133600*%
G04 APERTURE END LIST*
D10*
%TO.C,IC2*%
X156972000Y-134874000D03*
D11*
X156972000Y-137414000D03*
X156972000Y-139954000D03*
X156972000Y-142494000D03*
X164592000Y-142494000D03*
X164592000Y-139954000D03*
X164592000Y-137414000D03*
X164592000Y-134874000D03*
%TD*%
D12*
%TO.C,IN0*%
X140716000Y-126492000D03*
%TD*%
D13*
%TO.C,C12*%
X188849000Y-96012000D03*
X193929000Y-96012000D03*
%TD*%
%TO.C,C5*%
X176022000Y-138430000D03*
X181102000Y-138430000D03*
%TD*%
D14*
%TO.C,R17*%
X155702000Y-95631000D03*
X148082000Y-95631000D03*
%TD*%
D13*
%TO.C,C4*%
X171577000Y-140589000D03*
X171577000Y-138049000D03*
%TD*%
%TO.C,C17*%
X146558000Y-105410000D03*
X141478000Y-105410000D03*
%TD*%
D14*
%TO.C,R12*%
X176022000Y-121285000D03*
X168402000Y-121285000D03*
%TD*%
%TO.C,R11*%
X173101000Y-112014000D03*
X180721000Y-112014000D03*
%TD*%
D13*
%TO.C,C1*%
X140589000Y-129794000D03*
X145669000Y-129794000D03*
%TD*%
D14*
%TO.C,R9*%
X185039000Y-109855000D03*
X185039000Y-102235000D03*
%TD*%
D12*
%TO.C,GND0*%
X159004000Y-95885000D03*
%TD*%
D13*
%TO.C,C13*%
X182118000Y-102235000D03*
X182118000Y-97155000D03*
%TD*%
%TO.C,C2*%
X154000000Y-137668000D03*
X154000000Y-135128000D03*
%TD*%
%TO.C,C11*%
X192532000Y-112268000D03*
X192532000Y-117348000D03*
%TD*%
%TO.C,C14*%
X180403500Y-121666000D03*
X185483500Y-121666000D03*
%TD*%
D11*
%TO.C,REG1*%
X177165000Y-103759000D03*
X174625000Y-103759000D03*
X172085000Y-103759000D03*
%TD*%
D14*
%TO.C,R13*%
X168317000Y-123984000D03*
X175937000Y-123984000D03*
%TD*%
%TO.C,R15*%
X168317000Y-126484000D03*
X175937000Y-126484000D03*
%TD*%
D15*
%TO.C,L+0*%
X159004000Y-90932000D03*
%TD*%
D14*
%TO.C,R8*%
X180848000Y-114681000D03*
X173228000Y-114681000D03*
%TD*%
D16*
%TO.C,M2*%
X148082000Y-98933000D03*
%TD*%
D13*
%TO.C,C16*%
X147193000Y-116078000D03*
X152273000Y-116078000D03*
%TD*%
D17*
%TO.C,TIME0*%
X137668000Y-102743000D03*
D18*
X137668000Y-107823000D03*
D19*
X137668000Y-112903000D03*
%TD*%
D14*
%TO.C,R2*%
X145669000Y-132842000D03*
X145669000Y-140462000D03*
%TD*%
D13*
%TO.C,C18*%
X152040000Y-102500000D03*
X146960000Y-102500000D03*
%TD*%
D20*
%TO.C,C21*%
X176530000Y-98044000D03*
D13*
X173990000Y-98044000D03*
%TD*%
D14*
%TO.C,R20*%
X167513000Y-142748000D03*
X167513000Y-135128000D03*
%TD*%
D21*
%TO.C,FB0*%
X193802000Y-91344750D03*
D18*
X188722000Y-91344750D03*
D22*
X183642000Y-91344750D03*
%TD*%
D14*
%TO.C,R16*%
X196596000Y-111506000D03*
X196596000Y-103886000D03*
%TD*%
%TO.C,R1*%
X137541000Y-139065000D03*
X137541000Y-131445000D03*
%TD*%
D13*
%TO.C,C10*%
X188341000Y-113411000D03*
X188341000Y-118491000D03*
%TD*%
D14*
%TO.C,R7*%
X187452000Y-140081000D03*
X195072000Y-140081000D03*
%TD*%
%TO.C,R3*%
X148971000Y-138557000D03*
X148971000Y-130937000D03*
%TD*%
%TO.C,R18*%
X162814000Y-92456000D03*
X170434000Y-92456000D03*
%TD*%
%TO.C,R5*%
X185674000Y-133604000D03*
X178054000Y-133604000D03*
%TD*%
%TO.C,R14*%
X173101000Y-107442000D03*
X180721000Y-107442000D03*
%TD*%
%TO.C,R10*%
X173101000Y-109728000D03*
X180721000Y-109728000D03*
%TD*%
%TO.C,R19*%
X141605000Y-144399000D03*
X149225000Y-144399000D03*
%TD*%
%TO.C,R4*%
X156810000Y-131699000D03*
X164430000Y-131699000D03*
%TD*%
D13*
%TO.C,C8*%
X170434000Y-114173000D03*
X170434000Y-109093000D03*
%TD*%
D14*
%TO.C,R6*%
X183896000Y-138430000D03*
X183896000Y-146050000D03*
%TD*%
D16*
%TO.C,M1*%
X152146000Y-98806000D03*
%TD*%
D15*
%TO.C,+9V0*%
X174244000Y-92456000D03*
%TD*%
D13*
%TO.C,C3*%
X153289000Y-126746000D03*
X153289000Y-131826000D03*
%TD*%
D23*
%TO.C,OUT0*%
X187325000Y-145923000D03*
%TD*%
D24*
%TO.C,IC1*%
X167540000Y-105380000D03*
D25*
X165000000Y-105380000D03*
X162460000Y-105380000D03*
X159920000Y-105380000D03*
X157380000Y-105380000D03*
X154840000Y-105380000D03*
X152300000Y-105380000D03*
X149760000Y-105380000D03*
X149760000Y-113000000D03*
X152300000Y-113000000D03*
X154840000Y-113000000D03*
X157380000Y-113000000D03*
X159920000Y-113000000D03*
X162460000Y-113000000D03*
X165000000Y-113000000D03*
X167540000Y-113000000D03*
%TD*%
D13*
%TO.C,C15*%
X155000000Y-120000000D03*
X155000000Y-114920000D03*
%TD*%
D20*
%TO.C,C19*%
X163322000Y-101346000D03*
D13*
X160782000Y-101346000D03*
%TD*%
%TO.C,C6*%
X189738000Y-127381000D03*
X189738000Y-132461000D03*
%TD*%
%TO.C,C7*%
X185166000Y-113411000D03*
X185166000Y-118491000D03*
%TD*%
%TO.C,C9*%
X159893000Y-116586000D03*
X164973000Y-116586000D03*
%TD*%
D14*
%TO.C,D1*%
X162687000Y-95964000D03*
D23*
X170307000Y-95964000D03*
%TD*%
D26*
%TO.C,C20*%
X153289000Y-140589000D03*
D13*
X153289000Y-143129000D03*
%TD*%
D27*
%TO.C,C22*%
X167640000Y-102743000D03*
D13*
X167640000Y-100203000D03*
%TD*%
D28*
%TO.C,MIX0*%
X194405250Y-132715000D03*
D18*
X194405250Y-127635000D03*
D29*
X194405250Y-122555000D03*
%TD*%
D30*
%TO.C,TONE0*%
X182816500Y-124714000D03*
D31*
X185356500Y-127254000D03*
X182816500Y-129794000D03*
%TD*%
M02*
