M48
; DRILL file {KiCad 9.0.7} date 2026-03-19T12:08:29+0100
; FORMAT={-:-/ absolute / metric / decimal}
; #@! TF.CreationDate,2026-03-19T12:08:29+01:00
; #@! TF.GenerationSoftware,Kicad,Pcbnew,9.0.7
; #@! TF.FileFunction,Plated,1,2,PTH
FMAT,2
METRIC
; #@! TA.AperFunction,Plated,PTH,ComponentDrill
T1C0.800
; #@! TA.AperFunction,Plated,PTH,ComponentDrill
T2C0.838
; #@! TA.AperFunction,Plated,PTH,ComponentDrill
T3C0.900
; #@! TA.AperFunction,Plated,PTH,ComponentDrill
T4C1.000
; #@! TA.AperFunction,Plated,PTH,ComponentDrill
T5C1.500
%
G90
G05
T1
X149.76Y-105.38
X149.76Y-113.0
X152.3Y-105.38
X152.3Y-113.0
X154.84Y-105.38
X154.84Y-113.0
X157.38Y-105.38
X157.38Y-113.0
X159.92Y-105.38
X159.92Y-113.0
X162.46Y-105.38
X162.46Y-113.0
X165.0Y-105.38
X165.0Y-113.0
X167.54Y-105.38
X167.54Y-113.0
T2
X140.589Y-129.794
X141.478Y-105.41
X145.669Y-129.794
X146.558Y-105.41
X146.96Y-102.5
X147.193Y-116.078
X152.04Y-102.5
X152.273Y-116.078
X153.289Y-126.746
X153.289Y-131.826
X153.289Y-140.589
X153.289Y-143.129
X154.0Y-135.128
X154.0Y-137.668
X155.0Y-114.92
X155.0Y-120.0
X159.893Y-116.586
X160.782Y-101.346
X163.322Y-101.346
X164.973Y-116.586
X167.64Y-100.203
X167.64Y-102.743
X170.434Y-109.093
X170.434Y-114.173
X171.577Y-138.049
X171.577Y-140.589
X173.99Y-98.044
X176.022Y-138.43
X176.53Y-98.044
X180.403Y-121.666
X181.102Y-138.43
X182.118Y-97.155
X182.118Y-102.235
X185.166Y-113.411
X185.166Y-118.491
X185.483Y-121.666
X188.341Y-113.411
X188.341Y-118.491
X188.849Y-96.012
X189.738Y-127.381
X189.738Y-132.461
X192.532Y-112.268
X192.532Y-117.348
X193.929Y-96.012
T3
X137.541Y-131.445
X137.541Y-139.065
X140.716Y-126.492
X141.605Y-144.399
X145.669Y-132.842
X145.669Y-140.462
X148.082Y-95.631
X148.082Y-98.933
X148.971Y-130.937
X148.971Y-138.557
X149.225Y-144.399
X152.146Y-98.806
X155.702Y-95.631
X156.81Y-131.699
X159.004Y-90.932
X159.004Y-95.885
X162.687Y-95.964
X162.814Y-92.456
X164.43Y-131.699
X167.513Y-135.128
X167.513Y-142.748
X168.317Y-123.984
X168.317Y-126.484
X168.402Y-121.285
X170.307Y-95.964
X170.434Y-92.456
X173.101Y-107.442
X173.101Y-109.728
X173.101Y-112.014
X173.228Y-114.681
X174.244Y-92.456
X175.937Y-123.984
X175.937Y-126.484
X176.022Y-121.285
X178.054Y-133.604
X180.721Y-107.442
X180.721Y-109.728
X180.721Y-112.014
X180.848Y-114.681
X183.896Y-138.43
X183.896Y-146.05
X185.039Y-102.235
X185.039Y-109.855
X185.674Y-133.604
X187.325Y-145.923
X187.452Y-140.081
X195.072Y-140.081
X196.596Y-103.886
X196.596Y-111.506
T4
X156.972Y-134.874
X156.972Y-137.414
X156.972Y-139.954
X156.972Y-142.494
X164.592Y-134.874
X164.592Y-137.414
X164.592Y-139.954
X164.592Y-142.494
X172.085Y-103.759
X174.625Y-103.759
X177.165Y-103.759
X182.816Y-124.714
X182.816Y-129.794
X185.356Y-127.254
T5
X137.668Y-102.743
X137.668Y-107.823
X137.668Y-112.903
X183.642Y-91.345
X188.722Y-91.345
X193.802Y-91.345
X194.405Y-122.555
X194.405Y-127.635
X194.405Y-132.715
M30
