%TF.GenerationSoftware,KiCad,Pcbnew,9.0.7*%
%TF.CreationDate,2026-03-19T12:08:29+01:00*%
%TF.ProjectId,TweakTone_V1-2,54776561-6b54-46f6-9e65-5f56312d322e,rev?*%
%TF.SameCoordinates,Original*%
%TF.FileFunction,Drillmap*%
%TF.FilePolarity,Positive*%
%FSLAX45Y45*%
G04 Gerber Fmt 4.5, Leading zero omitted, Abs format (unit mm)*
G04 Created by KiCad (PCBNEW 9.0.7) date 2026-03-19 12:08:29*
%MOMM*%
%LPD*%
G01*
G04 APERTURE LIST*
%ADD10C,0.050000*%
%ADD11C,0.200000*%
G04 APERTURE END LIST*
D10*
X13274200Y-8862600D02*
G75*
G02*
X13401200Y-8735600I127000J0D01*
G01*
X13423900Y-14770100D02*
G75*
G02*
X13296900Y-14643100I0J127000D01*
G01*
X13423900Y-14770100D02*
X19850100Y-14770100D01*
X19862800Y-8712200D02*
X13401200Y-8735600D01*
X13274200Y-8862600D02*
X13296900Y-14643100D01*
X19850100Y-14770100D02*
X19862800Y-8712200D01*
D11*
X13532477Y-15084084D02*
X13532477Y-14884084D01*
X13532477Y-14884084D02*
X13580096Y-14884084D01*
X13580096Y-14884084D02*
X13608667Y-14893608D01*
X13608667Y-14893608D02*
X13627715Y-14912655D01*
X13627715Y-14912655D02*
X13637239Y-14931703D01*
X13637239Y-14931703D02*
X13646762Y-14969798D01*
X13646762Y-14969798D02*
X13646762Y-14998369D01*
X13646762Y-14998369D02*
X13637239Y-15036465D01*
X13637239Y-15036465D02*
X13627715Y-15055512D01*
X13627715Y-15055512D02*
X13608667Y-15074560D01*
X13608667Y-15074560D02*
X13580096Y-15084084D01*
X13580096Y-15084084D02*
X13532477Y-15084084D01*
X13732477Y-15084084D02*
X13732477Y-14950750D01*
X13732477Y-14988846D02*
X13742001Y-14969798D01*
X13742001Y-14969798D02*
X13751524Y-14960274D01*
X13751524Y-14960274D02*
X13770572Y-14950750D01*
X13770572Y-14950750D02*
X13789620Y-14950750D01*
X13856286Y-15084084D02*
X13856286Y-14950750D01*
X13856286Y-14884084D02*
X13846762Y-14893608D01*
X13846762Y-14893608D02*
X13856286Y-14903131D01*
X13856286Y-14903131D02*
X13865810Y-14893608D01*
X13865810Y-14893608D02*
X13856286Y-14884084D01*
X13856286Y-14884084D02*
X13856286Y-14903131D01*
X13980096Y-15084084D02*
X13961048Y-15074560D01*
X13961048Y-15074560D02*
X13951524Y-15055512D01*
X13951524Y-15055512D02*
X13951524Y-14884084D01*
X14084858Y-15084084D02*
X14065810Y-15074560D01*
X14065810Y-15074560D02*
X14056286Y-15055512D01*
X14056286Y-15055512D02*
X14056286Y-14884084D01*
X14313429Y-15084084D02*
X14313429Y-14884084D01*
X14313429Y-14884084D02*
X14380096Y-15026941D01*
X14380096Y-15026941D02*
X14446762Y-14884084D01*
X14446762Y-14884084D02*
X14446762Y-15084084D01*
X14627715Y-15084084D02*
X14627715Y-14979322D01*
X14627715Y-14979322D02*
X14618191Y-14960274D01*
X14618191Y-14960274D02*
X14599143Y-14950750D01*
X14599143Y-14950750D02*
X14561048Y-14950750D01*
X14561048Y-14950750D02*
X14542001Y-14960274D01*
X14627715Y-15074560D02*
X14608667Y-15084084D01*
X14608667Y-15084084D02*
X14561048Y-15084084D01*
X14561048Y-15084084D02*
X14542001Y-15074560D01*
X14542001Y-15074560D02*
X14532477Y-15055512D01*
X14532477Y-15055512D02*
X14532477Y-15036465D01*
X14532477Y-15036465D02*
X14542001Y-15017417D01*
X14542001Y-15017417D02*
X14561048Y-15007893D01*
X14561048Y-15007893D02*
X14608667Y-15007893D01*
X14608667Y-15007893D02*
X14627715Y-14998369D01*
X14722953Y-14950750D02*
X14722953Y-15150750D01*
X14722953Y-14960274D02*
X14742001Y-14950750D01*
X14742001Y-14950750D02*
X14780096Y-14950750D01*
X14780096Y-14950750D02*
X14799143Y-14960274D01*
X14799143Y-14960274D02*
X14808667Y-14969798D01*
X14808667Y-14969798D02*
X14818191Y-14988846D01*
X14818191Y-14988846D02*
X14818191Y-15045988D01*
X14818191Y-15045988D02*
X14808667Y-15065036D01*
X14808667Y-15065036D02*
X14799143Y-15074560D01*
X14799143Y-15074560D02*
X14780096Y-15084084D01*
X14780096Y-15084084D02*
X14742001Y-15084084D01*
X14742001Y-15084084D02*
X14722953Y-15074560D01*
X14903905Y-15065036D02*
X14913429Y-15074560D01*
X14913429Y-15074560D02*
X14903905Y-15084084D01*
X14903905Y-15084084D02*
X14894382Y-15074560D01*
X14894382Y-15074560D02*
X14903905Y-15065036D01*
X14903905Y-15065036D02*
X14903905Y-15084084D01*
X14903905Y-14960274D02*
X14913429Y-14969798D01*
X14913429Y-14969798D02*
X14903905Y-14979322D01*
X14903905Y-14979322D02*
X14894382Y-14969798D01*
X14894382Y-14969798D02*
X14903905Y-14960274D01*
X14903905Y-14960274D02*
X14903905Y-14979322D01*
M02*
